<?xml version="1.0" standalone="no"?>
<!DOCTYPE svg PUBLIC "-//W3C//DTD SVG 1.1//EN" "http://www.w3.org/Graphics/SVG/1.1/DTD/svg11.dtd" >
<svg xmlns="http://www.w3.org/2000/svg">
<metadata></metadata>
<defs>
<font id="adihausdinbold" horiz-adv-x="1112" >
<font-face units-per-em="2048" ascent="1565" descent="-483" />
<missing-glyph horiz-adv-x="475" />
<glyph unicode="&#xd;" horiz-adv-x="475" />
<glyph unicode=" "  horiz-adv-x="475" />
<glyph unicode="&#x09;" horiz-adv-x="475" />
<glyph unicode="&#xa0;" horiz-adv-x="475" />
<glyph unicode="!" horiz-adv-x="710" d="M229 1458h330l-67 -1001h-197zM242 0v303h305v-303h-305z" />
<glyph unicode="&#x22;" horiz-adv-x="950" d="M139 1026v432h250v-432h-250zM561 1026v432h248v-432h-248z" />
<glyph unicode="#" horiz-adv-x="1415" d="M123 389v250h182l33 221h-143v248h182l57 362h281l-58 -362h238l57 362h279l-55 -362h141v-248h-182l-33 -221h141v-250h-182l-62 -389h-280l63 389h-237l-62 -389h-280l61 389h-141zM584 639h237l33 221h-236z" />
<glyph unicode="$" horiz-adv-x="1267" d="M39 180l184 185q66 -66 150 -92.5t176 -30.5v370l-66 9q-92 12 -163.5 43.5t-118.5 78.5q-104 104 -105 285q0 178 113 297t313 141v185h207v-183q125 -8 222.5 -48t181.5 -120l-181 -178q-51 49 -119.5 72t-132.5 27v-357l78 -12q100 -16 166 -44t113 -71 q59 -55 85.5 -132t26.5 -175q0 -94 -32.5 -169t-91 -130t-139.5 -89t-177 -46v-229h-207v221q-147 4 -265 47t-218 145zM371 1038q0 -29 10 -55.5t33 -48.5q47 -45 135 -57v342q-90 -12 -134 -62.5t-44 -118.5zM700 246q92 10 141.5 55t49.5 121q0 80 -45 123 q-25 23 -56.5 34t-89.5 19v-352z" />
<glyph unicode="%" horiz-adv-x="1736" d="M106 987v203q0 70 24 122t65 87t95 53t116 18q59 0 113 -18t94 -53t63.5 -87t23.5 -122v-203q0 -70 -23.5 -122t-63.5 -88t-94 -53t-113 -17q-61 0 -115.5 17t-95.5 53t-65 88.5t-24 121.5zM301 995q0 -117 105 -116q102 0 102 116v187q0 117 -102 116q-104 0 -105 -116 v-187zM420 0l690 1458h209l-690 -1458h-209zM1036 268v203q0 70 23.5 122t64.5 87t94.5 53.5t114.5 18.5t114.5 -18.5t94.5 -53.5t64.5 -87t23.5 -122v-203q0 -70 -23.5 -122t-64.5 -87.5t-94 -53t-115 -17.5q-61 0 -114.5 17.5t-94.5 53t-64.5 88t-23.5 121.5zM1229 274 q0 -115 104 -114q104 0 105 114v189q0 117 -105 117q-104 0 -104 -117v-189z" />
<glyph unicode="&#x26;" horiz-adv-x="1476" d="M123 430q0 70 23.5 128t60.5 106.5t84 87.5t94 69q-23 25 -48.5 57.5t-47 70.5t-35.5 83t-14 98q0 74 26.5 136.5t76.5 107.5t122 70.5t164 25.5q86 0 154.5 -25.5t117.5 -71.5t74.5 -109.5t25.5 -137.5q0 -86 -40.5 -145t-108.5 -109l-104 -75l245 -291 q35 47 52.5 112.5t21.5 143.5h252q-8 -141 -43 -254t-113 -199l262 -309h-338l-106 127q-29 -23 -62.5 -47.5t-78.5 -45t-102.5 -33.5t-133.5 -13q-242 0 -361.5 117.5t-119.5 324.5zM381 434q0 -45 17.5 -83t47 -64.5t69.5 -42t87 -15.5q66 0 116 20.5t101 65.5l-291 342 q-66 -47 -106.5 -96t-40.5 -127zM508 1124q0 -41 28.5 -79.5t67.5 -83.5l62 40q35 25 59.5 54.5t24.5 68.5q0 51 -32 85t-89 34q-59 0 -90 -33.5t-31 -85.5z" />
<glyph unicode="'" horiz-adv-x="530" d="M139 1026v432h252v-432h-252z" />
<glyph unicode="(" horiz-adv-x="688" d="M164 283v893q0 68 9 136t44 128q35 59 81 108t99 103l181 -181q-37 -37 -63 -63.5t-52 -71.5q-31 -59 -31 -172v-868q0 -115 31 -172q27 -45 52.5 -71.5t62.5 -63.5l-181 -181q-53 53 -99 102.5t-81 108.5q-37 61 -45 128t-8 137z" />
<glyph unicode=")" horiz-adv-x="688" d="M111 -12q37 37 62.5 63.5t51.5 71.5q31 57 31 172v868q0 113 -31 172q-27 45 -52.5 72t-61.5 63l180 181q53 -53 99 -102.5t81 -108.5t44 -128t9 -136v-893q0 -70 -8 -136.5t-45 -128.5q-35 -59 -81 -108t-99 -103z" />
<glyph unicode="*" horiz-adv-x="1011" d="M113 942l225 119l-225 119l92 163l217 -137l-10 256h188l-8 -256l215 137l94 -163l-227 -119l227 -119l-94 -162l-215 135l8 -256h-188l10 256l-217 -135z" />
<glyph unicode="+" d="M102 442v250h330v328h250v-328h328v-250h-328v-327h-250v327h-330z" />
<glyph unicode="," horiz-adv-x="571" d="M139 291h293v-404l-293 -225v629z" />
<glyph unicode="-" horiz-adv-x="872" d="M121 461v248h631v-248h-631z" />
<glyph unicode="." horiz-adv-x="583" d="M139 0v303h305v-303h-305z" />
<glyph unicode="/" horiz-adv-x="825" d="M0 -152l584 1762h250l-584 -1762h-250z" />
<glyph unicode="0" horiz-adv-x="1081" d="M96 422v614q0 104 36 185.5t97.5 136.5t141.5 83.5t170 28.5q88 0 169 -28.5t141 -83.5t96 -136t36 -186v-614q0 -104 -36 -185t-96 -136.5t-141 -84t-169 -28.5q-90 0 -170 28.5t-141.5 84t-97.5 136t-36 185.5zM362 424q0 -92 49.5 -144.5t129.5 -52.5t128 52.5 t48 144.5v608q0 92 -48 145.5t-128 53.5t-129.5 -53.5t-49.5 -145.5v-608z" />
<glyph unicode="1" horiz-adv-x="1081" d="M195 913v287l297 258h266v-1458h-266v1171z" />
<glyph unicode="2" horiz-adv-x="1081" d="M104 0v240l545 632q41 47 58.5 86t17.5 91q0 82 -45 132t-131 50q-33 0 -64.5 -9.5t-57.5 -31t-41 -57t-15 -89.5h-267q0 100 34 179.5t94.5 134.5t141.5 83.5t175 28.5q96 0 178 -29.5t140.5 -83.5t91 -133t32.5 -177q0 -53 -10 -95.5t-29.5 -81.5t-49.5 -76.5 t-66 -80.5l-408 -473h563v-240h-887z" />
<glyph unicode="3" horiz-adv-x="1081" d="M70 418h266q2 -49 18.5 -85t43 -59.5t62.5 -35t75 -11.5q86 0 141 52.5t55 150.5q0 92 -53 146.5t-152 54.5h-39v231h39q98 0 141.5 52.5t43.5 129.5q0 92 -53.5 139.5t-125.5 47.5q-76 0 -126 -46t-54 -130h-266q2 98 38 175t95.5 130t140 81.5t172.5 28.5 q96 0 178.5 -30.5t141.5 -86t92 -132t33 -168.5q0 -119 -48 -189.5t-120 -109.5q78 -41 133 -120t55 -212q0 -109 -36.5 -190.5t-100 -136t-147.5 -81t-178 -26.5q-90 0 -173 24.5t-147.5 76.5t-103.5 133t-41 196z" />
<glyph unicode="4" horiz-adv-x="1081" d="M47 207v252l500 999h291l-500 -999h305v272h256v-272h133v-252h-133v-207h-256v207h-596z" />
<glyph unicode="5" horiz-adv-x="1081" d="M100 408h267q10 -86 52 -133.5t126 -47.5q80 0 127 47q35 35 46 91.5t11 126.5q0 127 -40 194.5t-138 67.5q-82 0 -122 -38t-54 -81h-244v823h832v-239h-590v-314q29 29 87 51.5t132 22.5q92 0 159.5 -26.5t112.5 -71.5q86 -86 108.5 -185.5t22.5 -203.5 q0 -123 -24.5 -214.5t-104.5 -171.5q-49 -49 -128 -83.5t-193 -34.5q-115 0 -197 34.5t-129 81.5q-68 68 -90.5 146t-28.5 158z" />
<glyph unicode="6" horiz-adv-x="1081" d="M82 438q0 100 37 194.5t86 194.5l307 631h291l-303 -602q27 10 54.5 14t53.5 4q74 0 142.5 -29.5t123 -84.5t86 -136.5t31.5 -181.5q0 -109 -34.5 -192.5t-96 -142t-144.5 -89t-179 -30.5t-179.5 29.5t-144.5 87t-96 141.5t-35 192zM348 440q0 -102 53.5 -157.5 t135.5 -55.5t135 55.5t53 157.5q0 98 -51 155.5t-137 57.5q-82 0 -135.5 -55t-53.5 -158z" />
<glyph unicode="7" horiz-adv-x="1081" d="M86 989v469h928v-239l-473 -1219h-289l473 1219h-385v-230h-254z" />
<glyph unicode="8" horiz-adv-x="1081" d="M74 424q0 68 17.5 119t44 91t58 68.5t62.5 49.5q-29 18 -57.5 46.5t-52 65.5t-39 84t-15.5 107q0 96 36 173t97.5 131t142.5 82.5t173 28.5t173 -28.5t141 -82.5t96 -131t36 -173q0 -59 -15.5 -106.5t-39 -84.5t-53 -65.5t-56.5 -46.5q31 -20 63 -49t59.5 -69t45 -91 t17.5 -119q0 -106 -37 -187t-100.5 -136.5t-148.5 -84t-181 -28.5t-181.5 28.5t-149 84t-100 136t-36.5 187.5zM340 428q0 -86 57.5 -143.5t143.5 -57.5t143 57.5t57 143.5t-57 144.5t-143 58.5t-143.5 -58.5t-57.5 -144.5zM358 1047q0 -80 52.5 -132.5t130.5 -52.5 t129 52.5t51 132.5q0 78 -51.5 131t-128.5 53q-78 0 -130.5 -53.5t-52.5 -130.5z" />
<glyph unicode="9" horiz-adv-x="1081" d="M88 1016q0 106 35 191t96.5 143.5t144 89t179.5 30.5q96 0 179 -29.5t144.5 -87t96 -141t34.5 -192.5q0 -100 -35.5 -194.5t-84.5 -194.5l-310 -631h-288l303 602q-27 -10 -54.5 -14t-54.5 -4q-74 0 -143.5 29.5t-122.5 85t-86 135t-33 182.5zM354 1018 q0 -98 51.5 -155.5t137.5 -57.5q82 0 135 55.5t53 157.5t-53 157.5t-135 55.5t-135.5 -55.5t-53.5 -157.5z" />
<glyph unicode=":" horiz-adv-x="632" d="M190 0v303h304v-303h-304zM190 555v303h304v-303h-304z" />
<glyph unicode=";" horiz-adv-x="632" d="M190 555v303h304v-303h-304zM197 291h290v-404l-290 -225v629z" />
<glyph unicode="&#x3c;" d="M141 469v231l832 383v-280l-494 -219l494 -217v-281z" />
<glyph unicode="=" d="M102 238v249h908v-249h-908zM102 682v250h908v-250h-908z" />
<glyph unicode="&#x3e;" d="M141 86v281l494 217l-494 219v280l832 -383v-231z" />
<glyph unicode="?" horiz-adv-x="1071" d="M135 1061q0 94 34 171t92 129t136 80.5t168 28.5q86 0 165 -27.5t138.5 -79.5t94 -128t34.5 -174q0 -78 -28.5 -138.5t-71.5 -117.5l-152 -201q-16 -20 -26 -49t-10 -55v-43h-267v61q0 66 18.5 113t59.5 100l152 195q25 33 42 67.5t17 69.5q0 72 -44 120t-122 48 q-82 0 -123 -49t-41 -121h-266zM434 0v272h283v-272h-283z" />
<glyph unicode="@" horiz-adv-x="1986" d="M121 522q0 197 72.5 365t200.5 290.5t301 192.5t376 70q182 0 331.5 -55.5t256 -155t165 -236.5t58.5 -301q0 -123 -45 -234.5t-127 -196.5t-196.5 -135t-251.5 -50h-213l20 96q-53 -55 -108.5 -82t-122.5 -27q-139 0 -213 80t-74 197q0 78 24 195q12 66 26.5 121t33 103 t44.5 87t64 74q55 49 117 66.5t125 17.5q82 0 134 -30t83 -77l19 94h243l-151 -758q92 6 161.5 46t116.5 102.5t71 143.5t24 167q0 129 -44.5 233.5t-125 177.5t-194.5 112.5t-251 39.5q-158 0 -293 -56t-235.5 -154.5t-157.5 -232.5t-57 -290q0 -170 52 -305t149.5 -229 t236.5 -144.5t315 -50.5h154l-33 -170h-155q-209 0 -380 66.5t-293 186.5t-187.5 285t-65.5 361zM805 408q0 -68 33.5 -100t83.5 -32q68 0 114 43q31 29 53.5 79.5t38.5 136.5q6 31 10.5 62t4.5 62q0 68 -35 100t-84 32q-63 0 -111 -41q-31 -29 -55 -78t-41 -137 q-12 -61 -12 -127z" />
<glyph unicode="A" horiz-adv-x="1306" d="M10 0l531 1458h223l532 -1458h-297l-86 258h-518l-88 -258h-297zM475 498h363l-179 530z" />
<glyph unicode="B" horiz-adv-x="1347" d="M170 0v1458h586q102 0 186 -28.5t142.5 -81t90 -126t31.5 -165.5q0 -209 -180 -309q43 -23 65.5 -39.5t45.5 -38.5q47 -51 68.5 -112.5t21.5 -139.5q0 -96 -31 -173t-89 -131.5t-141 -84t-186 -29.5h-610zM455 254h297q88 0 139 48t51 132t-51 131t-139 47h-297v-358z M455 868h278q88 0 138.5 45t50.5 123t-50.5 123t-138.5 45h-278v-336z" />
<glyph unicode="C" horiz-adv-x="1269" d="M121 729q0 104 3 188t16.5 155t43 130.5t84.5 114.5q76 74 170 113.5t221 39.5q205 0 349.5 -115.5t185.5 -344.5h-291q-23 90 -80 148.5t-164 58.5q-59 0 -105 -20.5t-77 -55.5q-20 -23 -33.5 -51.5t-21.5 -73.5t-12 -113.5t-4 -173.5q0 -104 4 -173t12 -114t21.5 -73.5 t33.5 -51.5q31 -35 77 -55t105 -20q106 0 165 58t81 149h289q-41 -229 -185.5 -345t-349.5 -116q-127 0 -221 40t-170 113q-55 55 -84.5 114.5t-43 130.5t-16.5 155t-3 188z" />
<glyph unicode="D" horiz-adv-x="1349" d="M170 0v1458h526q150 0 256.5 -51t184.5 -162q33 -47 52 -99t27.5 -114.5t10.5 -137.5t2 -165t-2 -165t-10.5 -137t-28 -114.5t-51.5 -99.5q-78 -111 -184.5 -162t-256.5 -51h-526zM455 254h217q141 0 213 90q20 25 31.5 55.5t17.5 74.5t8 106.5t2 148.5t-2 148.5 t-8 106.5t-17.5 75t-31.5 55q-72 90 -213 90h-217v-950z" />
<glyph unicode="E" horiz-adv-x="1239" d="M170 0v1458h960v-254h-675v-342h575v-254h-575v-354h675v-254h-960z" />
<glyph unicode="F" horiz-adv-x="1208" d="M170 0v1458h960v-254h-675v-358h575v-254h-575v-592h-285z" />
<glyph unicode="G" horiz-adv-x="1329" d="M121 729q0 104 3 188t16.5 155t43 130.5t84.5 114.5q76 74 170 113.5t219 39.5q127 0 223.5 -38.5t164 -103t107.5 -148.5t54 -176h-286q-49 213 -263 213q-59 0 -104 -21.5t-78 -56.5q-20 -23 -33.5 -50.5t-21.5 -72.5t-11 -113.5t-3 -173.5q0 -104 3 -173t11 -114 t21.5 -73.5t33.5 -51.5q33 -35 78 -55t104 -20q66 0 117 21.5t86 60.5q35 41 50.5 89t15.5 105v53h-269v240h551v-213q0 -158 -29.5 -260t-109.5 -184q-92 -96 -193.5 -131t-218.5 -35q-125 0 -219 40t-170 113q-55 55 -84.5 114.5t-43 130.5t-16.5 155t-3 188z" />
<glyph unicode="H" horiz-adv-x="1402" d="M170 0v1458h285v-596h493v596h285v-1458h-285v610h-493v-610h-285z" />
<glyph unicode="I" horiz-adv-x="624" d="M170 0v1458h285v-1458h-285z" />
<glyph unicode="J" horiz-adv-x="1046" d="M6 137l189 187q35 -35 74.5 -58.5t111.5 -23.5q104 0 166.5 61.5t62.5 188.5v966h285v-979q0 -121 -42 -213t-113.5 -153.5t-165 -93t-193.5 -31.5q-119 0 -206 33.5t-169 115.5z" />
<glyph unicode="K" horiz-adv-x="1361" d="M170 0v1458h285v-635l514 635h346l-484 -579l519 -879h-332l-375 664l-188 -226v-438h-285z" />
<glyph unicode="L" horiz-adv-x="1177" d="M170 0v1458h285v-1204h661v-254h-946z" />
<glyph unicode="M" horiz-adv-x="1660" d="M170 0v1458h281l380 -788l379 788h281v-1458h-285v850l-278 -553h-193l-280 553v-850h-285z" />
<glyph unicode="N" horiz-adv-x="1456" d="M170 0v1458h254l577 -893v893h285v-1458h-254l-577 895v-895h-285z" />
<glyph unicode="O" horiz-adv-x="1318" d="M121 729q0 104 3 188t16.5 155t43 130.5t84.5 114.5q74 74 169 113.5t222 39.5t221.5 -39.5t168.5 -113.5q55 -55 84.5 -114.5t44 -130.5t17.5 -155t3 -188t-3 -188t-17.5 -155t-44 -130t-84.5 -115q-74 -74 -168.5 -113.5t-221.5 -39.5t-222 40t-169 113 q-55 55 -84.5 114.5t-43 130.5t-16.5 155t-3 188zM406 729q0 -104 3 -173t11 -113t21.5 -71.5t33.5 -49.5q33 -35 79 -57.5t105 -22.5t105.5 22.5t77.5 57.5q20 23 33.5 50t21.5 71t12 113t4 173t-4 173t-12 114t-21.5 72.5t-33.5 50.5q-31 35 -77 56.5t-106 21.5 q-59 0 -105 -21.5t-79 -56.5q-20 -23 -33.5 -50.5t-21.5 -72.5t-11 -113.5t-3 -173.5z" />
<glyph unicode="P" horiz-adv-x="1286" d="M170 0v1458h565q113 0 203 -36t151.5 -98t94.5 -145t33 -175t-33 -175.5t-94.5 -145.5t-151.5 -98t-203 -36h-280v-549h-285zM455 805h266q98 0 154.5 54.5t56.5 144.5t-56.5 145t-154.5 55h-266v-399z" />
<glyph unicode="Q" horiz-adv-x="1316" d="M121 729q0 104 3 188t16.5 155t43 130.5t84.5 114.5q76 74 170 113.5t221 39.5t221.5 -39.5t168.5 -113.5q55 -55 84.5 -114.5t44 -130.5t17.5 -155t3 -188q0 -88 -2 -161.5t-10 -136t-26.5 -116t-51.5 -102.5l125 -125l-150 -149l-131 127q-59 -37 -131.5 -57.5 t-161.5 -20.5q-127 0 -221 40t-170 113q-55 55 -84.5 114.5t-43 130.5t-16.5 155t-3 188zM406 729q0 -104 3 -173t11 -113t21.5 -71.5t33.5 -49.5q33 -35 79 -57.5t105 -22.5q53 0 95 26l-127 125l149 152l111 -111q16 47 21 115.5t5 179.5q0 104 -4 173t-12 114t-21.5 72.5 t-33.5 50.5q-31 35 -77 56.5t-106 21.5q-59 0 -105 -21.5t-79 -56.5q-20 -23 -33.5 -50.5t-21.5 -72.5t-11 -113.5t-3 -173.5z" />
<glyph unicode="R" horiz-adv-x="1339" d="M170 0v1458h571q111 0 199 -36t149.5 -96t93 -141t31.5 -173q0 -78 -21.5 -139.5t-58 -109.5t-85 -82t-101.5 -52l326 -629h-330l-285 582h-204v-582h-285zM455 819h268q94 0 150.5 53.5t56.5 139.5t-56.5 139t-150.5 53h-268v-385z" />
<glyph unicode="S" horiz-adv-x="1210" d="M39 180l184 185q70 -70 160 -96.5t190 -26.5q129 0 195 47t66 135q0 76 -46 121q-23 20 -49 30.5t-82 18.5l-174 27q-98 14 -165.5 43.5t-116.5 76.5q-104 100 -105 287q0 98 35 179t100.5 139.5t159.5 91t213 32.5q152 0 264.5 -38.5t206.5 -131.5l-180 -178 q-68 66 -147.5 83.5t-151.5 17.5q-115 0 -169 -54.5t-54 -130.5q0 -29 9 -55.5t32 -48.5q23 -20 54.5 -34.5t78.5 -20.5l174 -27q100 -14 165.5 -41t112.5 -74q59 -53 86 -131t27 -176q0 -106 -41 -188t-113.5 -138.5t-172 -86t-214.5 -29.5q-166 0 -296 42t-236 150z" />
<glyph unicode="T" horiz-adv-x="1169" d="M61 1204v254h1047v-254h-381v-1204h-285v1204h-381z" />
<glyph unicode="U" horiz-adv-x="1368" d="M147 500v958h285v-948q0 -127 67.5 -197.5t184.5 -70.5t185.5 70.5t68.5 197.5v948h283v-958q0 -117 -42 -211t-115 -161t-170 -103.5t-210 -36.5t-210 36.5t-170 103.5t-115 161t-42 211z" />
<glyph unicode="V" horiz-adv-x="1189" d="M6 1458h295l293 -950l293 950h297l-484 -1458h-213z" />
<glyph unicode="W" horiz-adv-x="1816" d="M12 1458h297l226 -919l266 919h213l266 -919l227 919h297l-391 -1458h-237l-269 885l-268 -885h-238z" />
<glyph unicode="X" horiz-adv-x="1234" d="M10 0l453 748l-424 710h323l254 -471l256 471h322l-424 -710l455 -748h-326l-283 508l-280 -508h-326z" />
<glyph unicode="Y" horiz-adv-x="1171" d="M6 1458h309l273 -588l268 588h309l-438 -860v-598h-283v598z" />
<glyph unicode="Z" horiz-adv-x="1122" d="M82 0v229l623 975h-596v254h931v-225l-624 -979h624v-254h-958z" />
<glyph unicode="[" horiz-adv-x="774" d="M164 -152v1762h526v-240h-260v-1282h260v-240h-526z" />
<glyph unicode="\" horiz-adv-x="825" d="M0 1583h250l575 -1735h-250z" />
<glyph unicode="]" horiz-adv-x="774" d="M86 86h260v1286h-260v238h526v-1762h-526v238z" />
<glyph unicode="^" horiz-adv-x="1232" d="M129 797l365 676h245l365 -676h-279l-209 385l-208 -385h-279z" />
<glyph unicode="_" horiz-adv-x="1232" d="M0 -186h1233v-179h-1233v179z" />
<glyph unicode="`" horiz-adv-x="1024" d="M213 1585h281l131 -348h-179z" />
<glyph unicode="a" horiz-adv-x="1093" d="M74 324q0 63 22.5 119.5t67.5 98.5t114.5 66.5t163.5 24.5h248v53q0 88 -46 128t-152 40q-72 0 -117 -21.5t-88 -70.5l-168 166q78 86 164 118.5t219 32.5q455 0 454 -377v-702h-260v92q-53 -53 -111.5 -77.5t-150.5 -24.5q-178 0 -272 94q-43 45 -65.5 106.5 t-22.5 133.5zM369 240q39 -33 123 -33q49 0 85.5 9t71.5 42q23 20 32 52t9 83v58h-203q-157 0 -157 -121q0 -57 39 -90z" />
<glyph unicode="b" horiz-adv-x="1146" d="M150 0v1458h266v-485q51 59 113.5 82.5t144.5 23.5q80 0 146.5 -24.5t111.5 -71.5q39 -39 60.5 -89t32.5 -107.5t14 -120.5t3 -131t-3 -132.5t-14 -122t-32.5 -107.5t-60.5 -89q-45 -47 -112.5 -71.5t-145.5 -24.5q-86 0 -148.5 25.5t-117.5 86.5v-100h-258zM416 535 q0 -66 6 -121.5t24.5 -97.5t54.5 -65.5t95 -23.5t95 23.5t54.5 65.5t24.5 97.5t6 121.5q0 63 -6 119.5t-24.5 97.5t-54.5 64.5t-95 23.5t-95 -23.5t-54.5 -64.5t-24.5 -97.5t-6 -119.5z" />
<glyph unicode="c" horiz-adv-x="983" d="M96 535q0 162 45 267t114 166.5t154 86t164 24.5q111 0 196 -34.5t157 -108.5l-181 -180q-41 45 -79.5 64.5t-92.5 19.5q-94 0 -151 -70q-31 -39 -45.5 -94t-14.5 -141q0 -164 60 -238q57 -70 151 -70q53 0 92.5 19.5t79.5 64.5l181 -178q-72 -74 -157 -109.5t-196 -35.5 q-80 0 -164.5 24.5t-153.5 87t-114 168t-45 267.5z" />
<glyph unicode="d" horiz-adv-x="1148" d="M104 535q0 68 3.5 131t14.5 120.5t32.5 107.5t60.5 89q45 47 111.5 71.5t146.5 24.5q82 0 144.5 -23.5t115.5 -82.5v485h266v-1458h-260v100q-55 -61 -116.5 -86.5t-147.5 -25.5q-80 0 -147.5 24.5t-112.5 71.5q-39 39 -60.5 89t-32.5 107.5t-14.5 122t-3.5 132.5z M371 535q0 -66 6 -121.5t24.5 -97.5t54.5 -65.5t95 -23.5t95 23.5t55.5 65.5t25.5 97.5t6 121.5q0 63 -6 119.5t-25.5 97.5t-55.5 64.5t-95 23.5t-95 -23.5t-54.5 -64.5t-24.5 -97.5t-6 -119.5z" />
<glyph unicode="e" horiz-adv-x="1122" d="M96 535q0 131 34 232t95.5 171t146.5 105.5t189 35.5q111 0 198 -37.5t146.5 -106.5t90 -164t30.5 -208v-112h-668q0 -104 59.5 -171t174.5 -67q88 0 139 25.5t103 74.5l161 -157q-41 -41 -82 -73t-89 -53.5t-105 -31.5t-129 -10q-94 0 -183.5 24.5t-158 87t-110.5 168 t-42 267.5zM358 633h406q-2 35 -6 60.5t-19 54.5q-23 47 -66.5 78.5t-111.5 31.5t-111.5 -31.5t-66.5 -78.5q-14 -29 -18.5 -54.5t-6.5 -60.5z" />
<glyph unicode="f" horiz-adv-x="700" d="M72 834v202h110v133q0 57 18.5 111.5t56.5 97.5t96.5 70t140.5 27h151v-226h-104q-92 0 -92 -96v-117h196v-202h-196v-834h-267v834h-110z" />
<glyph unicode="g" horiz-adv-x="1136" d="M104 563q0 70 3.5 130.5t13.5 112.5t32.5 97t59.5 82q45 45 111.5 69.5t144.5 24.5q86 0 145.5 -25.5t114.5 -86.5v100h258v-1028q0 -96 -32.5 -177t-94 -140.5t-148.5 -92t-194 -32.5q-123 0 -213 29.5t-174 109.5l166 168q45 -43 93 -62.5t116 -19.5q59 0 100 19.5 t66.5 50t37 70.5t11.5 81v109q-53 -59 -114.5 -83t-139.5 -24t-143.5 24.5t-110.5 69.5q-37 37 -59.5 82t-32.5 97.5t-13.5 114t-3.5 130.5zM371 563q0 -53 5 -103t22.5 -89t52 -62.5t94.5 -23.5q59 0 94 23.5t53.5 62.5t23.5 89t5 103t-5 103.5t-23.5 88.5t-53.5 61.5 t-94 23.5t-94 -23.5t-52.5 -61.5t-22.5 -88.5t-5 -103.5z" />
<glyph unicode="h" horiz-adv-x="1173" d="M150 0v1458h266v-489q51 55 116.5 82.5t143.5 27.5q80 0 143.5 -24.5t108.5 -69.5q66 -66 87 -140.5t21 -162.5v-682h-266v645q0 55 -15.5 92t-41 59.5t-57 33t-62.5 10.5t-62.5 -10.5t-57 -33t-42 -59.5t-16.5 -92v-645h-266z" />
<glyph unicode="i" horiz-adv-x="563" d="M145 1249v217h273v-217h-273zM150 0v1036h266v-1036h-266z" />
<glyph unicode="j" horiz-adv-x="563" d="M-47 -174h102q51 0 73 24.5t22 71.5v1114h266v-1130q0 -57 -17.5 -111.5t-55.5 -97.5t-97.5 -69.5t-141.5 -26.5h-151v225zM145 1249v217h273v-217h-273z" />
<glyph unicode="k" horiz-adv-x="1144" d="M150 0v1458h266v-827l354 436h322l-381 -430l409 -637h-329l-263 444l-112 -127v-317h-266z" />
<glyph unicode="l" horiz-adv-x="665" d="M139 305v1153h267v-1136q0 -47 21.5 -72t72.5 -25h102v-225h-151q-82 0 -141.5 26.5t-97.5 69.5t-55.5 97.5t-17.5 111.5z" />
<glyph unicode="m" horiz-adv-x="1794" d="M150 0v1067h260v-98q53 53 122.5 81.5t143.5 28.5q90 0 160.5 -32.5t121.5 -102.5q68 72 144 103.5t176 31.5q80 0 148.5 -24.5t113.5 -69.5q66 -66 91.5 -140.5t25.5 -162.5v-682h-266v645q0 55 -15.5 92t-41 59.5t-57.5 33t-63 10.5t-62.5 -10.5t-57 -32t-42 -58.5 t-16.5 -88v-651h-266v645q0 55 -15.5 92t-41 59.5t-57 33t-62.5 10.5t-62.5 -10.5t-57 -33t-42 -59.5t-16.5 -92v-645h-266z" />
<glyph unicode="n" horiz-adv-x="1173" d="M150 0v1067h260v-98q53 55 122.5 82.5t143.5 27.5q80 0 143.5 -24.5t108.5 -69.5q66 -66 87 -140.5t21 -162.5v-682h-266v645q0 55 -15.5 92t-41 59.5t-57 33t-62.5 10.5t-62.5 -10.5t-57 -33t-42 -59.5t-16.5 -92v-645h-266z" />
<glyph unicode="o" d="M104 535q0 145 25 240t96 173q51 53 131 92t199 39t200 -39t132 -92q72 -78 96.5 -173t24.5 -240t-23.5 -242.5t-97.5 -173.5q-51 -53 -132 -92t-200 -39t-199 39t-131 92q-72 78 -96.5 174t-24.5 242zM371 535q0 -84 10 -152t51 -109q47 -47 123 -47q78 0 125 47 q41 41 51 109t10 152q0 82 -10 149.5t-51 108.5q-47 47 -125 47q-76 0 -123 -47q-41 -41 -51 -109t-10 -149z" />
<glyph unicode="p" horiz-adv-x="1146" d="M150 -391v1458h258v-100q55 61 117.5 86.5t148.5 25.5q78 0 145.5 -24.5t112.5 -71.5q39 -39 60.5 -89t32.5 -107.5t14 -120.5t3 -131t-3 -131.5t-14 -122t-32.5 -108.5t-60.5 -89q-45 -47 -112.5 -71.5t-145.5 -24.5q-82 0 -144.5 23.5t-113.5 82.5v-485h-266zM416 535 q0 -66 6 -121.5t24.5 -97.5t54.5 -65.5t95 -23.5t95 23.5t54.5 65.5t24.5 97.5t6 121.5q0 63 -6 119.5t-24.5 97.5t-54.5 64.5t-95 23.5t-95 -23.5t-54.5 -64.5t-24.5 -97.5t-6 -119.5z" />
<glyph unicode="q" horiz-adv-x="1148" d="M104 535q0 68 3.5 131t14.5 120.5t32.5 107.5t60.5 89q45 47 112.5 71.5t147.5 24.5q86 0 147.5 -25.5t116.5 -86.5v100h260v-1458h-266v485q-53 -59 -115.5 -82.5t-144.5 -23.5q-80 0 -146.5 24.5t-111.5 71.5q-39 39 -60.5 89t-32.5 108.5t-14.5 122t-3.5 131.5z M371 535q0 -66 6 -121.5t24.5 -97.5t54.5 -65.5t95 -23.5t95 23.5t55.5 64.5t25.5 97.5t6 122.5q0 63 -6 119.5t-25.5 97.5t-55.5 64.5t-95 23.5t-95 -23.5t-54.5 -64.5t-24.5 -97.5t-6 -119.5z" />
<glyph unicode="r" horiz-adv-x="931" d="M150 0v1067h260v-102q39 47 110.5 80.5t157.5 33.5q78 0 137 -22.5t115 -77.5l-201 -203q-31 31 -61.5 47.5t-79.5 16.5q-31 0 -61.5 -11.5t-55.5 -36t-40 -61.5t-15 -88v-643h-266z" />
<glyph unicode="s" horiz-adv-x="1026" d="M45 141l174 174q33 -33 70 -52t74.5 -30.5t73.5 -14.5t67 -3q35 0 68.5 6t60 19.5t43 34t16.5 51.5q0 41 -23.5 66.5t-88.5 31.5l-172 16q-141 14 -224.5 83t-83.5 216q0 84 34 147.5t90.5 106.5t131 64.5t156.5 21.5q127 0 228.5 -26.5t179.5 -98.5l-164 -166 q-47 41 -111.5 56.5t-136.5 15.5q-80 0 -116 -30.5t-36 -71.5t26 -63.5t85 -28.5l168 -17q160 -16 238.5 -96t78.5 -217q0 -88 -34.5 -153.5t-96 -108.5t-144.5 -64.5t-177 -21.5q-63 0 -123 5t-116 21.5t-110.5 46t-105.5 80.5z" />
<glyph unicode="t" horiz-adv-x="720" d="M61 834v202h113v316h266v-316h189v-202h-189v-512q0 -96 92 -97h97v-225h-146q-82 0 -140 26.5t-96 69.5t-55.5 97.5t-17.5 111.5v529h-113z" />
<glyph unicode="u" horiz-adv-x="1173" d="M137 385v682h266v-645q0 -55 15.5 -92t41 -59.5t57.5 -33t63 -10.5t62.5 10.5t57 33t42 59.5t16.5 92v645h266v-1067h-260v98q-53 -55 -123 -82.5t-143 -27.5q-80 0 -143.5 24.5t-108.5 69.5q-66 66 -87.5 140.5t-21.5 162.5z" />
<glyph unicode="v" horiz-adv-x="1009" d="M8 1067h281l217 -659l215 659h280l-391 -1067h-209z" />
<glyph unicode="w" horiz-adv-x="1554" d="M8 1067h283l172 -659l217 659h194l220 -659l172 659h280l-325 -1067h-220l-223 670l-223 -670h-219z" />
<glyph unicode="x" horiz-adv-x="1079" d="M25 0l368 545l-354 522h319l181 -305l182 305h319l-354 -522l369 -545h-320l-196 319l-195 -319h-319z" />
<glyph unicode="y" horiz-adv-x="1011" d="M8 1067h281l221 -659l213 659h281l-457 -1239q-35 -92 -80 -137q-47 -47 -105.5 -64.5t-123.5 -17.5h-105v239h62q57 0 84.5 18.5t48.5 78.5l45 131z" />
<glyph unicode="z" horiz-adv-x="978" d="M76 0v203l473 624h-447v240h787v-203l-479 -624h479v-240h-813z" />
<glyph unicode="{" horiz-adv-x="935" d="M88 610v238h94q37 0 63.5 11t43.5 28q35 35 35 123v297q0 141 86 227q37 37 93 56.5t136 19.5h209v-240h-109q-47 0 -73.5 -6t-42.5 -23q-16 -18 -24.5 -47.5t-8.5 -83.5v-276q0 -55 -14.5 -91t-36 -58.5t-46 -35t-44.5 -20.5q20 -8 44.5 -20.5t46 -35t36 -58t14.5 -91.5 v-276q0 -53 8 -83t25 -48q16 -16 42.5 -22.5t73.5 -6.5h109v-240h-209q-80 0 -136.5 19.5t-92.5 56.5q-86 86 -86 228v297q0 88 -35 122q-16 16 -43 27.5t-64 11.5h-94z" />
<glyph unicode="|" horiz-adv-x="716" d="M225 -152v1762h267v-1762h-267z" />
<glyph unicode="}" horiz-adv-x="935" d="M88 88h109q47 0 73.5 6t42.5 23q16 18 24.5 48t8.5 83v276q0 55 14.5 91t36 58.5t46 35t44.5 20.5q-20 8 -44.5 20.5t-46 35t-36 58.5t-14.5 91v276q0 53 -8 83t-25 48q-16 16 -42.5 22.5t-73.5 6.5h-109v240h209q80 0 136 -19.5t93 -56.5q86 -86 86 -227v-297 q0 -88 35 -123q16 -16 43 -27.5t64 -11.5h94v-238h-94q-37 0 -63.5 -11t-43.5 -28q-35 -35 -35 -122v-297q0 -141 -86 -228q-37 -37 -93 -56.5t-136 -19.5h-209v240z" />
<glyph unicode="~" horiz-adv-x="1241" d="M76 600q47 47 88 81t81 55.5t80 30.5t87 9q63 0 118.5 -17.5t120.5 -51.5q45 -23 83 -36.5t83 -13.5q41 0 81 14.5t97 71.5l170 -168q-47 -47 -88 -80.5t-81 -55t-81 -31t-88 -9.5q-63 0 -118.5 17.5t-120.5 52.5q-45 23 -84 36t-84 13q-41 0 -80 -14.5t-96 -71.5z" />
<glyph unicode="&#xa1;" horiz-adv-x="710" d="M154 -391l65 1001h199l65 -1001h-329zM178 795v272h281v-272h-281z" />
<glyph unicode="&#xa2;" horiz-adv-x="1021" d="M96 750q0 119 29 211t80 158.5t120.5 107.5t149.5 57v174h207v-174q86 -16 152.5 -54t126.5 -100l-177 -172q-31 33 -60.5 53.5t-70.5 30.5v-585q41 10 71 30.5t60 53.5l177 -172q-59 -61 -126 -99.5t-153 -54.5v-215h-207v215q-80 16 -149.5 57t-120.5 107.5t-80 159 t-29 211.5zM362 750q0 -86 16.5 -141.5t47.5 -94.5q31 -41 78 -53v577q-43 -12 -78 -53q-31 -39 -47.5 -94t-16.5 -141z" />
<glyph unicode="&#xa3;" horiz-adv-x="1185" d="M82 608v205h125v166q0 121 42 213t113.5 153.5t163.5 93t195 31.5q119 0 205 -33.5t168 -115.5l-187 -186q-35 35 -74.5 58.5t-111.5 23.5q-104 0 -168 -61.5t-64 -188.5v-154h232v-205h-232v-354h605v-254h-887v608h-125z" />
<glyph unicode="&#xa4;" horiz-adv-x="1370" d="M119 197l151 149q-31 53 -49 113.5t-18 126.5t18.5 126t48.5 113l-151 150l176 176l151 -150q53 31 112.5 48.5t125.5 17.5t126 -17.5t114 -48.5l151 150l174 -176l-149 -150q31 -53 48 -113.5t17 -125.5q0 -66 -17.5 -126.5t-47.5 -113.5l149 -149l-174 -177l-151 150 q-53 -31 -113.5 -48.5t-126.5 -17.5t-125 17.5t-113 48.5l-151 -150zM444 586q0 -49 18.5 -93t51.5 -77t77 -51.5t93 -18.5t93 18.5t77 51.5t52.5 77t19.5 93t-19.5 93t-52.5 76.5t-77 51t-93 18.5t-93 -18.5t-77 -51t-51.5 -76.5t-18.5 -93z" />
<glyph unicode="&#xa5;" horiz-adv-x="1169" d="M6 1458h309l271 -590l270 590h307l-278 -553h151v-205h-256l-53 -102v-104h309v-205h-309v-289h-283v289h-311v205h311v104l-53 102h-258v205h154z" />
<glyph unicode="&#xa6;" horiz-adv-x="722" d="M225 -152v717h267v-717h-267zM225 893v717h267v-717h-267z" />
<glyph unicode="&#xa7;" horiz-adv-x="1087" d="M125 543q0 57 17.5 105t45 87t60.5 67.5t63 45.5q-66 35 -110.5 95.5t-44.5 172.5q0 70 23.5 133.5t72.5 112.5t123 78.5t174 29.5t174 -27.5t122 -74.5t72.5 -111.5t24.5 -138.5h-250q-4 68 -44 96.5t-99 28.5q-72 0 -107.5 -33.5t-35.5 -87.5q0 -90 137 -135l127 -41 q147 -47 223 -135t76 -250q0 -57 -18.5 -105t-46 -87t-59.5 -68t-61 -45q68 -35 117 -100.5t49 -184.5q0 -94 -34.5 -164.5t-92 -116.5t-130 -69.5t-148.5 -23.5q-74 0 -146.5 20.5t-130 64.5t-93.5 112.5t-38 166.5h256q4 -57 43 -93t109 -36q72 0 110.5 36t38.5 95 q0 41 -29.5 82t-113.5 70l-127 43q-74 25 -130 57.5t-93 78.5t-56.5 106.5t-19.5 142.5zM381 551q0 -55 15.5 -87t33.5 -50t48 -30.5t69 -12.5t67.5 12t47.5 31q18 18 34.5 50t16.5 87q0 53 -14.5 85t-36.5 54q-20 18 -48 30.5t-67 12.5t-68.5 -12t-48.5 -31 q-23 -23 -36 -54.5t-13 -84.5z" />
<glyph unicode="&#xa8;" horiz-adv-x="1024" d="M172 1241v256h227v-256h-227zM625 1241v256h227v-256h-227z" />
<glyph unicode="&#xa9;" horiz-adv-x="1728" d="M123 729q0 154 58.5 289t158.5 235.5t235.5 158.5t288.5 58q154 0 289 -58t235.5 -158.5t159 -235.5t58.5 -289t-58.5 -289t-159 -235.5t-235.5 -158.5t-289 -58t-289 58t-235 158.5t-158.5 235.5t-58.5 289zM299 729q0 -123 44 -228.5t120 -182t179 -120.5t222 -44 t222.5 44t179 120.5t118.5 182t43 228.5t-43 228.5t-118.5 182.5t-179 121t-222.5 44t-222 -44t-179 -121t-120 -182.5t-44 -228.5zM512 729q0 98 28.5 174t78 126t116 77t144.5 27q86 0 148.5 -29t121.5 -80l-115 -115q-41 35 -74.5 50.5t-80.5 15.5q-98 0 -145.5 -66.5 t-47.5 -179.5t47 -179.5t146 -66.5q47 0 80.5 15.5t74.5 50.5l115 -115q-57 -51 -120.5 -78.5t-149.5 -27.5q-78 0 -144.5 25.5t-116 76.5t-78 126t-28.5 173z" />
<glyph unicode="&#xaa;" horiz-adv-x="929" d="M98 864q0 51 17.5 96.5t53.5 79t91 53t129 19.5h199v41q0 70 -36 101.5t-122 31.5q-59 0 -93 -15.5t-69 -53.5l-137 133q63 70 133 94t176 24q180 0 271.5 -75.5t91.5 -225.5v-561h-211v74q-43 -43 -88 -62.5t-119 -19.5q-141 0 -215 78q-72 72 -72 188zM307 870 q0 -43 29 -68.5t88 -25.5q45 0 75.5 7.5t57.5 31.5q31 29 31 105v47h-166q-57 0 -86 -27t-29 -70z" />
<glyph unicode="&#xab;" horiz-adv-x="1286" d="M70 563l510 508v-317l-193 -191l193 -190v-318zM639 563l512 508v-317l-197 -191l197 -190v-318z" />
<glyph unicode="&#xac;" d="M94 489v248h924v-544h-248v296h-676z" />
<glyph unicode="&#xad;" horiz-adv-x="872" d="M121 461v248h631v-248h-631z" />
<glyph unicode="&#xae;" horiz-adv-x="1728" d="M123 729q0 154 58.5 289t158.5 235.5t235.5 158.5t288.5 58q154 0 289 -58t235.5 -158.5t159 -235.5t58.5 -289t-58.5 -289t-159 -235.5t-235.5 -158.5t-289 -58t-289 58t-235 158.5t-158.5 235.5t-58.5 289zM299 729q0 -123 43 -228.5t120 -182t179 -120.5t223 -44 q119 0 222.5 44t180 120.5t120 182t43.5 228.5t-43.5 228.5t-120 182.5t-180 121t-222.5 44q-121 0 -223 -44t-179 -121t-120 -182.5t-43 -228.5zM594 336v788h321q59 0 108.5 -20.5t83.5 -54t52.5 -78.5t18.5 -94q0 -82 -44 -134.5t-102 -74.5l166 -332h-201l-143 305h-84 v-305h-176zM770 774h123q49 0 78.5 31t29.5 72t-29.5 71.5t-78.5 30.5h-123v-205z" />
<glyph unicode="&#xaf;" horiz-adv-x="1024" d="M186 1276v180h650v-180h-650z" />
<glyph unicode="&#xb0;" horiz-adv-x="978" d="M113 1110q0 78 29.5 147.5t80.5 121t120 81t146 29.5q78 0 147 -29.5t120 -81t80.5 -121t29.5 -147.5t-29.5 -146.5t-80.5 -119.5t-120 -81t-147 -30t-146.5 30t-119.5 81t-80.5 119.5t-29.5 146.5zM328 1110q0 -70 47 -117t114 -47q68 0 115 47t47 117t-48 117t-116 47 t-113.5 -47t-45.5 -117z" />
<glyph unicode="&#xb1;" d="M102 0v250h908v-250h-908zM102 698v248h330v330h250v-330h328v-248h-328v-329h-250v329h-330z" />
<glyph unicode="&#xb2;" horiz-adv-x="679" d="M70 584v174l319 350q25 27 35 47.5t10 48.5q0 41 -22.5 64.5t-63.5 23.5q-31 0 -58.5 -18.5t-27.5 -71.5h-192q0 63 21.5 112.5t59 83.5t89 51t108.5 17q121 0 200 -69.5t79 -192.5q0 -68 -28 -112.5t-79 -100.5l-215 -233h322v-174h-557z" />
<glyph unicode="&#xb3;" horiz-adv-x="679" d="M57 846h193q0 -49 27.5 -73.5t68.5 -24.5q43 0 69.5 26.5t26.5 75.5q0 43 -26.5 70.5t-73.5 27.5h-27v166h27q47 0 68.5 27.5t21.5 60.5q0 45 -25.5 67.5t-60.5 22.5t-60.5 -22.5t-25.5 -63.5h-192q0 61 21.5 109.5t59 82.5t89 51t108.5 17q59 0 110.5 -19.5t88.5 -53 t58.5 -80.5t21.5 -105q0 -72 -29 -110.5t-64 -61.5q39 -25 71 -69.5t32 -122.5q0 -68 -23.5 -119t-63.5 -84t-92.5 -49.5t-109.5 -16.5q-55 0 -106.5 15.5t-92.5 48.5t-65.5 84t-24.5 123z" />
<glyph unicode="&#xb4;" horiz-adv-x="1024" d="M399 1237l131 348h281l-233 -348h-179z" />
<glyph unicode="&#xb5;" horiz-adv-x="1179" d="M143 -391v1458h267v-645q0 -55 15 -92t41 -59.5t57.5 -33t62.5 -10.5t62.5 10.5t57 33t42 59.5t16.5 92v645h266v-1067h-260v98q-53 -55 -122.5 -82.5t-143.5 -27.5q-55 0 -94 28v-407h-267z" />
<glyph unicode="&#xb6;" horiz-adv-x="1368" d="M72 1042q0 100 33.5 178t96 130.5t149.5 80t194 27.5h653v-1849h-266v1595h-205v-1595h-266v1022q-78 0 -147.5 32.5t-124 88t-86 130t-31.5 160.5z" />
<glyph unicode="&#xb7;" horiz-adv-x="583" d="M139 434v303h305v-303h-305z" />
<glyph unicode="&#xb8;" horiz-adv-x="1024" d="M328 -422l141 299h197l-91 -299h-247z" />
<glyph unicode="&#xb9;" horiz-adv-x="679" d="M111 1081v217l184 160h194v-874h-194v657z" />
<glyph unicode="&#xba;" horiz-adv-x="946" d="M113 1032q0 117 19.5 194t78.5 138q41 41 104.5 72.5t157.5 31.5t157.5 -31.5t104.5 -72.5q59 -61 79 -138t20 -194t-19.5 -192.5t-79.5 -137.5q-41 -41 -104.5 -72.5t-157.5 -31.5t-157.5 32t-104.5 72q-59 61 -78.5 137t-19.5 193zM328 1032q0 -66 7 -119t40 -86 q37 -37 98 -36q61 0 98 36q33 33 40 86t7 119t-7 120t-40 87q-37 37 -98 37t-98 -37q-33 -33 -40 -87t-7 -120z" />
<glyph unicode="&#xbb;" horiz-adv-x="1286" d="M137 55v318l195 190l-195 191v317l510 -508zM707 55v318l192 190l-192 191v317l512 -508z" />
<glyph unicode="&#xbc;" horiz-adv-x="1785" d="M111 1081v217l184 160h194v-874h-194v657zM444 0l691 1458h206l-690 -1458h-207zM1143 117v182l293 575h211l-295 -575h151v127h185v-127h67v-182h-67v-117h-185v117h-360z" />
<glyph unicode="&#xbd;" horiz-adv-x="1785" d="M111 1081v217l184 160h194v-874h-194v657zM444 0l691 1458h206l-690 -1458h-207zM1176 0v174l319 350q25 27 35 47.5t10 49.5q0 41 -22.5 64.5t-63.5 23.5q-31 0 -58.5 -18.5t-27.5 -72.5h-192q0 63 21.5 112.5t59 83.5t89 51.5t108.5 17.5q121 0 200 -70t79 -192 q0 -68 -28 -113t-79 -100l-215 -234h322v-174h-557z" />
<glyph unicode="&#xbe;" horiz-adv-x="1785" d="M57 846h193q0 -49 27.5 -73.5t68.5 -24.5q43 0 69.5 26.5t26.5 75.5q0 43 -26.5 70.5t-73.5 27.5h-27v166h27q47 0 68.5 27.5t21.5 60.5q0 45 -25.5 67.5t-60.5 22.5t-60.5 -22.5t-25.5 -63.5h-192q0 61 21.5 109.5t59 82.5t89 51t108.5 17q59 0 110.5 -19.5t88.5 -53 t58.5 -80.5t21.5 -105q0 -72 -29 -110.5t-64 -61.5q39 -25 71 -69.5t32 -122.5q0 -68 -23.5 -119t-63.5 -84t-92.5 -49.5t-109.5 -16.5q-55 0 -106.5 15.5t-92.5 48.5t-65.5 84t-24.5 123zM444 0l691 1458h206l-690 -1458h-207zM1143 117v182l293 575h211l-295 -575h151v127 h185v-127h67v-182h-67v-117h-185v117h-360z" />
<glyph unicode="&#xbf;" horiz-adv-x="1071" d="M74 6q0 78 28.5 138.5t71.5 117.5l152 203q16 20 26 49t10 55v41h267v-61q0 -66 -18.5 -113t-59.5 -100l-152 -195q-25 -33 -42 -67.5t-17 -69.5q0 -72 43 -120t121 -48q82 0 124 50.5t42 121.5h266q0 -96 -34 -172t-93 -129t-138 -81.5t-167 -28.5q-86 0 -165 27.5 t-137.5 79.5t-93 128t-34.5 174zM354 795v272h283v-272h-283z" />
<glyph unicode="&#xc0;" horiz-adv-x="1306" d="M10 0l531 1458h223l532 -1458h-297l-86 258h-518l-88 -258h-297zM352 1948h281l131 -349h-178zM475 498h363l-179 530z" />
<glyph unicode="&#xc1;" horiz-adv-x="1306" d="M10 0l531 1458h223l532 -1458h-297l-86 258h-518l-88 -258h-297zM475 498h363l-179 530zM539 1599l131 349h280l-233 -349h-178z" />
<glyph unicode="&#xc2;" horiz-adv-x="1306" d="M10 0l531 1458h223l532 -1458h-297l-86 258h-518l-88 -258h-297zM275 1599l270 347h213l270 -347h-207l-170 187l-170 -187h-206zM475 498h363l-179 530z" />
<glyph unicode="&#xc3;" horiz-adv-x="1306" d="M10 0l531 1458h223l532 -1458h-297l-86 258h-518l-88 -258h-297zM281 1759q66 68 118 94.5t111 26.5q45 0 80 -10t78 -37q31 -18 56.5 -27.5t55.5 -9.5q27 0 53.5 9.5t67.5 49.5l119 -116q-68 -68 -120 -94.5t-111 -26.5q-47 0 -82 10t-78 37q-29 16 -56.5 26.5 t-58.5 10.5q-27 0 -52.5 -9.5t-66.5 -50.5zM475 498h363l-179 530z" />
<glyph unicode="&#xc4;" horiz-adv-x="1306" d="M10 0l531 1458h223l532 -1458h-297l-86 258h-518l-88 -258h-297zM315 1604v256h228v-256h-228zM475 498h363l-179 530zM768 1604v256h227v-256h-227z" />
<glyph unicode="&#xc5;" horiz-adv-x="1306" d="M10 0l531 1458h223l532 -1458h-297l-86 258h-518l-88 -258h-297zM381 1810q0 55 21.5 104.5t57 85.5t85 57.5t104.5 21.5t104.5 -20.5t85 -57.5t57 -86.5t21.5 -104.5t-21.5 -104t-57 -85t-85 -57.5t-104.5 -21.5t-104.5 21.5t-85 57.5t-57 85t-21.5 104zM475 498h363 l-179 530zM530 1810q0 -49 35 -84.5t84 -35.5t84 35.5t35 84.5t-35 84t-84 35t-84 -34.5t-35 -84.5z" />
<glyph unicode="&#xc6;" horiz-adv-x="2004" d="M6 0l762 1458h1128v-254h-675v-344h577v-254h-577v-352h675v-254h-958v319h-461l-166 -319h-305zM600 559h338v645z" />
<glyph unicode="&#xc7;" horiz-adv-x="1269" d="M121 729q0 104 3 188t16.5 155t43 130.5t84.5 114.5q76 74 170 113.5t221 39.5q205 0 349.5 -115.5t185.5 -344.5h-291q-23 90 -80 148.5t-164 58.5q-59 0 -105 -20.5t-77 -55.5q-20 -23 -33.5 -51.5t-21.5 -73.5t-12 -113.5t-4 -173.5q0 -104 4 -173t12 -114t21.5 -73.5 t33.5 -51.5q31 -35 77 -55t105 -20q106 0 165 58t81 149h289q-41 -229 -185.5 -345t-349.5 -116q-127 0 -221 40t-170 113q-55 55 -84.5 114.5t-43 130.5t-16.5 155t-3 188zM439 -422l141 299h197l-91 -299h-247z" />
<glyph unicode="&#xc8;" horiz-adv-x="1239" d="M170 0v1458h960v-254h-675v-342h575v-254h-575v-354h675v-254h-960zM337 1948h281l131 -349h-178z" />
<glyph unicode="&#xc9;" horiz-adv-x="1239" d="M170 0v1458h960v-254h-675v-342h575v-254h-575v-354h675v-254h-960zM522 1599l131 349h280l-233 -349h-178z" />
<glyph unicode="&#xca;" horiz-adv-x="1239" d="M170 0v1458h960v-254h-675v-342h575v-254h-575v-354h675v-254h-960zM260 1599l270 347h213l270 -347h-207l-170 187l-170 -187h-206z" />
<glyph unicode="&#xcb;" horiz-adv-x="1239" d="M170 0v1458h960v-254h-675v-342h575v-254h-575v-354h675v-254h-960zM296 1604v256h228v-256h-228zM749 1604v256h227v-256h-227z" />
<glyph unicode="&#xcc;" horiz-adv-x="624" d="M45 1948h281l131 -349h-178zM170 0v1458h285v-1458h-285z" />
<glyph unicode="&#xcd;" horiz-adv-x="624" d="M170 0v1458h285v-1458h-285zM172 1599l131 349h280l-233 -349h-178z" />
<glyph unicode="&#xce;" horiz-adv-x="624" d="M-63 1599l270 347h213l270 -347h-207l-170 187l-170 -187h-206zM170 0v1458h285v-1458h-285z" />
<glyph unicode="&#xcf;" horiz-adv-x="624" d="M-25 1604v256h228v-256h-228zM170 0v1458h285v-1458h-285zM428 1604v256h227v-256h-227z" />
<glyph unicode="&#xd0;" horiz-adv-x="1396" d="M76 627v217h141v614h526q150 0 256.5 -51t184.5 -162q33 -47 52 -99t27.5 -114.5t10.5 -137.5t2 -165t-2 -165t-10.5 -137t-27.5 -114.5t-52 -99.5q-78 -111 -184.5 -162t-256.5 -51h-526v627h-141zM502 254h217q141 0 213 90q20 25 31.5 55.5t17.5 74.5t8 106.5t2 148.5 t-2 148.5t-8 106.5t-17.5 75t-31.5 55q-72 90 -213 90h-217v-360h237v-217h-237v-373z" />
<glyph unicode="&#xd1;" horiz-adv-x="1456" d="M170 0v1458h254l577 -893v893h285v-1458h-254l-577 895v-895h-285zM359 1759q66 68 118 94.5t111 26.5q45 0 80 -10t78 -37q31 -18 56.5 -27.5t55.5 -9.5q27 0 53.5 9.5t67.5 49.5l119 -116q-68 -68 -120 -94.5t-111 -26.5q-47 0 -82 10t-78 37q-29 16 -56.5 26.5 t-58.5 10.5q-27 0 -52.5 -9.5t-66.5 -50.5z" />
<glyph unicode="&#xd2;" horiz-adv-x="1318" d="M121 729q0 104 3 188t16.5 155t43 130.5t84.5 114.5q74 74 169 113.5t222 39.5t221.5 -39.5t168.5 -113.5q55 -55 84.5 -114.5t44 -130.5t17.5 -155t3 -188t-3 -188t-17.5 -155t-44 -130t-84.5 -115q-74 -74 -168.5 -113.5t-221.5 -39.5t-222 40t-169 113 q-55 55 -84.5 114.5t-43 130.5t-16.5 155t-3 188zM360 1948h281l131 -349h-178zM406 729q0 -104 3 -173t11 -113t21.5 -71.5t33.5 -49.5q33 -35 79 -57.5t105 -22.5t105.5 22.5t77.5 57.5q20 23 33.5 50t21.5 71t12 113t4 173t-4 173t-12 114t-21.5 72.5t-33.5 50.5 q-31 35 -77 56.5t-106 21.5q-59 0 -105 -21.5t-79 -56.5q-20 -23 -33.5 -50.5t-21.5 -72.5t-11 -113.5t-3 -173.5z" />
<glyph unicode="&#xd3;" horiz-adv-x="1318" d="M121 729q0 104 3 188t16.5 155t43 130.5t84.5 114.5q74 74 169 113.5t222 39.5t221.5 -39.5t168.5 -113.5q55 -55 84.5 -114.5t44 -130.5t17.5 -155t3 -188t-3 -188t-17.5 -155t-44 -130t-84.5 -115q-74 -74 -168.5 -113.5t-221.5 -39.5t-222 40t-169 113 q-55 55 -84.5 114.5t-43 130.5t-16.5 155t-3 188zM406 729q0 -104 3 -173t11 -113t21.5 -71.5t33.5 -49.5q33 -35 79 -57.5t105 -22.5t105.5 22.5t77.5 57.5q20 23 33.5 50t21.5 71t12 113t4 173t-4 173t-12 114t-21.5 72.5t-33.5 50.5q-31 35 -77 56.5t-106 21.5 q-59 0 -105 -21.5t-79 -56.5q-20 -23 -33.5 -50.5t-21.5 -72.5t-11 -113.5t-3 -173.5zM547 1599l131 349h280l-233 -349h-178z" />
<glyph unicode="&#xd4;" horiz-adv-x="1318" d="M121 729q0 104 3 188t16.5 155t43 130.5t84.5 114.5q74 74 169 113.5t222 39.5t221.5 -39.5t168.5 -113.5q55 -55 84.5 -114.5t44 -130.5t17.5 -155t3 -188t-3 -188t-17.5 -155t-44 -130t-84.5 -115q-74 -74 -168.5 -113.5t-221.5 -39.5t-222 40t-169 113 q-55 55 -84.5 114.5t-43 130.5t-16.5 155t-3 188zM283 1599l270 347h213l270 -347h-207l-170 187l-170 -187h-206zM406 729q0 -104 3 -173t11 -113t21.5 -71.5t33.5 -49.5q33 -35 79 -57.5t105 -22.5t105.5 22.5t77.5 57.5q20 23 33.5 50t21.5 71t12 113t4 173t-4 173 t-12 114t-21.5 72.5t-33.5 50.5q-31 35 -77 56.5t-106 21.5q-59 0 -105 -21.5t-79 -56.5q-20 -23 -33.5 -50.5t-21.5 -72.5t-11 -113.5t-3 -173.5z" />
<glyph unicode="&#xd5;" horiz-adv-x="1318" d="M121 729q0 104 3 188t16.5 155t43 130.5t84.5 114.5q74 74 169 113.5t222 39.5t221.5 -39.5t168.5 -113.5q55 -55 84.5 -114.5t44 -130.5t17.5 -155t3 -188t-3 -188t-17.5 -155t-44 -130t-84.5 -115q-74 -74 -168.5 -113.5t-221.5 -39.5t-222 40t-169 113 q-55 55 -84.5 114.5t-43 130.5t-16.5 155t-3 188zM289 1759q66 68 118 94.5t111 26.5q45 0 80 -10t78 -37q31 -18 56.5 -27.5t55.5 -9.5q27 0 53.5 9.5t67.5 49.5l119 -116q-68 -68 -120 -94.5t-111 -26.5q-47 0 -82 10t-78 37q-29 16 -56.5 26.5t-58.5 10.5 q-27 0 -52.5 -9.5t-66.5 -50.5zM406 729q0 -104 3 -173t11 -113t21.5 -71.5t33.5 -49.5q33 -35 79 -57.5t105 -22.5t105.5 22.5t77.5 57.5q20 23 33.5 50t21.5 71t12 113t4 173t-4 173t-12 114t-21.5 72.5t-33.5 50.5q-31 35 -77 56.5t-106 21.5q-59 0 -105 -21.5t-79 -56.5 q-20 -23 -33.5 -50.5t-21.5 -72.5t-11 -113.5t-3 -173.5z" />
<glyph unicode="&#xd6;" horiz-adv-x="1318" d="M121 729q0 104 3 188t16.5 155t43 130.5t84.5 114.5q74 74 169 113.5t222 39.5t221.5 -39.5t168.5 -113.5q55 -55 84.5 -114.5t44 -130.5t17.5 -155t3 -188t-3 -188t-17.5 -155t-44 -130t-84.5 -115q-74 -74 -168.5 -113.5t-221.5 -39.5t-222 40t-169 113 q-55 55 -84.5 114.5t-43 130.5t-16.5 155t-3 188zM319 1604v256h228v-256h-228zM406 729q0 -104 3 -173t11 -113t21.5 -71.5t33.5 -49.5q33 -35 79 -57.5t105 -22.5t105.5 22.5t77.5 57.5q20 23 33.5 50t21.5 71t12 113t4 173t-4 173t-12 114t-21.5 72.5t-33.5 50.5 q-31 35 -77 56.5t-106 21.5q-59 0 -105 -21.5t-79 -56.5q-20 -23 -33.5 -50.5t-21.5 -72.5t-11 -113.5t-3 -173.5zM772 1604v256h227v-256h-227z" />
<glyph unicode="&#xd7;" d="M100 297l289 289l-289 288l168 168l287 -288l289 288l168 -168l-289 -288l289 -289l-168 -168l-289 289l-287 -289z" />
<glyph unicode="&#xd8;" horiz-adv-x="1318" d="M121 729q0 104 3 188t16.5 155t43 130.5t84.5 114.5q74 74 169 113.5t222 39.5q66 0 123.5 -11t108.5 -34l59 123h201l-109 -225l7 -6q55 -55 84.5 -114.5t44 -130.5t17.5 -155t3 -188t-3 -188t-17.5 -155t-44 -130t-84.5 -115q-74 -74 -168.5 -113.5t-221.5 -39.5 q-133 0 -231 43l-59 -121h-203l108 225l-6 6q-55 55 -84.5 114.5t-43 130.5t-16.5 155t-3 188zM406 729q0 -119 4 -190.5t14 -116.5l364 760q-57 35 -129 35q-59 0 -105 -21.5t-79 -56.5q-20 -23 -33.5 -50.5t-21.5 -72.5t-11 -114t-3 -173zM528 276q57 -35 131 -34 q59 0 105.5 22.5t77.5 57.5q20 23 33.5 50t21.5 71t12 113t4 173q0 119 -5 190.5t-15 116.5z" />
<glyph unicode="&#xd9;" horiz-adv-x="1368" d="M147 500v958h285v-948q0 -127 67.5 -197.5t184.5 -70.5t185.5 70.5t68.5 197.5v948h283v-958q0 -117 -42 -211t-115 -161t-170 -103.5t-210 -36.5t-210 36.5t-170 103.5t-115 161t-42 211zM385 1948h281l131 -349h-178z" />
<glyph unicode="&#xda;" horiz-adv-x="1368" d="M147 500v958h285v-948q0 -127 67.5 -197.5t184.5 -70.5t185.5 70.5t68.5 197.5v948h283v-958q0 -117 -42 -211t-115 -161t-170 -103.5t-210 -36.5t-210 36.5t-170 103.5t-115 161t-42 211zM572 1599l131 349h280l-233 -349h-178z" />
<glyph unicode="&#xdb;" horiz-adv-x="1368" d="M147 500v958h285v-948q0 -127 67.5 -197.5t184.5 -70.5t185.5 70.5t68.5 197.5v948h283v-958q0 -117 -42 -211t-115 -161t-170 -103.5t-210 -36.5t-210 36.5t-170 103.5t-115 161t-42 211zM308 1599l270 347h213l270 -347h-207l-170 187l-170 -187h-206z" />
<glyph unicode="&#xdc;" horiz-adv-x="1368" d="M147 500v958h285v-948q0 -127 67.5 -197.5t184.5 -70.5t185.5 70.5t68.5 197.5v948h283v-958q0 -117 -42 -211t-115 -161t-170 -103.5t-210 -36.5t-210 36.5t-170 103.5t-115 161t-42 211zM344 1604v256h228v-256h-228zM797 1604v256h227v-256h-227z" />
<glyph unicode="&#xdd;" horiz-adv-x="1171" d="M6 1458h309l273 -588l268 588h309l-438 -860v-598h-283v598zM473 1599l131 349h280l-233 -349h-178z" />
<glyph unicode="&#xde;" horiz-adv-x="1296" d="M170 0v1458h285v-268h280q113 0 202 -36t151.5 -97.5t95.5 -144.5t33 -175t-33 -175t-95.5 -145.5t-151.5 -98t-202 -35.5h-280v-283h-285zM455 537h266q98 0 154.5 55t56.5 145t-56.5 144.5t-154.5 54.5h-266v-399z" />
<glyph unicode="&#xdf;" horiz-adv-x="1175" d="M150 0v1067q0 106 34.5 183t96 126t146.5 71.5t183 22.5q96 0 178 -21.5t141.5 -65.5t92.5 -111.5t33 -159.5q0 -94 -39 -148.5t-86 -82.5q57 -29 92 -77t35 -147v-327q0 -156 -84 -244q-39 -41 -101.5 -63.5t-156.5 -22.5h-107v225h54q33 0 53 7.5t37 23.5q37 31 36 96 v295q0 61 -30 92q-31 33 -92 33h-58v209h58q49 0 85.5 28.5t36.5 94.5q0 57 -38 94q-47 41 -144 41q-109 0 -149.5 -50t-40.5 -142v-1047h-266z" />
<glyph unicode="&#xe0;" horiz-adv-x="1093" d="M74 324q0 63 22.5 119.5t67.5 98.5t114.5 66.5t163.5 24.5h248v53q0 88 -46 128t-152 40q-72 0 -117 -21.5t-88 -70.5l-168 166q78 86 164 118.5t219 32.5q455 0 454 -377v-702h-260v92q-53 -53 -111.5 -77.5t-150.5 -24.5q-178 0 -272 94q-43 45 -65.5 106.5 t-22.5 133.5zM238 1585h280l132 -348h-179zM330 328q0 -55 39 -88t123 -33q49 0 85.5 9t71.5 42q23 20 32 52t9 83v58h-203q-158 0 -157 -123z" />
<glyph unicode="&#xe1;" horiz-adv-x="1093" d="M74 324q0 63 22.5 119.5t67.5 98.5t114.5 66.5t163.5 24.5h248v53q0 88 -46 128t-152 40q-72 0 -117 -21.5t-88 -70.5l-168 166q78 86 164 118.5t219 32.5q455 0 454 -377v-702h-260v92q-53 -53 -111.5 -77.5t-150.5 -24.5q-178 0 -272 94q-43 45 -65.5 106.5 t-22.5 133.5zM330 328q0 -55 39 -88t123 -33q49 0 85.5 9t71.5 42q23 20 32 52t9 83v58h-203q-158 0 -157 -123zM424 1237l131 348h281l-233 -348h-179z" />
<glyph unicode="&#xe2;" horiz-adv-x="1093" d="M74 324q0 63 22.5 119.5t67.5 98.5t114.5 66.5t163.5 24.5h248v53q0 88 -46 128t-152 40q-72 0 -117 -21.5t-88 -70.5l-168 166q78 86 164 118.5t219 32.5q455 0 454 -377v-702h-260v92q-53 -53 -111.5 -77.5t-150.5 -24.5q-178 0 -272 94q-43 45 -65.5 106.5 t-22.5 133.5zM160 1237l271 346h213l270 -346h-207l-170 186l-170 -186h-207zM330 328q0 -55 39 -88t123 -33q49 0 85.5 9t71.5 42q23 20 32 52t9 83v58h-203q-158 0 -157 -123z" />
<glyph unicode="&#xe3;" horiz-adv-x="1093" d="M74 324q0 63 22.5 119.5t67.5 98.5t114.5 66.5t163.5 24.5h248v53q0 88 -46 128t-152 40q-72 0 -117 -21.5t-88 -70.5l-168 166q78 86 164 118.5t219 32.5q455 0 454 -377v-702h-260v92q-53 -53 -111.5 -77.5t-150.5 -24.5q-178 0 -272 94q-43 45 -65.5 106.5 t-22.5 133.5zM156 1397q68 68 119 93.5t111 25.5q47 0 80.5 -9.5t78.5 -36.5q29 -18 55.5 -28t57.5 -10q27 0 52.5 9t66.5 50l118 -117q-68 -68 -120 -93.5t-111 -25.5q-45 0 -80 10.5t-78 34.5q-29 16 -56.5 26.5t-57.5 10.5q-27 0 -52.5 -8t-66.5 -49zM330 328 q0 -55 39 -88t123 -33q49 0 85.5 9t71.5 42q23 20 32 52t9 83v58h-203q-158 0 -157 -123z" />
<glyph unicode="&#xe4;" horiz-adv-x="1093" d="M74 324q0 63 22.5 119.5t67.5 98.5t114.5 66.5t163.5 24.5h248v53q0 88 -46 128t-152 40q-72 0 -117 -21.5t-88 -70.5l-168 166q78 86 164 118.5t219 32.5q455 0 454 -377v-702h-260v92q-53 -53 -111.5 -77.5t-150.5 -24.5q-178 0 -272 94q-43 45 -65.5 106.5 t-22.5 133.5zM199 1241v256h227v-256h-227zM330 328q0 -55 39 -88t123 -33q49 0 85.5 9t71.5 42q23 20 32 52t9 83v58h-203q-158 0 -157 -123zM652 1241v256h227v-256h-227z" />
<glyph unicode="&#xe5;" horiz-adv-x="1093" d="M74 324q0 63 22.5 119.5t67.5 98.5t114.5 66.5t163.5 24.5h248v53q0 88 -46 128t-152 40q-72 0 -117 -21.5t-88 -70.5l-168 166q78 86 164 118.5t219 32.5q455 0 454 -377v-702h-260v92q-53 -53 -111.5 -77.5t-150.5 -24.5q-178 0 -272 94q-43 45 -65.5 106.5 t-22.5 133.5zM266 1464q0 55 21.5 104.5t57.5 85.5t85 57.5t105 21.5q55 0 104 -20.5t85 -57.5t57.5 -86.5t21.5 -104.5t-21.5 -104t-57.5 -85t-85 -57.5t-104 -21.5t-104.5 21.5t-85.5 57.5t-57.5 85t-21.5 104zM330 328q0 -55 39 -88t123 -33q49 0 85.5 9t71.5 42 q23 20 32 52t9 83v58h-203q-158 0 -157 -123zM416 1464q0 -49 34.5 -85t84.5 -36q49 0 83.5 36t34.5 85t-34.5 84t-83.5 35t-84 -35t-35 -84z" />
<glyph unicode="&#xe6;" horiz-adv-x="1716" d="M74 324q0 63 22.5 119.5t67.5 98.5t114.5 66.5t163.5 24.5h248v53q0 88 -46 128t-152 40q-72 0 -117 -21.5t-88 -70.5l-168 166q78 86 164 118.5t219 32.5q242 0 350 -116q53 57 132 86.5t171 29.5q111 0 198 -37.5t146.5 -106.5t90 -164t30.5 -208v-112h-668 q0 -104 59.5 -171t174.5 -67q88 0 139 25.5t102 74.5l162 -157q-41 -41 -82 -73t-89 -53.5t-105.5 -31.5t-128.5 -10q-109 0 -206 33.5t-169 115.5q-41 -43 -79 -71.5t-82 -46t-95 -24.5t-119 -7q-176 0 -272 96q-43 45 -65.5 106.5t-22.5 133.5zM330 328q0 -55 39 -88 t123 -33q49 0 85.5 9t71.5 42q23 20 32 52t9 83v58h-203q-158 0 -157 -123zM952 633h406q-2 35 -6 60.5t-19 54.5q-20 47 -65 78.5t-113 31.5t-113 -31.5t-65 -78.5q-14 -29 -18.5 -54.5t-6.5 -60.5z" />
<glyph unicode="&#xe7;" horiz-adv-x="983" d="M96 535q0 162 45 267t114 166.5t154 86t164 24.5q111 0 196 -34.5t157 -108.5l-181 -180q-41 45 -79.5 64.5t-92.5 19.5q-94 0 -151 -70q-31 -39 -45.5 -94t-14.5 -141q0 -164 60 -238q57 -70 151 -70q53 0 92.5 19.5t79.5 64.5l181 -178q-72 -74 -157 -109.5t-196 -35.5 q-80 0 -164.5 24.5t-153.5 87t-114 168t-45 267.5zM328 -422l141 299h197l-91 -299h-247z" />
<glyph unicode="&#xe8;" horiz-adv-x="1122" d="M96 535q0 131 34 232t95.5 171t146.5 105.5t189 35.5q111 0 198 -37.5t146.5 -106.5t90 -164t30.5 -208v-112h-668q0 -104 59.5 -171t174.5 -67q88 0 139 25.5t103 74.5l161 -157q-41 -41 -82 -73t-89 -53.5t-105 -31.5t-129 -10q-94 0 -183.5 24.5t-158 87t-110.5 168 t-42 267.5zM268 1585h280l132 -348h-179zM358 633h406q-2 35 -6 60.5t-19 54.5q-23 47 -66.5 78.5t-111.5 31.5t-111.5 -31.5t-66.5 -78.5q-14 -29 -18.5 -54.5t-6.5 -60.5z" />
<glyph unicode="&#xe9;" horiz-adv-x="1122" d="M96 535q0 131 34 232t95.5 171t146.5 105.5t189 35.5q111 0 198 -37.5t146.5 -106.5t90 -164t30.5 -208v-112h-668q0 -104 59.5 -171t174.5 -67q88 0 139 25.5t103 74.5l161 -157q-41 -41 -82 -73t-89 -53.5t-105 -31.5t-129 -10q-94 0 -183.5 24.5t-158 87t-110.5 168 t-42 267.5zM358 633h406q-2 35 -6 60.5t-19 54.5q-23 47 -66.5 78.5t-111.5 31.5t-111.5 -31.5t-66.5 -78.5q-14 -29 -18.5 -54.5t-6.5 -60.5zM454 1237l131 348h281l-233 -348h-179z" />
<glyph unicode="&#xea;" horiz-adv-x="1122" d="M96 535q0 131 34 232t95.5 171t146.5 105.5t189 35.5q111 0 198 -37.5t146.5 -106.5t90 -164t30.5 -208v-112h-668q0 -104 59.5 -171t174.5 -67q88 0 139 25.5t103 74.5l161 -157q-41 -41 -82 -73t-89 -53.5t-105 -31.5t-129 -10q-94 0 -183.5 24.5t-158 87t-110.5 168 t-42 267.5zM190 1237l271 346h213l270 -346h-207l-170 186l-170 -186h-207zM358 633h406q-2 35 -6 60.5t-19 54.5q-23 47 -66.5 78.5t-111.5 31.5t-111.5 -31.5t-66.5 -78.5q-14 -29 -18.5 -54.5t-6.5 -60.5z" />
<glyph unicode="&#xeb;" horiz-adv-x="1122" d="M96 535q0 131 34 232t95.5 171t146.5 105.5t189 35.5q111 0 198 -37.5t146.5 -106.5t90 -164t30.5 -208v-112h-668q0 -104 59.5 -171t174.5 -67q88 0 139 25.5t103 74.5l161 -157q-41 -41 -82 -73t-89 -53.5t-105 -31.5t-129 -10q-94 0 -183.5 24.5t-158 87t-110.5 168 t-42 267.5zM227 1241v256h227v-256h-227zM358 633h406q-2 35 -6 60.5t-19 54.5q-23 47 -66.5 78.5t-111.5 31.5t-111.5 -31.5t-66.5 -78.5q-14 -29 -18.5 -54.5t-6.5 -60.5zM680 1241v256h227v-256h-227z" />
<glyph unicode="&#xec;" horiz-adv-x="563" d="M4 1585h280l132 -348h-179zM150 0v1036h266v-1036h-266z" />
<glyph unicode="&#xed;" horiz-adv-x="563" d="M149 1237l131 348h281l-233 -348h-179zM150 0v1036h266v-1036h-266z" />
<glyph unicode="&#xee;" horiz-adv-x="563" d="M-94 1237l271 346h213l270 -346h-207l-170 186l-170 -186h-207zM150 0v1036h266v-1036h-266z" />
<glyph unicode="&#xef;" horiz-adv-x="563" d="M-55 1241v256h227v-256h-227zM150 0v1036h266v-1036h-266zM398 1241v256h227v-256h-227z" />
<glyph unicode="&#xf0;" d="M115 520q0 141 23.5 235.5t94.5 168.5q66 70 183 100q59 16 119 16h18q8 0 18 -2l-69 127h-234v187h140l-64 123h285l63 -123h189v-187h-95l82 -157q37 -74 61.5 -130.5t39 -110.5t20.5 -112.5t6 -134.5q0 -141 -23.5 -236.5t-94.5 -168.5q-49 -51 -127 -89t-195 -38 t-194.5 37.5t-127.5 89.5q-72 74 -95 169t-23 236zM381 520q0 -78 9 -142.5t48 -105.5q45 -45 117 -45q74 0 119 45q39 41 47 105.5t8 142.5t-8 141.5t-47 104.5q-45 45 -119 45q-72 0 -117 -45q-39 -41 -48 -104.5t-9 -141.5z" />
<glyph unicode="&#xf1;" horiz-adv-x="1173" d="M150 0v1067h260v-98q53 55 122.5 82.5t143.5 27.5q80 0 143.5 -24.5t108.5 -69.5q66 -66 87 -140.5t21 -162.5v-682h-266v645q0 55 -15.5 92t-41 59.5t-57 33t-62.5 10.5t-62.5 -10.5t-57 -33t-42 -59.5t-16.5 -92v-645h-266zM213 1397q68 68 119 93.5t111 25.5 q47 0 80.5 -9.5t78.5 -36.5q29 -18 55.5 -28t57.5 -10q27 0 52.5 9t66.5 50l118 -117q-68 -68 -120 -93.5t-111 -25.5q-45 0 -80 10.5t-78 34.5q-29 16 -56.5 26.5t-57.5 10.5q-27 0 -52.5 -8t-66.5 -49z" />
<glyph unicode="&#xf2;" d="M104 535q0 145 25 240t96 173q51 53 131 92t199 39t200 -39t132 -92q72 -78 96.5 -173t24.5 -240t-23.5 -242.5t-97.5 -173.5q-51 -53 -132 -92t-200 -39t-199 39t-131 92q-72 78 -96.5 174t-24.5 242zM250 1585h280l132 -348h-179zM371 535q0 -84 10 -152t51 -109 q47 -47 123 -47q78 0 125 47q41 41 51 109t10 152q0 82 -10 149.5t-51 108.5q-47 47 -125 47q-76 0 -123 -47q-41 -41 -51 -109t-10 -149z" />
<glyph unicode="&#xf3;" d="M104 535q0 145 25 240t96 173q51 53 131 92t199 39t200 -39t132 -92q72 -78 96.5 -173t24.5 -240t-23.5 -242.5t-97.5 -173.5q-51 -53 -132 -92t-200 -39t-199 39t-131 92q-72 78 -96.5 174t-24.5 242zM371 535q0 -84 10 -152t51 -109q47 -47 123 -47q78 0 125 47 q41 41 51 109t10 152q0 82 -10 149.5t-51 108.5q-47 47 -125 47q-76 0 -123 -47q-41 -41 -51 -109t-10 -149zM444 1237l131 348h281l-233 -348h-179z" />
<glyph unicode="&#xf4;" d="M104 535q0 145 25 240t96 173q51 53 131 92t199 39t200 -39t132 -92q72 -78 96.5 -173t24.5 -240t-23.5 -242.5t-97.5 -173.5q-51 -53 -132 -92t-200 -39t-199 39t-131 92q-72 78 -96.5 174t-24.5 242zM180 1237l271 346h213l270 -346h-207l-170 186l-170 -186h-207z M371 535q0 -84 10 -152t51 -109q47 -47 123 -47q78 0 125 47q41 41 51 109t10 152q0 82 -10 149.5t-51 108.5q-47 47 -125 47q-76 0 -123 -47q-41 -41 -51 -109t-10 -149z" />
<glyph unicode="&#xf5;" d="M104 535q0 145 25 240t96 173q51 53 131 92t199 39t200 -39t132 -92q72 -78 96.5 -173t24.5 -240t-23.5 -242.5t-97.5 -173.5q-51 -53 -132 -92t-200 -39t-199 39t-131 92q-72 78 -96.5 174t-24.5 242zM176 1397q68 68 119 93.5t111 25.5q47 0 80.5 -9.5t78.5 -36.5 q29 -18 55.5 -28t57.5 -10q27 0 52.5 9t66.5 50l118 -117q-68 -68 -120 -93.5t-111 -25.5q-45 0 -80 10.5t-78 34.5q-29 16 -56.5 26.5t-57.5 10.5q-27 0 -52.5 -8t-66.5 -49zM371 535q0 -84 10 -152t51 -109q47 -47 123 -47q78 0 125 47q41 41 51 109t10 152 q0 82 -10 149.5t-51 108.5q-47 47 -125 47q-76 0 -123 -47q-41 -41 -51 -109t-10 -149z" />
<glyph unicode="&#xf6;" d="M104 535q0 145 25 240t96 173q51 53 131 92t199 39t200 -39t132 -92q72 -78 96.5 -173t24.5 -240t-23.5 -242.5t-97.5 -173.5q-51 -53 -132 -92t-200 -39t-199 39t-131 92q-72 78 -96.5 174t-24.5 242zM217 1241v256h227v-256h-227zM371 535q0 -84 10 -152t51 -109 q47 -47 123 -47q78 0 125 47q41 41 51 109t10 152q0 82 -10 149.5t-51 108.5q-47 47 -125 47q-76 0 -123 -47q-41 -41 -51 -109t-10 -149zM670 1241v256h227v-256h-227z" />
<glyph unicode="&#xf7;" d="M94 461v248h924v-248h-924zM424 37v266h266v-266h-266zM424 866v267h266v-267h-266z" />
<glyph unicode="&#xf8;" d="M104 535q0 145 25 241t96 172q49 53 130 92t200 39q125 0 215 -45l72 123h164l-121 -205q76 -84 99.5 -179t23.5 -238q0 -145 -25 -242.5t-96 -173.5q-49 -53 -131 -92t-201 -39q-66 0 -118 12t-95 35l-74 -125h-162l121 207q-76 78 -99.5 175t-23.5 243zM371 535 q0 -49 2 -94.5t12 -82.5l270 455q-43 27 -100 27q-76 0 -123 -47q-41 -41 -51 -108t-10 -150zM457 254q43 -27 98 -27q78 0 125 47q41 41 51 109t10 152q0 49 -3 93t-13 81z" />
<glyph unicode="&#xf9;" horiz-adv-x="1173" d="M137 385v682h266v-645q0 -55 15.5 -92t41 -59.5t57.5 -33t63 -10.5t62.5 10.5t57 33t42 59.5t16.5 92v645h266v-1067h-260v98q-53 -55 -123 -82.5t-143 -27.5q-80 0 -143.5 24.5t-108.5 69.5q-66 66 -87.5 140.5t-21.5 162.5zM281 1585h280l132 -348h-179z" />
<glyph unicode="&#xfa;" horiz-adv-x="1173" d="M137 385v682h266v-645q0 -55 15.5 -92t41 -59.5t57.5 -33t63 -10.5t62.5 10.5t57 33t42 59.5t16.5 92v645h266v-1067h-260v98q-53 -55 -123 -82.5t-143 -27.5q-80 0 -143.5 24.5t-108.5 69.5q-66 66 -87.5 140.5t-21.5 162.5zM467 1237l131 348h281l-233 -348h-179z" />
<glyph unicode="&#xfb;" horiz-adv-x="1173" d="M137 385v682h266v-645q0 -55 15.5 -92t41 -59.5t57.5 -33t63 -10.5t62.5 10.5t57 33t42 59.5t16.5 92v645h266v-1067h-260v98q-53 -55 -123 -82.5t-143 -27.5q-80 0 -143.5 24.5t-108.5 69.5q-66 66 -87.5 140.5t-21.5 162.5zM203 1237l271 346h213l270 -346h-207 l-170 186l-170 -186h-207z" />
<glyph unicode="&#xfc;" horiz-adv-x="1173" d="M137 385v682h266v-645q0 -55 15.5 -92t41 -59.5t57.5 -33t63 -10.5t62.5 10.5t57 33t42 59.5t16.5 92v645h266v-1067h-260v98q-53 -55 -123 -82.5t-143 -27.5q-80 0 -143.5 24.5t-108.5 69.5q-66 66 -87.5 140.5t-21.5 162.5zM242 1241v256h227v-256h-227zM695 1241v256 h227v-256h-227z" />
<glyph unicode="&#xfd;" horiz-adv-x="1011" d="M8 1067h281l221 -659l213 659h281l-457 -1239q-35 -92 -80 -137q-47 -47 -105.5 -64.5t-123.5 -17.5h-105v239h62q57 0 84.5 18.5t48.5 78.5l45 131zM389 1237l131 348h281l-233 -348h-179z" />
<glyph unicode="&#xfe;" horiz-adv-x="1150" d="M150 -391v1849h266v-485q51 59 114.5 82.5t143.5 23.5t146.5 -24.5t111.5 -71.5q39 -39 60.5 -89t32.5 -107.5t14 -120.5t3 -131t-3 -132.5t-14 -122t-32.5 -107.5t-60.5 -89q-45 -47 -111.5 -71.5t-146.5 -24.5t-143.5 23.5t-114.5 82.5v-485h-266zM416 535 q0 -66 6 -121.5t24.5 -97.5t54.5 -65.5t95 -23.5t95 23.5t54.5 65.5t24.5 97.5t6 121.5q0 63 -6 119.5t-24.5 97.5t-54.5 64.5t-95 23.5t-95 -23.5t-54.5 -64.5t-24.5 -97.5t-6 -119.5z" />
<glyph unicode="&#xff;" horiz-adv-x="1011" d="M8 1067h281l221 -659l213 659h281l-457 -1239q-35 -92 -80 -137q-47 -47 -105.5 -64.5t-123.5 -17.5h-105v239h62q57 0 84.5 18.5t48.5 78.5l45 131zM172 1241v256h227v-256h-227zM625 1241v256h227v-256h-227z" />
<glyph unicode="&#x100;" horiz-adv-x="1306" d="M10 0l531 1458h223l532 -1458h-297l-86 258h-518l-88 -258h-297zM325 1624v180h650v-180h-650zM475 498h363l-179 530z" />
<glyph unicode="&#x101;" horiz-adv-x="1093" d="M74 324q0 63 22.5 119.5t67.5 98.5t114.5 66.5t163.5 24.5h248v53q0 88 -46 128t-152 40q-72 0 -117 -21.5t-88 -70.5l-168 166q78 86 164 118.5t219 32.5q455 0 454 -377v-702h-260v92q-53 -53 -111.5 -77.5t-150.5 -24.5q-178 0 -272 94q-43 45 -65.5 106.5 t-22.5 133.5zM219 1276v180h650v-180h-650zM330 328q0 -55 39 -88t123 -33q49 0 85.5 9t71.5 42q23 20 32 52t9 83v58h-203q-158 0 -157 -123z" />
<glyph unicode="&#x102;" horiz-adv-x="1306" d="M10 0l531 1458h223l532 -1458h-297l-86 258h-518l-88 -258h-297zM315 1905h178q8 -66 53.5 -94.5t104.5 -28.5t104.5 28.5t53.5 94.5h178q-4 -84 -32 -142.5t-74 -95.5t-105 -54.5t-125 -17.5t-125 17.5t-105 54.5t-75 95.5t-31 142.5zM475 498h363l-179 530z" />
<glyph unicode="&#x103;" horiz-adv-x="1093" d="M74 324q0 63 22.5 119.5t67.5 98.5t114.5 66.5t163.5 24.5h248v53q0 88 -46 128t-152 40q-72 0 -117 -21.5t-88 -70.5l-168 166q78 86 164 118.5t219 32.5q455 0 454 -377v-702h-260v92q-53 -53 -111.5 -77.5t-150.5 -24.5q-178 0 -272 94q-43 45 -65.5 106.5 t-22.5 133.5zM186 1532h178q8 -66 53.5 -94.5t104.5 -28.5t104.5 28.5t53.5 94.5h178q-4 -84 -32 -142.5t-74 -95.5t-105 -54t-125 -17t-125 17t-105 54t-75 95.5t-31 142.5zM330 328q0 -55 39 -88t123 -33q49 0 85.5 9t71.5 42q23 20 32 52t9 83v58h-203q-158 0 -157 -123z " />
<glyph unicode="&#x104;" horiz-adv-x="1306" d="M10 0l531 1458h223l532 -1458h-297l-86 258h-518l-88 -258h-297zM475 498h363l-179 530zM858 -422l141 299h197l-91 -299h-247z" />
<glyph unicode="&#x105;" horiz-adv-x="1093" d="M74 324q0 63 22.5 119.5t67.5 98.5t114.5 66.5t163.5 24.5h248v53q0 88 -46 128t-152 40q-72 0 -117 -21.5t-88 -70.5l-168 166q78 86 164 118.5t219 32.5q455 0 454 -377v-702h-260v92q-53 -53 -111.5 -77.5t-150.5 -24.5q-178 0 -272 94q-43 45 -65.5 106.5 t-22.5 133.5zM330 328q0 -55 39 -88t123 -33q49 0 85.5 9t71.5 42q23 20 32 52t9 83v58h-203q-158 0 -157 -123zM555 -422l141 299h197l-91 -299h-247z" />
<glyph unicode="&#x106;" horiz-adv-x="1269" d="M121 729q0 104 3 188t16.5 155t43 130.5t84.5 114.5q76 74 170 113.5t221 39.5q205 0 349.5 -115.5t185.5 -344.5h-291q-23 90 -80 148.5t-164 58.5q-59 0 -105 -20.5t-77 -55.5q-20 -23 -33.5 -51.5t-21.5 -73.5t-12 -113.5t-4 -173.5q0 -104 4 -173t12 -114t21.5 -73.5 t33.5 -51.5q31 -35 77 -55t105 -20q106 0 165 58t81 149h289q-41 -229 -185.5 -345t-349.5 -116q-127 0 -221 40t-170 113q-55 55 -84.5 114.5t-43 130.5t-16.5 155t-3 188zM524 1599l131 349h280l-233 -349h-178z" />
<glyph unicode="&#x107;" horiz-adv-x="983" d="M96 535q0 162 45 267t114 166.5t154 86t164 24.5q111 0 196 -34.5t157 -108.5l-181 -180q-41 45 -79.5 64.5t-92.5 19.5q-94 0 -151 -70q-31 -39 -45.5 -94t-14.5 -141q0 -164 60 -238q57 -70 151 -70q53 0 92.5 19.5t79.5 64.5l181 -178q-72 -74 -157 -109.5t-196 -35.5 q-80 0 -164.5 24.5t-153.5 87t-114 168t-45 267.5zM432 1237l131 348h281l-233 -348h-179z" />
<glyph unicode="&#x108;" horiz-adv-x="1269" d="M121 729q0 104 3 188t16.5 155t43 130.5t84.5 114.5q76 74 170 113.5t221 39.5q205 0 349.5 -115.5t185.5 -344.5h-291q-23 90 -80 148.5t-164 58.5q-59 0 -105 -20.5t-77 -55.5q-20 -23 -33.5 -51.5t-21.5 -73.5t-12 -113.5t-4 -173.5q0 -104 4 -173t12 -114t21.5 -73.5 t33.5 -51.5q31 -35 77 -55t105 -20q106 0 165 58t81 149h289q-41 -229 -185.5 -345t-349.5 -116q-127 0 -221 40t-170 113q-55 55 -84.5 114.5t-43 130.5t-16.5 155t-3 188zM283 1599l270 347h213l270 -347h-207l-170 187l-170 -187h-206z" />
<glyph unicode="&#x109;" horiz-adv-x="983" d="M96 535q0 162 45 267t114 166.5t154 86t164 24.5q111 0 196 -34.5t157 -108.5l-181 -180q-41 45 -79.5 64.5t-92.5 19.5q-94 0 -151 -70q-31 -39 -45.5 -94t-14.5 -141q0 -164 60 -238q57 -70 151 -70q53 0 92.5 19.5t79.5 64.5l181 -178q-72 -74 -157 -109.5t-196 -35.5 q-80 0 -164.5 24.5t-153.5 87t-114 168t-45 267.5zM196 1237l271 346h213l270 -346h-207l-170 186l-170 -186h-207z" />
<glyph unicode="&#x10a;" horiz-adv-x="1269" d="M121 729q0 104 3 188t16.5 155t43 130.5t84.5 114.5q76 74 170 113.5t221 39.5q205 0 349.5 -115.5t185.5 -344.5h-291q-23 90 -80 148.5t-164 58.5q-59 0 -105 -20.5t-77 -55.5q-20 -23 -33.5 -51.5t-21.5 -73.5t-12 -113.5t-4 -173.5q0 -104 4 -173t12 -114t21.5 -73.5 t33.5 -51.5q31 -35 77 -55t105 -20q106 0 165 58t81 149h289q-41 -229 -185.5 -345t-349.5 -116q-127 0 -221 40t-170 113q-55 55 -84.5 114.5t-43 130.5t-16.5 155t-3 188zM534 1616v237h236v-237h-236z" />
<glyph unicode="&#x10b;" horiz-adv-x="983" d="M96 535q0 162 45 267t114 166.5t154 86t164 24.5q111 0 196 -34.5t157 -108.5l-181 -180q-41 45 -79.5 64.5t-92.5 19.5q-94 0 -151 -70q-31 -39 -45.5 -94t-14.5 -141q0 -164 60 -238q57 -70 151 -70q53 0 92.5 19.5t79.5 64.5l181 -178q-72 -74 -157 -109.5t-196 -35.5 q-80 0 -164.5 24.5t-153.5 87t-114 168t-45 267.5zM454 1253v236h236v-236h-236z" />
<glyph unicode="&#x10c;" horiz-adv-x="1269" d="M121 729q0 104 3 188t16.5 155t43 130.5t84.5 114.5q76 74 170 113.5t221 39.5q205 0 349.5 -115.5t185.5 -344.5h-291q-23 90 -80 148.5t-164 58.5q-59 0 -105 -20.5t-77 -55.5q-20 -23 -33.5 -51.5t-21.5 -73.5t-12 -113.5t-4 -173.5q0 -104 4 -173t12 -114t21.5 -73.5 t33.5 -51.5q31 -35 77 -55t105 -20q106 0 165 58t81 149h289q-41 -229 -185.5 -345t-349.5 -116q-127 0 -221 40t-170 113q-55 55 -84.5 114.5t-43 130.5t-16.5 155t-3 188zM282 1946h207l170 -185l170 185h207l-270 -347h-213z" />
<glyph unicode="&#x10d;" horiz-adv-x="983" d="M96 535q0 162 45 267t114 166.5t154 86t164 24.5q111 0 196 -34.5t157 -108.5l-181 -180q-41 45 -79.5 64.5t-92.5 19.5q-94 0 -151 -70q-31 -39 -45.5 -94t-14.5 -141q0 -164 60 -238q57 -70 151 -70q53 0 92.5 19.5t79.5 64.5l181 -178q-72 -74 -157 -109.5t-196 -35.5 q-80 0 -164.5 24.5t-153.5 87t-114 168t-45 267.5zM197 1583h207l170 -184l170 184h206l-270 -346h-213z" />
<glyph unicode="&#x10e;" horiz-adv-x="1349" d="M170 0v1458h526q150 0 256.5 -51t184.5 -162q33 -47 52 -99t27.5 -114.5t10.5 -137.5t2 -165t-2 -165t-10.5 -137t-28 -114.5t-51.5 -99.5q-78 -111 -184.5 -162t-256.5 -51h-526zM296 1946h207l170 -185l170 185h207l-270 -347h-213zM455 254h217q141 0 213 90 q20 25 31.5 55.5t17.5 74.5t8 106.5t2 148.5t-2 148.5t-8 106.5t-17.5 75t-31.5 55q-72 90 -213 90h-217v-950z" />
<glyph unicode="&#x10f;" horiz-adv-x="1148" d="M104 535q0 68 3.5 131t14.5 120.5t32.5 107.5t60.5 89q45 47 111.5 71.5t146.5 24.5q82 0 144.5 -23.5t115.5 -82.5v485h266v-1458h-260v100q-55 -61 -116.5 -86.5t-147.5 -25.5q-80 0 -147.5 24.5t-112.5 71.5q-39 39 -60.5 89t-32.5 107.5t-14.5 122t-3.5 132.5z M371 535q0 -66 6 -121.5t24.5 -97.5t54.5 -65.5t95 -23.5t95 23.5t55.5 65.5t25.5 97.5t6 121.5q0 63 -6 119.5t-25.5 97.5t-55.5 64.5t-95 23.5t-95 -23.5t-54.5 -64.5t-24.5 -97.5t-6 -119.5zM1120 1178l74 340h236l-123 -340h-187z" />
<glyph unicode="&#x110;" horiz-adv-x="1396" d="M76 627v217h141v614h526q150 0 256.5 -51t184.5 -162q33 -47 52 -99t27.5 -114.5t10.5 -137.5t2 -165t-2 -165t-10.5 -137t-27.5 -114.5t-52 -99.5q-78 -111 -184.5 -162t-256.5 -51h-526v627h-141zM502 254h217q141 0 213 90q20 25 31.5 55.5t17.5 74.5t8 106.5t2 148.5 t-2 148.5t-8 106.5t-17.5 75t-31.5 55q-72 90 -213 90h-217v-360h237v-217h-237v-373z" />
<glyph unicode="&#x111;" horiz-adv-x="1189" d="M104 535q0 68 3.5 131t14.5 120.5t32.5 107.5t60.5 89q45 47 111.5 71.5t146.5 24.5q82 0 144.5 -23.5t115.5 -82.5v188h-182v168h182v129h266v-129h123v-168h-123v-1161h-260v100q-55 -61 -116.5 -86.5t-147.5 -25.5q-80 0 -147.5 24.5t-112.5 71.5q-39 39 -60.5 89 t-32.5 107.5t-14.5 122t-3.5 132.5zM371 535q0 -66 6 -121.5t24.5 -97.5t54.5 -65.5t95 -23.5t95 23.5t55.5 65.5t25.5 97.5t6 121.5q0 63 -6 119.5t-25.5 97.5t-55.5 64.5t-95 23.5t-95 -23.5t-54.5 -64.5t-24.5 -97.5t-6 -119.5z" />
<glyph unicode="&#x112;" horiz-adv-x="1239" d="M170 0v1458h960v-254h-675v-342h575v-254h-575v-354h675v-254h-960zM303 1624v180h650v-180h-650z" />
<glyph unicode="&#x113;" horiz-adv-x="1122" d="M96 535q0 131 34 232t95.5 171t146.5 105.5t189 35.5q111 0 198 -37.5t146.5 -106.5t90 -164t30.5 -208v-112h-668q0 -104 59.5 -171t174.5 -67q88 0 139 25.5t103 74.5l161 -157q-41 -41 -82 -73t-89 -53.5t-105 -31.5t-129 -10q-94 0 -183.5 24.5t-158 87t-110.5 168 t-42 267.5zM233 1276v180h650v-180h-650zM358 633h406q-2 35 -6 60.5t-19 54.5q-23 47 -66.5 78.5t-111.5 31.5t-111.5 -31.5t-66.5 -78.5q-14 -29 -18.5 -54.5t-6.5 -60.5z" />
<glyph unicode="&#x114;" horiz-adv-x="1239" d="M170 0v1458h960v-254h-675v-342h575v-254h-575v-354h675v-254h-960zM299 1905h178q8 -66 53.5 -94.5t104.5 -28.5t104.5 28.5t53.5 94.5h178q-4 -84 -32 -142.5t-74 -95.5t-105 -54.5t-125 -17.5t-125 17.5t-105 54.5t-75 95.5t-31 142.5z" />
<glyph unicode="&#x115;" horiz-adv-x="1122" d="M96 535q0 131 34 232t95.5 171t146.5 105.5t189 35.5q111 0 198 -37.5t146.5 -106.5t90 -164t30.5 -208v-112h-668q0 -104 59.5 -171t174.5 -67q88 0 139 25.5t103 74.5l161 -157q-41 -41 -82 -73t-89 -53.5t-105 -31.5t-129 -10q-94 0 -183.5 24.5t-158 87t-110.5 168 t-42 267.5zM231 1532h178q8 -66 53.5 -94.5t104.5 -28.5t104.5 28.5t53.5 94.5h178q-4 -84 -32 -142.5t-74 -95.5t-105 -54t-125 -17t-125 17t-105 54t-75 95.5t-31 142.5zM358 633h406q-2 35 -6 60.5t-19 54.5q-23 47 -66.5 78.5t-111.5 31.5t-111.5 -31.5t-66.5 -78.5 q-14 -29 -18.5 -54.5t-6.5 -60.5z" />
<glyph unicode="&#x116;" horiz-adv-x="1239" d="M170 0v1458h960v-254h-675v-342h575v-254h-575v-354h675v-254h-960zM510 1616v237h236v-237h-236z" />
<glyph unicode="&#x117;" horiz-adv-x="1122" d="M96 535q0 131 34 232t95.5 171t146.5 105.5t189 35.5q111 0 198 -37.5t146.5 -106.5t90 -164t30.5 -208v-112h-668q0 -104 59.5 -171t174.5 -67q88 0 139 25.5t103 74.5l161 -157q-41 -41 -82 -73t-89 -53.5t-105 -31.5t-129 -10q-94 0 -183.5 24.5t-158 87t-110.5 168 t-42 267.5zM358 633h406q-2 35 -6 60.5t-19 54.5q-23 47 -66.5 78.5t-111.5 31.5t-111.5 -31.5t-66.5 -78.5q-14 -29 -18.5 -54.5t-6.5 -60.5zM440 1253v236h236v-236h-236z" />
<glyph unicode="&#x118;" horiz-adv-x="1239" d="M170 0v1458h960v-254h-675v-342h575v-254h-575v-354h675v-254h-960zM793 -422l141 299h197l-91 -299h-247z" />
<glyph unicode="&#x119;" horiz-adv-x="1122" d="M96 535q0 131 34 232t95.5 171t146.5 105.5t189 35.5q111 0 198 -37.5t146.5 -106.5t90 -164t30.5 -208v-112h-668q0 -104 59.5 -171t174.5 -67q88 0 139 25.5t103 74.5l161 -157q-41 -41 -82 -73t-89 -53.5t-105 -31.5t-129 -10q-94 0 -183.5 24.5t-158 87t-110.5 168 t-42 267.5zM358 633h406q-2 35 -6 60.5t-19 54.5q-23 47 -66.5 78.5t-111.5 31.5t-111.5 -31.5t-66.5 -78.5q-14 -29 -18.5 -54.5t-6.5 -60.5zM496 -422l141 299h197l-91 -299h-247z" />
<glyph unicode="&#x11a;" horiz-adv-x="1239" d="M170 0v1458h960v-254h-675v-342h575v-254h-575v-354h675v-254h-960zM249 1946h207l170 -185l170 185h207l-270 -347h-213z" />
<glyph unicode="&#x11b;" horiz-adv-x="1122" d="M96 535q0 131 34 232t95.5 171t146.5 105.5t189 35.5q111 0 198 -37.5t146.5 -106.5t90 -164t30.5 -208v-112h-668q0 -104 59.5 -171t174.5 -67q88 0 139 25.5t103 74.5l161 -157q-41 -41 -82 -73t-89 -53.5t-105 -31.5t-129 -10q-94 0 -183.5 24.5t-158 87t-110.5 168 t-42 267.5zM185 1583h207l170 -184l170 184h206l-270 -346h-213zM358 633h406q-2 35 -6 60.5t-19 54.5q-23 47 -66.5 78.5t-111.5 31.5t-111.5 -31.5t-66.5 -78.5q-14 -29 -18.5 -54.5t-6.5 -60.5z" />
<glyph unicode="&#x11c;" horiz-adv-x="1329" d="M121 729q0 104 3 188t16.5 155t43 130.5t84.5 114.5q76 74 170 113.5t219 39.5q127 0 223.5 -38.5t164 -103t107.5 -148.5t54 -176h-286q-49 213 -263 213q-59 0 -104 -21.5t-78 -56.5q-20 -23 -33.5 -50.5t-21.5 -72.5t-11 -113.5t-3 -173.5q0 -104 3 -173t11 -114 t21.5 -73.5t33.5 -51.5q33 -35 78 -55t104 -20q66 0 117 21.5t86 60.5q35 41 50.5 89t15.5 105v53h-269v240h551v-213q0 -158 -29.5 -260t-109.5 -184q-92 -96 -193.5 -131t-218.5 -35q-125 0 -219 40t-170 113q-55 55 -84.5 114.5t-43 130.5t-16.5 155t-3 188zM283 1599 l270 347h213l270 -347h-207l-170 187l-170 -187h-206z" />
<glyph unicode="&#x11d;" horiz-adv-x="1136" d="M104 563q0 70 3.5 130.5t13.5 112.5t32.5 97t59.5 82q45 45 111.5 69.5t144.5 24.5q86 0 145.5 -25.5t114.5 -86.5v100h258v-1028q0 -96 -32.5 -177t-94 -140.5t-148.5 -92t-194 -32.5q-123 0 -213 29.5t-174 109.5l166 168q45 -43 93 -62.5t116 -19.5q59 0 100 19.5 t66.5 50t37 70.5t11.5 81v109q-53 -59 -114.5 -83t-139.5 -24t-143.5 24.5t-110.5 69.5q-37 37 -59.5 82t-32.5 97.5t-13.5 114t-3.5 130.5zM170 1237l271 346h213l270 -346h-207l-170 186l-170 -186h-207zM371 563q0 -53 5 -103t22.5 -89t52 -62.5t94.5 -23.5q59 0 94 23.5 t53.5 62.5t23.5 89t5 103t-5 103.5t-23.5 88.5t-53.5 61.5t-94 23.5t-94 -23.5t-52.5 -61.5t-22.5 -88.5t-5 -103.5z" />
<glyph unicode="&#x11e;" horiz-adv-x="1329" d="M121 729q0 104 3 188t16.5 155t43 130.5t84.5 114.5q76 74 170 113.5t219 39.5q127 0 223.5 -38.5t164 -103t107.5 -148.5t54 -176h-286q-49 213 -263 213q-59 0 -104 -21.5t-78 -56.5q-20 -23 -33.5 -50.5t-21.5 -72.5t-11 -113.5t-3 -173.5q0 -104 3 -173t11 -114 t21.5 -73.5t33.5 -51.5q33 -35 78 -55t104 -20q66 0 117 21.5t86 60.5q35 41 50.5 89t15.5 105v53h-269v240h551v-213q0 -158 -29.5 -260t-109.5 -184q-92 -96 -193.5 -131t-218.5 -35q-125 0 -219 40t-170 113q-55 55 -84.5 114.5t-43 130.5t-16.5 155t-3 188zM321 1905 h178q8 -66 53.5 -94.5t104.5 -28.5t104.5 28.5t53.5 94.5h178q-4 -84 -32 -142.5t-74 -95.5t-105 -54.5t-125 -17.5t-125 17.5t-105 54.5t-75 95.5t-31 142.5z" />
<glyph unicode="&#x11f;" horiz-adv-x="1136" d="M104 563q0 70 3.5 130.5t13.5 112.5t32.5 97t59.5 82q45 45 111.5 69.5t144.5 24.5q86 0 145.5 -25.5t114.5 -86.5v100h258v-1028q0 -96 -32.5 -177t-94 -140.5t-148.5 -92t-194 -32.5q-123 0 -213 29.5t-174 109.5l166 168q45 -43 93 -62.5t116 -19.5q59 0 100 19.5 t66.5 50t37 70.5t11.5 81v109q-53 -59 -114.5 -83t-139.5 -24t-143.5 24.5t-110.5 69.5q-37 37 -59.5 82t-32.5 97.5t-13.5 114t-3.5 130.5zM209 1532h178q8 -66 53.5 -94.5t104.5 -28.5t104.5 28.5t53.5 94.5h178q-4 -84 -32 -142.5t-74 -95.5t-105 -54t-125 -17t-125 17 t-105 54t-75 95.5t-31 142.5zM371 563q0 -53 5 -103t22.5 -89t52 -62.5t94.5 -23.5q59 0 94 23.5t53.5 62.5t23.5 89t5 103t-5 103.5t-23.5 88.5t-53.5 61.5t-94 23.5t-94 -23.5t-52.5 -61.5t-22.5 -88.5t-5 -103.5z" />
<glyph unicode="&#x120;" horiz-adv-x="1329" d="M121 729q0 104 3 188t16.5 155t43 130.5t84.5 114.5q76 74 170 113.5t219 39.5q127 0 223.5 -38.5t164 -103t107.5 -148.5t54 -176h-286q-49 213 -263 213q-59 0 -104 -21.5t-78 -56.5q-20 -23 -33.5 -50.5t-21.5 -72.5t-11 -113.5t-3 -173.5q0 -104 3 -173t11 -114 t21.5 -73.5t33.5 -51.5q33 -35 78 -55t104 -20q66 0 117 21.5t86 60.5q35 41 50.5 89t15.5 105v53h-269v240h551v-213q0 -158 -29.5 -260t-109.5 -184q-92 -96 -193.5 -131t-218.5 -35q-125 0 -219 40t-170 113q-55 55 -84.5 114.5t-43 130.5t-16.5 155t-3 188zM538 1616 v237h236v-237h-236z" />
<glyph unicode="&#x121;" horiz-adv-x="1136" d="M104 563q0 70 3.5 130.5t13.5 112.5t32.5 97t59.5 82q45 45 111.5 69.5t144.5 24.5q86 0 145.5 -25.5t114.5 -86.5v100h258v-1028q0 -96 -32.5 -177t-94 -140.5t-148.5 -92t-194 -32.5q-123 0 -213 29.5t-174 109.5l166 168q45 -43 93 -62.5t116 -19.5q59 0 100 19.5 t66.5 50t37 70.5t11.5 81v109q-53 -59 -114.5 -83t-139.5 -24t-143.5 24.5t-110.5 69.5q-37 37 -59.5 82t-32.5 97.5t-13.5 114t-3.5 130.5zM371 563q0 -53 5 -103t22.5 -89t52 -62.5t94.5 -23.5q59 0 94 23.5t53.5 62.5t23.5 89t5 103t-5 103.5t-23.5 88.5t-53.5 61.5 t-94 23.5t-94 -23.5t-52.5 -61.5t-22.5 -88.5t-5 -103.5zM426 1253v236h236v-236h-236z" />
<glyph unicode="&#x122;" horiz-adv-x="1329" d="M121 729q0 104 3 188t16.5 155t43 130.5t84.5 114.5q76 74 170 113.5t219 39.5q127 0 223.5 -38.5t164 -103t107.5 -148.5t54 -176h-286q-49 213 -263 213q-59 0 -104 -21.5t-78 -56.5q-20 -23 -33.5 -50.5t-21.5 -72.5t-11 -113.5t-3 -173.5q0 -104 3 -173t11 -114 t21.5 -73.5t33.5 -51.5q33 -35 78 -55t104 -20q66 0 117 21.5t86 60.5q35 41 50.5 89t15.5 105v53h-269v240h551v-213q0 -158 -29.5 -260t-109.5 -184q-92 -96 -193.5 -131t-218.5 -35q-125 0 -219 40t-170 113q-55 55 -84.5 114.5t-43 130.5t-16.5 155t-3 188zM480 -422 l141 299h197l-91 -299h-247z" />
<glyph unicode="&#x123;" horiz-adv-x="1136" d="M104 563q0 70 3.5 130.5t13.5 112.5t32.5 97t59.5 82q45 45 111.5 69.5t144.5 24.5q86 0 145.5 -25.5t114.5 -86.5v100h258v-1028q0 -96 -32.5 -177t-94 -140.5t-148.5 -92t-194 -32.5q-123 0 -213 29.5t-174 109.5l166 168q45 -43 93 -62.5t116 -19.5q59 0 100 19.5 t66.5 50t37 70.5t11.5 81v109q-53 -59 -114.5 -83t-139.5 -24t-143.5 24.5t-110.5 69.5q-37 37 -59.5 82t-32.5 97.5t-13.5 114t-3.5 130.5zM371 563q0 -53 5 -103t22.5 -89t52 -62.5t94.5 -23.5q59 0 94 23.5t53.5 62.5t23.5 89t5 103t-5 103.5t-23.5 88.5t-53.5 61.5 t-94 23.5t-94 -23.5t-52.5 -61.5t-22.5 -88.5t-5 -103.5zM455 1237l131 348h280l-233 -348h-178z" />
<glyph unicode="&#x124;" horiz-adv-x="1402" d="M170 0v1458h285v-596h493v596h285v-1458h-285v610h-493v-610h-285zM326 1599l270 347h213l270 -347h-207l-170 187l-170 -187h-206z" />
<glyph unicode="&#x125;" horiz-adv-x="1173" d="M-90 1599l271 346h213l270 -346h-207l-170 186l-170 -186h-207zM150 0v1458h266v-489q51 55 116.5 82.5t143.5 27.5q80 0 143.5 -24.5t108.5 -69.5q66 -66 87 -140.5t21 -162.5v-682h-266v645q0 55 -15.5 92t-41 59.5t-57 33t-62.5 10.5t-62.5 -10.5t-57 -33t-42 -59.5 t-16.5 -92v-645h-266z" />
<glyph unicode="&#x126;" horiz-adv-x="1497" d="M76 1040v217h141v201h285v-201h493v201h285v-201h141v-217h-141v-1040h-285v610h-493v-610h-285v1040h-141zM502 864h493v176h-493v-176z" />
<glyph unicode="&#x127;" horiz-adv-x="1204" d="M76 1161v168h104v129h266v-129h175v-168h-175v-192q51 55 117 82.5t144 27.5q80 0 143 -24.5t108 -69.5q66 -66 87.5 -140.5t21.5 -162.5v-682h-266v645q0 55 -15.5 92t-41 59.5t-57.5 33t-62 10.5q-31 0 -63 -10.5t-57.5 -33t-42 -59.5t-16.5 -92v-645h-266v1161h-104z " />
<glyph unicode="&#x128;" horiz-adv-x="624" d="M-57 1759q66 68 118 94.5t111 26.5q45 0 80 -10t78 -37q31 -18 56.5 -27.5t55.5 -9.5q27 0 53.5 9.5t67.5 49.5l119 -116q-68 -68 -120 -94.5t-111 -26.5q-47 0 -82 10t-78 37q-29 16 -56.5 26.5t-58.5 10.5q-27 0 -52.5 -9.5t-66.5 -50.5zM170 0v1458h285v-1458h-285z " />
<glyph unicode="&#x129;" horiz-adv-x="563" d="M-84 1397q68 68 119 93.5t111 25.5q47 0 80.5 -9.5t78.5 -36.5q29 -18 55.5 -28t57.5 -10q27 0 52.5 9t66.5 50l118 -117q-68 -68 -120 -93.5t-111 -25.5q-45 0 -80 10.5t-78 34.5q-29 16 -56.5 26.5t-57.5 10.5q-27 0 -52.5 -8t-66.5 -49zM150 0v1036h266v-1036h-266z " />
<glyph unicode="&#x12a;" horiz-adv-x="624" d="M-9 1624v180h650v-180h-650zM170 0v1458h285v-1458h-285z" />
<glyph unicode="&#x12b;" horiz-adv-x="563" d="M-41 1276v180h650v-180h-650zM150 0v1036h266v-1036h-266z" />
<glyph unicode="&#x12c;" horiz-adv-x="624" d="M-23 1905h178q8 -66 53.5 -94.5t104.5 -28.5t104.5 28.5t53.5 94.5h178q-4 -84 -32 -142.5t-74 -95.5t-105 -54.5t-125 -17.5t-125 17.5t-105 54.5t-75 95.5t-31 142.5zM170 0v1458h285v-1458h-285z" />
<glyph unicode="&#x12d;" horiz-adv-x="563" d="M-51 1532h178q8 -66 53.5 -94.5t104.5 -28.5t104.5 28.5t53.5 94.5h178q-4 -84 -32 -142.5t-74 -95.5t-105 -54t-125 -17t-125 17t-105 54t-75 95.5t-31 142.5zM150 0v1036h266v-1036h-266z" />
<glyph unicode="&#x12e;" horiz-adv-x="624" d="M31 -422l141 299h197l-91 -299h-247zM170 0v1458h285v-1458h-285z" />
<glyph unicode="&#x12f;" horiz-adv-x="563" d="M11 -422l141 299h197l-91 -299h-247zM145 1249v217h273v-217h-273zM150 0v1036h266v-1036h-266z" />
<glyph unicode="&#x130;" horiz-adv-x="624" d="M170 0v1458h285v-1458h-285zM194 1616v237h236v-237h-236z" />
<glyph unicode="&#x131;" horiz-adv-x="563" d="M150 0v1036h266v-1036h-266z" />
<glyph unicode="&#x132;" horiz-adv-x="1671" d="M170 0v1458h285v-1458h-285zM631 137l189 187q35 -35 74.5 -58.5t111.5 -23.5q104 0 166.5 61.5t62.5 188.5v966h285v-979q0 -121 -42 -213t-113.5 -153.5t-165 -93t-193.5 -31.5q-119 0 -206 33.5t-169 115.5z" />
<glyph unicode="&#x133;" horiz-adv-x="1126" d="M145 1249v217h273v-217h-273zM150 0v1036h266v-1036h-266zM516 -174h102q51 0 73 24.5t22 71.5v1114h266v-1130q0 -57 -17.5 -111.5t-55.5 -97.5t-97.5 -69.5t-141.5 -26.5h-151v225zM708 1249v217h273v-217h-273z" />
<glyph unicode="&#x134;" horiz-adv-x="1046" d="M6 137l189 187q35 -35 74.5 -58.5t111.5 -23.5q104 0 166.5 61.5t62.5 188.5v966h285v-979q0 -121 -42 -213t-113.5 -153.5t-165 -93t-193.5 -31.5q-119 0 -206 33.5t-169 115.5zM375 1599l270 347h213l270 -347h-207l-170 187l-170 -187h-206z" />
<glyph unicode="&#x135;" horiz-adv-x="563" d="M-92 1237l271 346h213l270 -346h-207l-170 186l-170 -186h-207zM-47 -174h102q51 0 73 24.5t22 71.5v1114h266v-1130q0 -57 -17.5 -111.5t-55.5 -97.5t-97.5 -69.5t-141.5 -26.5h-151v225z" />
<glyph unicode="&#x136;" horiz-adv-x="1361" d="M170 0v1458h285v-635l514 635h346l-484 -579l519 -879h-332l-375 664l-188 -226v-438h-285zM545 -422l141 299h197l-91 -299h-247z" />
<glyph unicode="&#x137;" horiz-adv-x="1144" d="M150 0v1458h266v-827l354 436h322l-381 -430l409 -637h-329l-263 444l-112 -127v-317h-266zM387 -422l141 299h197l-91 -299h-247z" />
<glyph unicode="&#x138;" horiz-adv-x="1144" d="M150 0v1067h266v-436l354 436h322l-381 -430l409 -637h-329l-263 444l-112 -127v-317h-266z" />
<glyph unicode="&#x139;" horiz-adv-x="1177" d="M170 0v1458h285v-1204h661v-254h-946zM172 1599l131 349h280l-233 -349h-178z" />
<glyph unicode="&#x13a;" horiz-adv-x="665" d="M139 305v1153h267v-1136q0 -47 21.5 -72t72.5 -25h102v-225h-151q-82 0 -141.5 26.5t-97.5 69.5t-55.5 97.5t-17.5 111.5zM139 1599l131 349h280l-233 -349h-178z" />
<glyph unicode="&#x13b;" horiz-adv-x="1177" d="M170 0v1458h285v-1204h661v-254h-946zM404 -422l141 299h197l-91 -299h-247z" />
<glyph unicode="&#x13c;" horiz-adv-x="665" d="M139 305v1153h267v-1136q0 -47 21.5 -72t72.5 -25h102v-225h-151q-82 0 -141.5 26.5t-97.5 69.5t-55.5 97.5t-17.5 111.5zM150 -422l141 299h197l-91 -299h-247z" />
<glyph unicode="&#x13d;" horiz-adv-x="1177" d="M170 0v1458h285v-1204h661v-254h-946zM651 1121l74 340h236l-123 -340h-187z" />
<glyph unicode="&#x13e;" horiz-adv-x="665" d="M139 305v1153h267v-1136q0 -47 21.5 -72t72.5 -25h102v-225h-151q-82 0 -141.5 26.5t-97.5 69.5t-55.5 97.5t-17.5 111.5zM530 1178l74 340h236l-123 -340h-187z" />
<glyph unicode="&#x13f;" horiz-adv-x="1177" d="M170 0v1458h285v-1204h661v-254h-946zM778 617v237h236v-237h-236z" />
<glyph unicode="&#x140;" horiz-adv-x="847" d="M139 305v1153h267v-1136q0 -47 21.5 -72t72.5 -25h102v-225h-151q-82 0 -141.5 26.5t-97.5 69.5t-55.5 97.5t-17.5 111.5zM577 469v236h236v-236h-236z" />
<glyph unicode="&#x141;" horiz-adv-x="1214" d="M76 416v237l131 84v721h285v-543l262 166v-235l-262 -166v-426h661v-254h-946v500z" />
<glyph unicode="&#x142;" horiz-adv-x="688" d="M61 551v223l111 70v614h266v-454l123 75v-223l-123 -78v-456q0 -47 20.5 -72t71.5 -25h103v-225h-152q-82 0 -140 26.5t-96 69.5t-55.5 97.5t-17.5 111.5v313z" />
<glyph unicode="&#x143;" horiz-adv-x="1456" d="M170 0v1458h254l577 -893v893h285v-1458h-254l-577 895v-895h-285zM615 1599l131 349h280l-233 -349h-178z" />
<glyph unicode="&#x144;" horiz-adv-x="1173" d="M150 0v1067h260v-98q53 55 122.5 82.5t143.5 27.5q80 0 143.5 -24.5t108.5 -69.5q66 -66 87 -140.5t21 -162.5v-682h-266v645q0 55 -15.5 92t-41 59.5t-57 33t-62.5 10.5t-62.5 -10.5t-57 -33t-42 -59.5t-16.5 -92v-645h-266zM467 1237l131 348h281l-233 -348h-179z" />
<glyph unicode="&#x145;" horiz-adv-x="1456" d="M170 0v1458h254l577 -893v893h285v-1458h-254l-577 895v-895h-285zM543 -422l141 299h197l-91 -299h-247z" />
<glyph unicode="&#x146;" horiz-adv-x="1173" d="M150 0v1067h260v-98q53 55 122.5 82.5t143.5 27.5q80 0 143.5 -24.5t108.5 -69.5q66 -66 87 -140.5t21 -162.5v-682h-266v645q0 55 -15.5 92t-41 59.5t-57 33t-62.5 10.5t-62.5 -10.5t-57 -33t-42 -59.5t-16.5 -92v-645h-266zM402 -422l141 299h197l-91 -299h-247z" />
<glyph unicode="&#x147;" horiz-adv-x="1456" d="M170 0v1458h254l577 -893v893h285v-1458h-254l-577 895v-895h-285zM350 1946h207l170 -185l170 185h207l-270 -347h-213z" />
<glyph unicode="&#x148;" horiz-adv-x="1173" d="M150 0v1067h260v-98q53 55 122.5 82.5t143.5 27.5q80 0 143.5 -24.5t108.5 -69.5q66 -66 87 -140.5t21 -162.5v-682h-266v645q0 55 -15.5 92t-41 59.5t-57 33t-62.5 10.5t-62.5 -10.5t-57 -33t-42 -59.5t-16.5 -92v-645h-266zM209 1583h207l170 -184l170 184h206 l-270 -346h-213z" />
<glyph unicode="&#x149;" horiz-adv-x="1173" d="M-75 1098v422h231v-242zM150 0v1067h260v-98q53 55 122.5 82.5t143.5 27.5q80 0 143.5 -24.5t108.5 -69.5q66 -66 87 -140.5t21 -162.5v-682h-266v645q0 55 -15.5 92t-41 59.5t-57 33t-62.5 10.5t-62.5 -10.5t-57 -33t-42 -59.5t-16.5 -92v-645h-266z" />
<glyph unicode="&#x14a;" horiz-adv-x="1456" d="M170 0v1458h254l577 -893v893h285v-1575q0 -57 -17.5 -111.5t-55 -97.5t-97 -69.5t-141.5 -26.5h-152v225h84q51 0 72.5 25t21.5 72v147l-546 848v-895h-285z" />
<glyph unicode="&#x14b;" horiz-adv-x="1173" d="M150 0v1067h260v-98q53 55 122.5 82.5t143.5 27.5q80 0 143.5 -24.5t108.5 -69.5q66 -66 87 -140.5t21 -162.5v-799q0 -57 -17.5 -111.5t-55 -97.5t-97 -69.5t-141.5 -26.5h-152v225h103q51 0 72.5 25t21.5 72v745q0 55 -15.5 92t-41 59.5t-57 33t-62.5 10.5t-62.5 -10.5 t-57 -33t-42 -59.5t-16.5 -92v-645h-266z" />
<glyph unicode="&#x14c;" horiz-adv-x="1318" d="M121 729q0 104 3 188t16.5 155t43 130.5t84.5 114.5q74 74 169 113.5t222 39.5t221.5 -39.5t168.5 -113.5q55 -55 84.5 -114.5t44 -130.5t17.5 -155t3 -188t-3 -188t-17.5 -155t-44 -130t-84.5 -115q-74 -74 -168.5 -113.5t-221.5 -39.5t-222 40t-169 113 q-55 55 -84.5 114.5t-43 130.5t-16.5 155t-3 188zM331 1624v180h650v-180h-650zM406 729q0 -104 3 -173t11 -113t21.5 -71.5t33.5 -49.5q33 -35 79 -57.5t105 -22.5t105.5 22.5t77.5 57.5q20 23 33.5 50t21.5 71t12 113t4 173t-4 173t-12 114t-21.5 72.5t-33.5 50.5 q-31 35 -77 56.5t-106 21.5q-59 0 -105 -21.5t-79 -56.5q-20 -23 -33.5 -50.5t-21.5 -72.5t-11 -113.5t-3 -173.5z" />
<glyph unicode="&#x14d;" d="M104 535q0 145 25 240t96 173q51 53 131 92t199 39t200 -39t132 -92q72 -78 96.5 -173t24.5 -240t-23.5 -242.5t-97.5 -173.5q-51 -53 -132 -92t-200 -39t-199 39t-131 92q-72 78 -96.5 174t-24.5 242zM229 1276v180h650v-180h-650zM371 535q0 -84 10 -152t51 -109 q47 -47 123 -47q78 0 125 47q41 41 51 109t10 152q0 82 -10 149.5t-51 108.5q-47 47 -125 47q-76 0 -123 -47q-41 -41 -51 -109t-10 -149z" />
<glyph unicode="&#x14e;" horiz-adv-x="1318" d="M121 729q0 104 3 188t16.5 155t43 130.5t84.5 114.5q74 74 169 113.5t222 39.5t221.5 -39.5t168.5 -113.5q55 -55 84.5 -114.5t44 -130.5t17.5 -155t3 -188t-3 -188t-17.5 -155t-44 -130t-84.5 -115q-74 -74 -168.5 -113.5t-221.5 -39.5t-222 40t-169 113 q-55 55 -84.5 114.5t-43 130.5t-16.5 155t-3 188zM323 1909h178q8 -66 53.5 -94.5t104.5 -28.5t104.5 28.5t53.5 94.5h178q-4 -84 -32 -142.5t-74 -95.5t-105 -54.5t-125 -17.5t-125 17.5t-105 54.5t-75 95.5t-31 142.5zM406 729q0 -104 3 -173t11 -113t21.5 -71.5 t33.5 -49.5q33 -35 79 -57.5t105 -22.5t105.5 22.5t77.5 57.5q20 23 33.5 50t21.5 71t12 113t4 173t-4 173t-12 114t-21.5 72.5t-33.5 50.5q-31 35 -77 56.5t-106 21.5q-59 0 -105 -21.5t-79 -56.5q-20 -23 -33.5 -50.5t-21.5 -72.5t-11 -113.5t-3 -173.5z" />
<glyph unicode="&#x14f;" d="M104 535q0 145 25 240t96 173q51 53 131 92t199 39t200 -39t132 -92q72 -78 96.5 -173t24.5 -240t-23.5 -242.5t-97.5 -173.5q-51 -53 -132 -92t-200 -39t-199 39t-131 92q-72 78 -96.5 174t-24.5 242zM221 1532h178q8 -66 53.5 -94.5t104.5 -28.5t104.5 28.5t53.5 94.5 h178q-4 -84 -32 -142.5t-74 -95.5t-105 -54t-125 -17t-125 17t-105 54t-75 95.5t-31 142.5zM371 535q0 -84 10 -152t51 -109q47 -47 123 -47q78 0 125 47q41 41 51 109t10 152q0 82 -10 149.5t-51 108.5q-47 47 -125 47q-76 0 -123 -47q-41 -41 -51 -109t-10 -149z" />
<glyph unicode="&#x150;" horiz-adv-x="1318" d="M121 729q0 104 3 188t16.5 155t43 130.5t84.5 114.5q74 74 169 113.5t222 39.5t221.5 -39.5t168.5 -113.5q55 -55 84.5 -114.5t44 -130.5t17.5 -155t3 -188t-3 -188t-17.5 -155t-44 -130t-84.5 -115q-74 -74 -168.5 -113.5t-221.5 -39.5t-222 40t-169 113 q-55 55 -84.5 114.5t-43 130.5t-16.5 155t-3 188zM324 1599l131 349h280l-231 -349h-180zM406 729q0 -104 3 -173t11 -113t21.5 -71.5t33.5 -49.5q33 -35 79 -57.5t105 -22.5t105.5 22.5t77.5 57.5q20 23 33.5 50t21.5 71t12 113t4 173t-4 173t-12 114t-21.5 72.5 t-33.5 50.5q-31 35 -77 56.5t-106 21.5q-59 0 -105 -21.5t-79 -56.5q-20 -23 -33.5 -50.5t-21.5 -72.5t-11 -113.5t-3 -173.5zM738 1599l129 349h282l-235 -349h-176z" />
<glyph unicode="&#x151;" d="M104 535q0 145 25 240t96 173q51 53 131 92t199 39t200 -39t132 -92q72 -78 96.5 -173t24.5 -240t-23.5 -242.5t-97.5 -173.5q-51 -53 -132 -92t-200 -39t-199 39t-131 92q-72 78 -96.5 174t-24.5 242zM221 1237l131 348h280l-231 -348h-180zM371 535q0 -84 10 -152 t51 -109q47 -47 123 -47q78 0 125 47q41 41 51 109t10 152q0 82 -10 149.5t-51 108.5q-47 47 -125 47q-76 0 -123 -47q-41 -41 -51 -109t-10 -149zM635 1237l129 348h282l-235 -348h-176z" />
<glyph unicode="&#x152;" horiz-adv-x="1978" d="M121 729q0 104 3 188t16.5 155t43 130.5t84.5 114.5q76 74 170 113.5t221 39.5q72 0 140.5 -27.5t113.5 -74.5v90h953v-254h-668v-342h569v-254h-569v-354h670v-254h-955v90q-39 -45 -111.5 -73.5t-142.5 -28.5q-127 0 -221 40t-170 113q-55 55 -84.5 114.5t-43 130.5 t-16.5 155t-3 188zM406 729q0 -104 3 -173t11 -113t21.5 -71.5t33.5 -49.5q33 -35 79 -57.5t105 -22.5t105.5 22.5t77.5 57.5q20 23 34.5 50t22.5 71t11 113t3 173t-3 173t-11 114t-22.5 72.5t-34.5 50.5q-31 35 -77 56.5t-106 21.5q-59 0 -105 -21.5t-79 -56.5 q-20 -23 -33.5 -50.5t-21.5 -72.5t-11 -113.5t-3 -173.5z" />
<glyph unicode="&#x153;" horiz-adv-x="1767" d="M104 535q0 145 25 240t96 173q51 53 131 92t199 39q115 0 197 -39t133 -100q117 139 321 139q111 0 198 -39t146.5 -106.5t90 -160.5t30.5 -204v-118h-667q0 -104 59 -171t174 -67q88 0 139 25.5t101 74.5l163 -157q-41 -41 -81.5 -73t-89 -53.5t-105.5 -31.5t-129 -10 q-104 0 -196.5 30.5t-157.5 106.5q-51 -61 -132 -99t-194 -38q-119 0 -199 39t-131 92q-72 76 -96.5 173t-24.5 243zM371 535q0 -84 10 -152t51 -109q47 -47 123 -47q78 0 125 47q41 41 51 109t10 152q0 82 -10 149.5t-51 108.5q-47 47 -125 47q-76 0 -123 -47 q-41 -41 -51 -109t-10 -149zM1004 633h405q-2 35 -6 60.5t-19 54.5q-23 47 -66.5 78.5t-111.5 31.5t-111.5 -31.5t-66.5 -78.5q-14 -29 -18 -54.5t-6 -60.5z" />
<glyph unicode="&#x154;" horiz-adv-x="1339" d="M170 0v1458h571q111 0 199 -36t149.5 -96t93 -141t31.5 -173q0 -78 -21.5 -139.5t-58 -109.5t-85 -82t-101.5 -52l326 -629h-330l-285 582h-204v-582h-285zM455 819h268q94 0 150.5 53.5t56.5 139.5t-56.5 139t-150.5 53h-268v-385zM557 1599l131 349h280l-233 -349h-178 z" />
<glyph unicode="&#x155;" horiz-adv-x="931" d="M150 0v1067h260v-102q39 47 110.5 80.5t157.5 33.5q78 0 137 -22.5t115 -77.5l-201 -203q-31 31 -61.5 47.5t-79.5 16.5q-31 0 -61.5 -11.5t-55.5 -36t-40 -61.5t-15 -88v-643h-266zM352 1237l131 348h281l-233 -348h-179z" />
<glyph unicode="&#x156;" horiz-adv-x="1339" d="M170 0v1458h571q111 0 199 -36t149.5 -96t93 -141t31.5 -173q0 -78 -21.5 -139.5t-58 -109.5t-85 -82t-101.5 -52l326 -629h-330l-285 582h-204v-582h-285zM455 819h268q94 0 150.5 53.5t56.5 139.5t-56.5 139t-150.5 53h-268v-385zM486 -422l141 299h197l-91 -299h-247z " />
<glyph unicode="&#x157;" horiz-adv-x="931" d="M50 -422l141 299h197l-91 -299h-247zM150 0v1067h260v-102q39 47 110.5 80.5t157.5 33.5q78 0 137 -22.5t115 -77.5l-201 -203q-31 31 -61.5 47.5t-79.5 16.5q-31 0 -61.5 -11.5t-55.5 -36t-40 -61.5t-15 -88v-643h-266z" />
<glyph unicode="&#x158;" horiz-adv-x="1339" d="M170 0v1458h571q111 0 199 -36t149.5 -96t93 -141t31.5 -173q0 -78 -21.5 -139.5t-58 -109.5t-85 -82t-101.5 -52l326 -629h-330l-285 582h-204v-582h-285zM292 1946h207l170 -185l170 185h207l-270 -347h-213zM455 819h268q94 0 150.5 53.5t56.5 139.5t-56.5 139 t-150.5 53h-268v-385z" />
<glyph unicode="&#x159;" horiz-adv-x="931" d="M92 1583h207l170 -184l170 184h206l-270 -346h-213zM150 0v1067h260v-102q39 47 110.5 80.5t157.5 33.5q78 0 137 -22.5t115 -77.5l-201 -203q-31 31 -61.5 47.5t-79.5 16.5q-31 0 -61.5 -11.5t-55.5 -36t-40 -61.5t-15 -88v-643h-266z" />
<glyph unicode="&#x15a;" horiz-adv-x="1210" d="M39 180l184 185q70 -70 160 -96.5t190 -26.5q129 0 195 47t66 135q0 76 -46 121q-23 20 -49 30.5t-82 18.5l-174 27q-98 14 -165.5 43.5t-116.5 76.5q-104 100 -105 287q0 98 35 179t100.5 139.5t159.5 91t213 32.5q152 0 264.5 -38.5t206.5 -131.5l-180 -178 q-68 66 -147.5 83.5t-151.5 17.5q-115 0 -169 -54.5t-54 -130.5q0 -29 9 -55.5t32 -48.5q23 -20 54.5 -34.5t78.5 -20.5l174 -27q100 -14 165.5 -41t112.5 -74q59 -53 86 -131t27 -176q0 -106 -41 -188t-113.5 -138.5t-172 -86t-214.5 -29.5q-166 0 -296 42t-236 150z M508 1599l131 349h280l-233 -349h-178z" />
<glyph unicode="&#x15b;" horiz-adv-x="1026" d="M45 141l174 174q33 -33 70 -52t74.5 -30.5t73.5 -14.5t67 -3q35 0 68.5 6t60 19.5t43 34t16.5 51.5q0 41 -23.5 66.5t-88.5 31.5l-172 16q-141 14 -224.5 83t-83.5 216q0 84 34 147.5t90.5 106.5t131 64.5t156.5 21.5q127 0 228.5 -26.5t179.5 -98.5l-164 -166 q-47 41 -111.5 56.5t-136.5 15.5q-80 0 -116 -30.5t-36 -71.5t26 -63.5t85 -28.5l168 -17q160 -16 238.5 -96t78.5 -217q0 -88 -34.5 -153.5t-96 -108.5t-144.5 -64.5t-177 -21.5q-63 0 -123 5t-116 21.5t-110.5 46t-105.5 80.5zM395 1237l131 348h281l-233 -348h-179z" />
<glyph unicode="&#x15c;" horiz-adv-x="1210" d="M39 180l184 185q70 -70 160 -96.5t190 -26.5q129 0 195 47t66 135q0 76 -46 121q-23 20 -49 30.5t-82 18.5l-174 27q-98 14 -165.5 43.5t-116.5 76.5q-104 100 -105 287q0 98 35 179t100.5 139.5t159.5 91t213 32.5q152 0 264.5 -38.5t206.5 -131.5l-180 -178 q-68 66 -147.5 83.5t-151.5 17.5q-115 0 -169 -54.5t-54 -130.5q0 -29 9 -55.5t32 -48.5q23 -20 54.5 -34.5t78.5 -20.5l174 -27q100 -14 165.5 -41t112.5 -74q59 -53 86 -131t27 -176q0 -106 -41 -188t-113.5 -138.5t-172 -86t-214.5 -29.5q-166 0 -296 42t-236 150z M232 1599l270 347h213l270 -347h-207l-170 187l-170 -187h-206z" />
<glyph unicode="&#x15d;" horiz-adv-x="1026" d="M45 141l174 174q33 -33 70 -52t74.5 -30.5t73.5 -14.5t67 -3q35 0 68.5 6t60 19.5t43 34t16.5 51.5q0 41 -23.5 66.5t-88.5 31.5l-172 16q-141 14 -224.5 83t-83.5 216q0 84 34 147.5t90.5 106.5t131 64.5t156.5 21.5q127 0 228.5 -26.5t179.5 -98.5l-164 -166 q-47 41 -111.5 56.5t-136.5 15.5q-80 0 -116 -30.5t-36 -71.5t26 -63.5t85 -28.5l168 -17q160 -16 238.5 -96t78.5 -217q0 -88 -34.5 -153.5t-96 -108.5t-144.5 -64.5t-177 -21.5q-63 0 -123 5t-116 21.5t-110.5 46t-105.5 80.5zM162 1237l271 346h213l270 -346h-207 l-170 186l-170 -186h-207z" />
<glyph unicode="&#x15e;" horiz-adv-x="1210" d="M39 180l184 185q70 -70 160 -96.5t190 -26.5q129 0 195 47t66 135q0 76 -46 121q-23 20 -49 30.5t-82 18.5l-174 27q-98 14 -165.5 43.5t-116.5 76.5q-104 100 -105 287q0 98 35 179t100.5 139.5t159.5 91t213 32.5q152 0 264.5 -38.5t206.5 -131.5l-180 -178 q-68 66 -147.5 83.5t-151.5 17.5q-115 0 -169 -54.5t-54 -130.5q0 -29 9 -55.5t32 -48.5q23 -20 54.5 -34.5t78.5 -20.5l174 -27q100 -14 165.5 -41t112.5 -74q59 -53 86 -131t27 -176q0 -106 -41 -188t-113.5 -138.5t-172 -86t-214.5 -29.5q-166 0 -296 42t-236 150z M420 -422l141 299h197l-91 -299h-247z" />
<glyph unicode="&#x15f;" horiz-adv-x="1026" d="M45 141l174 174q33 -33 70 -52t74.5 -30.5t73.5 -14.5t67 -3q35 0 68.5 6t60 19.5t43 34t16.5 51.5q0 41 -23.5 66.5t-88.5 31.5l-172 16q-141 14 -224.5 83t-83.5 216q0 84 34 147.5t90.5 106.5t131 64.5t156.5 21.5q127 0 228.5 -26.5t179.5 -98.5l-164 -166 q-47 41 -111.5 56.5t-136.5 15.5q-80 0 -116 -30.5t-36 -71.5t26 -63.5t85 -28.5l168 -17q160 -16 238.5 -96t78.5 -217q0 -88 -34.5 -153.5t-96 -108.5t-144.5 -64.5t-177 -21.5q-63 0 -123 5t-116 21.5t-110.5 46t-105.5 80.5zM328 -422l141 299h197l-91 -299h-247z" />
<glyph unicode="&#x160;" horiz-adv-x="1210" d="M39 180l184 185q70 -70 160 -96.5t190 -26.5q129 0 195 47t66 135q0 76 -46 121q-23 20 -49 30.5t-82 18.5l-174 27q-98 14 -165.5 43.5t-116.5 76.5q-104 100 -105 287q0 98 35 179t100.5 139.5t159.5 91t213 32.5q152 0 264.5 -38.5t206.5 -131.5l-180 -178 q-68 66 -147.5 83.5t-151.5 17.5q-115 0 -169 -54.5t-54 -130.5q0 -29 9 -55.5t32 -48.5q23 -20 54.5 -34.5t78.5 -20.5l174 -27q100 -14 165.5 -41t112.5 -74q59 -53 86 -131t27 -176q0 -106 -41 -188t-113.5 -138.5t-172 -86t-214.5 -29.5q-166 0 -296 42t-236 150z M225 1946h207l170 -185l170 185h207l-270 -347h-213z" />
<glyph unicode="&#x161;" horiz-adv-x="1026" d="M45 141l174 174q33 -33 70 -52t74.5 -30.5t73.5 -14.5t67 -3q35 0 68.5 6t60 19.5t43 34t16.5 51.5q0 41 -23.5 66.5t-88.5 31.5l-172 16q-141 14 -224.5 83t-83.5 216q0 84 34 147.5t90.5 106.5t131 64.5t156.5 21.5q127 0 228.5 -26.5t179.5 -98.5l-164 -166 q-47 41 -111.5 56.5t-136.5 15.5q-80 0 -116 -30.5t-36 -71.5t26 -63.5t85 -28.5l168 -17q160 -16 238.5 -96t78.5 -217q0 -88 -34.5 -153.5t-96 -108.5t-144.5 -64.5t-177 -21.5q-63 0 -123 5t-116 21.5t-110.5 46t-105.5 80.5zM135 1583h207l170 -184l170 184h206 l-270 -346h-213z" />
<glyph unicode="&#x162;" horiz-adv-x="1169" d="M61 1204v254h1047v-254h-381v-1204h-285v1204h-381zM344 -422l141 299h197l-91 -299h-247z" />
<glyph unicode="&#x163;" horiz-adv-x="720" d="M61 834v202h113v316h266v-316h189v-202h-189v-512q0 -96 92 -97h97v-225h-146q-82 0 -140 26.5t-96 69.5t-55.5 97.5t-17.5 111.5v529h-113zM178 -422l141 299h197l-91 -299h-247z" />
<glyph unicode="&#x164;" horiz-adv-x="1169" d="M61 1204v254h1047v-254h-381v-1204h-285v1204h-381zM190 1946h207l170 -185l170 185h207l-270 -347h-213z" />
<glyph unicode="&#x165;" horiz-adv-x="720" d="M61 834v202h113v316h266v-316h189v-202h-189v-512q0 -96 92 -97h97v-225h-146q-82 0 -140 26.5t-96 69.5t-55.5 97.5t-17.5 111.5v529h-113zM563 1178l74 340h236l-123 -340h-187z" />
<glyph unicode="&#x166;" horiz-adv-x="1169" d="M61 1204v254h1047v-254h-381v-360h188v-217h-188v-627h-285v627h-190v217h190v360h-381z" />
<glyph unicode="&#x167;" horiz-adv-x="720" d="M61 485v203h113v146h-113v202h113v316h266v-316h189v-202h-189v-146h189v-203h-189v-163q0 -96 92 -97h97v-225h-146q-82 0 -140 26.5t-96 69.5t-55.5 97.5t-17.5 111.5v180h-113z" />
<glyph unicode="&#x168;" horiz-adv-x="1368" d="M147 500v958h285v-948q0 -127 67.5 -197.5t184.5 -70.5t185.5 70.5t68.5 197.5v948h283v-958q0 -117 -42 -211t-115 -161t-170 -103.5t-210 -36.5t-210 36.5t-170 103.5t-115 161t-42 211zM314 1759q66 68 118 94.5t111 26.5q45 0 80 -10t78 -37q31 -18 56.5 -27.5 t55.5 -9.5q27 0 53.5 9.5t67.5 49.5l119 -116q-68 -68 -120 -94.5t-111 -26.5q-47 0 -82 10t-78 37q-29 16 -56.5 26.5t-58.5 10.5q-27 0 -52.5 -9.5t-66.5 -50.5z" />
<glyph unicode="&#x169;" horiz-adv-x="1173" d="M137 385v682h266v-645q0 -55 15.5 -92t41 -59.5t57.5 -33t63 -10.5t62.5 10.5t57 33t42 59.5t16.5 92v645h266v-1067h-260v98q-53 -55 -123 -82.5t-143 -27.5q-80 0 -143.5 24.5t-108.5 69.5q-66 66 -87.5 140.5t-21.5 162.5zM213 1397q68 68 119 93.5t111 25.5 q47 0 80.5 -9.5t78.5 -36.5q29 -18 55.5 -28t57.5 -10q27 0 52.5 9t66.5 50l118 -117q-68 -68 -120 -93.5t-111 -25.5q-45 0 -80 10.5t-78 34.5q-29 16 -56.5 26.5t-57.5 10.5q-27 0 -52.5 -8t-66.5 -49z" />
<glyph unicode="&#x16a;" horiz-adv-x="1368" d="M147 500v958h285v-948q0 -127 67.5 -197.5t184.5 -70.5t185.5 70.5t68.5 197.5v948h283v-958q0 -117 -42 -211t-115 -161t-170 -103.5t-210 -36.5t-210 36.5t-170 103.5t-115 161t-42 211zM358 1624v180h650v-180h-650z" />
<glyph unicode="&#x16b;" horiz-adv-x="1173" d="M137 385v682h266v-645q0 -55 15.5 -92t41 -59.5t57.5 -33t63 -10.5t62.5 10.5t57 33t42 59.5t16.5 92v645h266v-1067h-260v98q-53 -55 -123 -82.5t-143 -27.5q-80 0 -143.5 24.5t-108.5 69.5q-66 66 -87.5 140.5t-21.5 162.5zM260 1276v180h650v-180h-650z" />
<glyph unicode="&#x16c;" horiz-adv-x="1368" d="M147 500v958h285v-948q0 -127 67.5 -197.5t184.5 -70.5t185.5 70.5t68.5 197.5v948h283v-958q0 -117 -42 -211t-115 -161t-170 -103.5t-210 -36.5t-210 36.5t-170 103.5t-115 161t-42 211zM348 1905h178q8 -66 53.5 -94.5t104.5 -28.5t104.5 28.5t53.5 94.5h178 q-4 -84 -32 -142.5t-74 -95.5t-105 -54.5t-125 -17.5t-125 17.5t-105 54.5t-75 95.5t-31 142.5z" />
<glyph unicode="&#x16d;" horiz-adv-x="1173" d="M137 385v682h266v-645q0 -55 15.5 -92t41 -59.5t57.5 -33t63 -10.5t62.5 10.5t57 33t42 59.5t16.5 92v645h266v-1067h-260v98q-53 -55 -123 -82.5t-143 -27.5q-80 0 -143.5 24.5t-108.5 69.5q-66 66 -87.5 140.5t-21.5 162.5zM244 1532h178q8 -66 53.5 -94.5t104.5 -28.5 t104.5 28.5t53.5 94.5h178q-4 -84 -32 -142.5t-74 -95.5t-105 -54t-125 -17t-125 17t-105 54t-75 95.5t-31 142.5z" />
<glyph unicode="&#x16e;" horiz-adv-x="1368" d="M147 500v958h285v-948q0 -127 67.5 -197.5t184.5 -70.5t185.5 70.5t68.5 197.5v948h283v-958q0 -117 -42 -211t-115 -161t-170 -103.5t-210 -36.5t-210 36.5t-170 103.5t-115 161t-42 211zM416 1826q0 55 21.5 104.5t57 85.5t85 57.5t104.5 21.5t104.5 -20.5t85 -57.5 t57 -86.5t21.5 -104.5t-21.5 -104t-57 -85t-85 -57.5t-104.5 -21.5t-104.5 21.5t-85 57.5t-57 85t-21.5 104zM565 1826q0 -49 35 -84.5t84 -35.5t84 35.5t35 84.5t-35 84t-84 35t-84 -34.5t-35 -84.5z" />
<glyph unicode="&#x16f;" horiz-adv-x="1173" d="M137 385v682h266v-645q0 -55 15.5 -92t41 -59.5t57.5 -33t63 -10.5t62.5 10.5t57 33t42 59.5t16.5 92v645h266v-1067h-260v98q-53 -55 -123 -82.5t-143 -27.5q-80 0 -143.5 24.5t-108.5 69.5q-66 66 -87.5 140.5t-21.5 162.5zM317 1464q0 55 21.5 104.5t57.5 85.5 t85 57.5t105 21.5q55 0 104 -20.5t85 -57.5t57.5 -86.5t21.5 -104.5t-21.5 -104t-57.5 -85t-85 -57.5t-104 -21.5t-104.5 21.5t-85.5 57.5t-57.5 85t-21.5 104zM467 1464q0 -49 34.5 -85t84.5 -36q49 0 83.5 36t34.5 85t-34.5 84t-83.5 35t-84 -35t-35 -84z" />
<glyph unicode="&#x170;" horiz-adv-x="1368" d="M147 500v958h285v-948q0 -127 67.5 -197.5t184.5 -70.5t185.5 70.5t68.5 197.5v948h283v-958q0 -117 -42 -211t-115 -161t-170 -103.5t-210 -36.5t-210 36.5t-170 103.5t-115 161t-42 211zM334 1599l131 349h280l-231 -349h-180zM748 1599l129 349h282l-235 -349h-176z " />
<glyph unicode="&#x171;" horiz-adv-x="1173" d="M137 385v682h266v-645q0 -55 15.5 -92t41 -59.5t57.5 -33t63 -10.5t62.5 10.5t57 33t42 59.5t16.5 92v645h266v-1067h-260v98q-53 -55 -123 -82.5t-143 -27.5q-80 0 -143.5 24.5t-108.5 69.5q-66 66 -87.5 140.5t-21.5 162.5zM236 1237l131 348h280l-231 -348h-180z M650 1237l129 348h282l-235 -348h-176z" />
<glyph unicode="&#x172;" horiz-adv-x="1368" d="M147 500v958h285v-948q0 -127 67.5 -197.5t184.5 -70.5t185.5 70.5t68.5 197.5v948h283v-958q0 -117 -42 -211t-115 -161t-170 -103.5t-210 -36.5t-210 36.5t-170 103.5t-115 161t-42 211zM686 -422l141 299h197l-91 -299h-247z" />
<glyph unicode="&#x173;" horiz-adv-x="1173" d="M137 385v682h266v-645q0 -55 15.5 -92t41 -59.5t57.5 -33t63 -10.5t62.5 10.5t57 33t42 59.5t16.5 92v645h266v-1067h-260v98q-53 -55 -123 -82.5t-143 -27.5q-80 0 -143.5 24.5t-108.5 69.5q-66 66 -87.5 140.5t-21.5 162.5zM623 -422l141 299h197l-91 -299h-247z" />
<glyph unicode="&#x174;" horiz-adv-x="1816" d="M12 1458h297l226 -919l266 919h213l266 -919l227 919h297l-391 -1458h-237l-269 885l-268 -885h-238zM531 1599l270 347h213l270 -347h-207l-170 187l-170 -187h-206z" />
<glyph unicode="&#x175;" horiz-adv-x="1554" d="M8 1067h283l172 -659l217 659h194l220 -659l172 659h280l-325 -1067h-220l-223 670l-223 -670h-219zM401 1237l271 346h213l270 -346h-207l-170 186l-170 -186h-207z" />
<glyph unicode="&#x176;" horiz-adv-x="1171" d="M6 1458h309l273 -588l268 588h309l-438 -860v-598h-283v598zM211 1599l270 347h213l270 -347h-207l-170 187l-170 -187h-206z" />
<glyph unicode="&#x177;" horiz-adv-x="1011" d="M8 1067h281l221 -659l213 659h281l-457 -1239q-35 -92 -80 -137q-47 -47 -105.5 -64.5t-123.5 -17.5h-105v239h62q57 0 84.5 18.5t48.5 78.5l45 131zM135 1237l271 346h213l270 -346h-207l-170 186l-170 -186h-207z" />
<glyph unicode="&#x178;" horiz-adv-x="1171" d="M6 1458h309l273 -588l268 588h309l-438 -860v-598h-283v598zM247 1604v256h228v-256h-228zM700 1604v256h227v-256h-227z" />
<glyph unicode="&#x179;" horiz-adv-x="1122" d="M82 0v229l623 975h-596v254h931v-225l-624 -979h624v-254h-958zM467 1599l131 349h280l-233 -349h-178z" />
<glyph unicode="&#x17a;" horiz-adv-x="978" d="M76 0v203l473 624h-447v240h787v-203l-479 -624h479v-240h-813zM370 1237l131 348h281l-233 -348h-179z" />
<glyph unicode="&#x17b;" horiz-adv-x="1122" d="M82 0v229l623 975h-596v254h931v-225l-624 -979h624v-254h-958zM440 1616v237h236v-237h-236z" />
<glyph unicode="&#x17c;" horiz-adv-x="978" d="M76 0v203l473 624h-447v240h787v-203l-479 -624h479v-240h-813zM375 1253v236h236v-236h-236z" />
<glyph unicode="&#x17d;" horiz-adv-x="1122" d="M82 0v229l623 975h-596v254h931v-225l-624 -979h624v-254h-958zM190 1946h207l170 -185l170 185h207l-270 -347h-213z" />
<glyph unicode="&#x17e;" horiz-adv-x="978" d="M76 0v203l473 624h-447v240h787v-203l-479 -624h479v-240h-813zM119 1583h207l170 -184l170 184h206l-270 -346h-213z" />
<glyph unicode="&#x17f;" horiz-adv-x="563" d="M150 0v1169q0 57 18 111.5t56 97.5t96.5 70t140.5 27h151v-226h-104q-92 0 -92 -96v-1153h-266z" />
<glyph unicode="&#x18f;" horiz-adv-x="1329" d="M121 598v213h801q0 78 -4.5 130t-12.5 89t-21.5 61.5t-31.5 47.5q-31 35 -76 56.5t-104 21.5q-213 0 -262 -213h-287q14 92 53 176t106.5 148.5t165 103t224.5 38.5q125 0 219 -39.5t170 -113.5q53 -53 83 -111.5t44 -130t17 -157t3 -189.5t-3 -189t-16 -156t-43 -130 t-85 -113q-76 -74 -170 -113.5t-219 -39.5q-119 0 -220.5 35.5t-191.5 130.5q-80 84 -109.5 185t-29.5 259zM403 518q0 -57 15.5 -105t50.5 -89q35 -39 86 -60.5t117 -21.5q59 0 104 20.5t76 54.5q16 18 28.5 39t19.5 50.5t12.5 69.5t7.5 95h-517v-53z" />
<glyph unicode="&#x192;" horiz-adv-x="874" d="M23 -391l178 999h-138v205h173l63 356q12 68 43 123.5t77 95t106.5 62.5t129.5 23h158v-224h-141q-94 0 -111 -96l-59 -340h196v-205h-231l-178 -999h-266z" />
<glyph unicode="&#x1b5;" horiz-adv-x="1122" d="M82 0v229l254 400h-103v217h242l230 358h-596v254h931v-225l-247 -387h104v-217h-242l-239 -375h624v-254h-958z" />
<glyph unicode="&#x1b6;" horiz-adv-x="978" d="M76 0v203l184 243h-47v168h174l162 213h-447v240h787v-203l-193 -250h88v-168h-217l-157 -206h479v-240h-813z" />
<glyph unicode="&#x1c4;" horiz-adv-x="2471" d="M170 0v1458h526q150 0 256.5 -51t184.5 -162q33 -47 52 -99t27.5 -114.5t10.5 -137.5t2 -165t-2 -165t-10.5 -137t-28 -114.5t-51.5 -99.5q-78 -111 -184.5 -162t-256.5 -51h-526zM455 254h217q141 0 213 90q20 25 31.5 55.5t17.5 74.5t8 106.5t2 148.5t-2 148.5 t-8 106.5t-17.5 75t-31.5 55q-72 90 -213 90h-217v-950zM1432 0v229l623 975h-596v254h931v-225l-624 -979h624v-254h-958zM1540 1946h207l170 -185l170 185h207l-270 -347h-213z" />
<glyph unicode="&#x1c5;" horiz-adv-x="2328" d="M170 0v1458h526q150 0 256.5 -51t184.5 -162q33 -47 52 -99t27.5 -114.5t10.5 -137.5t2 -165t-2 -165t-10.5 -137t-28 -114.5t-51.5 -99.5q-78 -111 -184.5 -162t-256.5 -51h-526zM455 254h217q141 0 213 90q20 25 31.5 55.5t17.5 74.5t8 106.5t2 148.5t-2 148.5 t-8 106.5t-17.5 75t-31.5 55q-72 90 -213 90h-217v-950zM1426 0v203l473 624h-447v240h787v-203l-479 -624h479v-240h-813zM1469 1583h207l170 -184l170 184h206l-270 -346h-213z" />
<glyph unicode="&#x1c6;" horiz-adv-x="2127" d="M104 535q0 68 3.5 131t14.5 120.5t32.5 107.5t60.5 89q45 47 111.5 71.5t146.5 24.5q82 0 144.5 -23.5t115.5 -82.5v485h266v-1458h-260v100q-55 -61 -116.5 -86.5t-147.5 -25.5q-80 0 -147.5 24.5t-112.5 71.5q-39 39 -60.5 89t-32.5 107.5t-14.5 122t-3.5 132.5z M371 535q0 -66 6 -121.5t24.5 -97.5t54.5 -65.5t95 -23.5t95 23.5t55.5 65.5t25.5 97.5t6 121.5q0 63 -6 119.5t-25.5 97.5t-55.5 64.5t-95 23.5t-95 -23.5t-54.5 -64.5t-24.5 -97.5t-6 -119.5zM1225 0v203l473 624h-447v240h787v-203l-479 -624h479v-240h-813zM1268 1583 h207l170 -184l170 184h206l-270 -346h-213z" />
<glyph unicode="&#x1c7;" horiz-adv-x="2224" d="M170 0v1458h285v-1204h661v-254h-946zM1184 137l189 187q35 -35 74.5 -58.5t111.5 -23.5q104 0 166.5 61.5t62.5 188.5v966h285v-979q0 -121 -42 -213t-113.5 -153.5t-165 -93t-193.5 -31.5q-119 0 -206 33.5t-169 115.5z" />
<glyph unicode="&#x1c8;" horiz-adv-x="1740" d="M170 0v1458h285v-1204h661v-254h-946zM1131 -174h102q51 0 73 24.5t22 71.5v1114h266v-1130q0 -57 -17.5 -111.5t-55.5 -97.5t-97.5 -69.5t-141.5 -26.5h-151v225zM1323 1249v217h273v-217h-273z" />
<glyph unicode="&#x1c9;" horiz-adv-x="1228" d="M139 305v1153h267v-1136q0 -47 21.5 -72t72.5 -25h102v-225h-151q-82 0 -141.5 26.5t-97.5 69.5t-55.5 97.5t-17.5 111.5zM619 -174h102q51 0 73 24.5t22 71.5v1114h266v-1130q0 -57 -17.5 -111.5t-55.5 -97.5t-97.5 -69.5t-141.5 -26.5h-151v225zM811 1249v217h273v-217 h-273z" />
<glyph unicode="&#x1ca;" horiz-adv-x="2502" d="M170 0v1458h254l577 -893v893h285v-1458h-254l-577 895v-895h-285zM1462 137l189 187q35 -35 74.5 -58.5t111.5 -23.5q104 0 166.5 61.5t62.5 188.5v966h285v-979q0 -121 -42 -213t-113.5 -153.5t-165 -93t-193.5 -31.5q-119 0 -206 33.5t-169 115.5z" />
<glyph unicode="&#x1cb;" horiz-adv-x="2019" d="M170 0v1458h254l577 -893v893h285v-1458h-254l-577 895v-895h-285zM1409 -174h102q51 0 73 24.5t22 71.5v1114h266v-1130q0 -57 -17.5 -111.5t-55.5 -97.5t-97.5 -69.5t-141.5 -26.5h-151v225zM1601 1249v217h273v-217h-273z" />
<glyph unicode="&#x1cc;" horiz-adv-x="1736" d="M150 0v1067h260v-98q53 55 122.5 82.5t143.5 27.5q80 0 143.5 -24.5t108.5 -69.5q66 -66 87 -140.5t21 -162.5v-682h-266v645q0 55 -15.5 92t-41 59.5t-57 33t-62.5 10.5t-62.5 -10.5t-57 -33t-42 -59.5t-16.5 -92v-645h-266zM1127 -174h102q51 0 73 24.5t22 71.5v1114 h266v-1130q0 -57 -17.5 -111.5t-55.5 -97.5t-97.5 -69.5t-141.5 -26.5h-151v225zM1319 1249v217h273v-217h-273z" />
<glyph unicode="&#x1f1;" horiz-adv-x="2471" d="M170 0v1458h526q150 0 256.5 -51t184.5 -162q33 -47 52 -99t27.5 -114.5t10.5 -137.5t2 -165t-2 -165t-10.5 -137t-28 -114.5t-51.5 -99.5q-78 -111 -184.5 -162t-256.5 -51h-526zM455 254h217q141 0 213 90q20 25 31.5 55.5t17.5 74.5t8 106.5t2 148.5t-2 148.5 t-8 106.5t-17.5 75t-31.5 55q-72 90 -213 90h-217v-950zM1432 0v229l623 975h-596v254h931v-225l-624 -979h624v-254h-958z" />
<glyph unicode="&#x1f2;" horiz-adv-x="2328" d="M170 0v1458h526q150 0 256.5 -51t184.5 -162q33 -47 52 -99t27.5 -114.5t10.5 -137.5t2 -165t-2 -165t-10.5 -137t-28 -114.5t-51.5 -99.5q-78 -111 -184.5 -162t-256.5 -51h-526zM455 254h217q141 0 213 90q20 25 31.5 55.5t17.5 74.5t8 106.5t2 148.5t-2 148.5 t-8 106.5t-17.5 75t-31.5 55q-72 90 -213 90h-217v-950zM1426 0v203l473 624h-447v240h787v-203l-479 -624h479v-240h-813z" />
<glyph unicode="&#x1f3;" horiz-adv-x="2127" d="M104 535q0 68 3.5 131t14.5 120.5t32.5 107.5t60.5 89q45 47 111.5 71.5t146.5 24.5q82 0 144.5 -23.5t115.5 -82.5v485h266v-1458h-260v100q-55 -61 -116.5 -86.5t-147.5 -25.5q-80 0 -147.5 24.5t-112.5 71.5q-39 39 -60.5 89t-32.5 107.5t-14.5 122t-3.5 132.5z M371 535q0 -66 6 -121.5t24.5 -97.5t54.5 -65.5t95 -23.5t95 23.5t55.5 65.5t25.5 97.5t6 121.5q0 63 -6 119.5t-25.5 97.5t-55.5 64.5t-95 23.5t-95 -23.5t-54.5 -64.5t-24.5 -97.5t-6 -119.5zM1225 0v203l473 624h-447v240h787v-203l-479 -624h479v-240h-813z" />
<glyph unicode="&#x1fa;" horiz-adv-x="1306" d="M10 0l531 1458h223l532 -1458h-297l-86 258h-518l-88 -258h-297zM381 1810q0 55 21.5 104.5t57 85.5t85 57.5t104.5 21.5t104.5 -20.5t85 -57.5t57 -86.5t21.5 -104.5t-21.5 -104t-57 -85t-85 -57.5t-104.5 -21.5t-104.5 21.5t-85 57.5t-57 85t-21.5 104zM475 498h363 l-179 530zM530 1810q0 -49 35 -84.5t84 -35.5t84 35.5t35 84.5t-35 84t-84 35t-84 -34.5t-35 -84.5zM539 2099l131 349h280l-233 -349h-178z" />
<glyph unicode="&#x1fb;" horiz-adv-x="1093" d="M74 324q0 63 22.5 119.5t67.5 98.5t114.5 66.5t163.5 24.5h248v53q0 88 -46 128t-152 40q-72 0 -117 -21.5t-88 -70.5l-168 166q78 86 164 118.5t219 32.5q455 0 454 -377v-702h-260v92q-53 -53 -111.5 -77.5t-150.5 -24.5q-178 0 -272 94q-43 45 -65.5 106.5 t-22.5 133.5zM266 1464q0 55 21.5 104.5t57.5 85.5t85 57.5t105 21.5q55 0 104 -20.5t85 -57.5t57.5 -86.5t21.5 -104.5t-21.5 -104t-57.5 -85t-85 -57.5t-104 -21.5t-104.5 21.5t-85.5 57.5t-57.5 85t-21.5 104zM330 328q0 -55 39 -88t123 -33q49 0 85.5 9t71.5 42 q23 20 32 52t9 83v58h-203q-158 0 -157 -123zM416 1464q0 -49 34.5 -85t84.5 -36q49 0 83.5 36t34.5 85t-34.5 84t-83.5 35t-84 -35t-35 -84zM424 1753l131 348h281l-233 -348h-179z" />
<glyph unicode="&#x1fc;" horiz-adv-x="2004" d="M6 0l762 1458h1128v-254h-675v-344h577v-254h-577v-352h675v-254h-958v319h-461l-166 -319h-305zM600 559h338v645zM938 1599l131 349h280l-233 -349h-178z" />
<glyph unicode="&#x1fd;" horiz-adv-x="1716" d="M74 324q0 63 22.5 119.5t67.5 98.5t114.5 66.5t163.5 24.5h248v53q0 88 -46 128t-152 40q-72 0 -117 -21.5t-88 -70.5l-168 166q78 86 164 118.5t219 32.5q242 0 350 -116q53 57 132 86.5t171 29.5q111 0 198 -37.5t146.5 -106.5t90 -164t30.5 -208v-112h-668 q0 -104 59.5 -171t174.5 -67q88 0 139 25.5t102 74.5l162 -157q-41 -41 -82 -73t-89 -53.5t-105.5 -31.5t-128.5 -10q-109 0 -206 33.5t-169 115.5q-41 -43 -79 -71.5t-82 -46t-95 -24.5t-119 -7q-176 0 -272 96q-43 45 -65.5 106.5t-22.5 133.5zM330 328q0 -55 39 -88 t123 -33q49 0 85.5 9t71.5 42q23 20 32 52t9 83v58h-203q-158 0 -157 -123zM686 1237l131 348h281l-233 -348h-179zM952 633h406q-2 35 -6 60.5t-19 54.5q-20 47 -65 78.5t-113 31.5t-113 -31.5t-65 -78.5q-14 -29 -18.5 -54.5t-6.5 -60.5z" />
<glyph unicode="&#x1fe;" horiz-adv-x="1318" d="M121 729q0 104 3 188t16.5 155t43 130.5t84.5 114.5q74 74 169 113.5t222 39.5q66 0 123.5 -11t108.5 -34l59 123h201l-109 -225l7 -6q55 -55 84.5 -114.5t44 -130.5t17.5 -155t3 -188t-3 -188t-17.5 -155t-44 -130t-84.5 -115q-74 -74 -168.5 -113.5t-221.5 -39.5 q-133 0 -231 43l-59 -121h-203l108 225l-6 6q-55 55 -84.5 114.5t-43 130.5t-16.5 155t-3 188zM406 729q0 -119 4 -190.5t14 -116.5l364 760q-57 35 -129 35q-59 0 -105 -21.5t-79 -56.5q-20 -23 -33.5 -50.5t-21.5 -72.5t-11 -114t-3 -173zM528 276q57 -35 131 -34 q59 0 105.5 22.5t77.5 57.5q20 23 33.5 50t21.5 71t12 113t4 173q0 119 -5 190.5t-15 116.5zM547 1599l131 349h280l-233 -349h-178z" />
<glyph unicode="&#x1ff;" d="M104 535q0 145 25 241t96 172q49 53 130 92t200 39q125 0 215 -45l72 123h164l-121 -205q76 -84 99.5 -179t23.5 -238q0 -145 -25 -242.5t-96 -173.5q-49 -53 -131 -92t-201 -39q-66 0 -118 12t-95 35l-74 -125h-162l121 207q-76 78 -99.5 175t-23.5 243zM371 535 q0 -49 2 -94.5t12 -82.5l270 455q-43 27 -100 27q-76 0 -123 -47q-41 -41 -51 -108t-10 -150zM444 1237l131 348h281l-233 -348h-179zM457 254q43 -27 98 -27q78 0 125 47q41 41 51 109t10 152q0 49 -3 93t-13 81z" />
<glyph unicode="&#x218;" horiz-adv-x="1210" d="M39 180l184 185q70 -70 160 -96.5t190 -26.5q129 0 195 47t66 135q0 76 -46 121q-23 20 -49 30.5t-82 18.5l-174 27q-98 14 -165.5 43.5t-116.5 76.5q-104 100 -105 287q0 98 35 179t100.5 139.5t159.5 91t213 32.5q152 0 264.5 -38.5t206.5 -131.5l-180 -178 q-68 66 -147.5 83.5t-151.5 17.5q-115 0 -169 -54.5t-54 -130.5q0 -29 9 -55.5t32 -48.5q23 -20 54.5 -34.5t78.5 -20.5l174 -27q100 -14 165.5 -41t112.5 -74q59 -53 86 -131t27 -176q0 -106 -41 -188t-113.5 -138.5t-172 -86t-214.5 -29.5q-166 0 -296 42t-236 150z M420 -422l141 299h197l-91 -299h-247z" />
<glyph unicode="&#x219;" horiz-adv-x="1026" d="M45 141l174 174q33 -33 70 -52t74.5 -30.5t73.5 -14.5t67 -3q35 0 68.5 6t60 19.5t43 34t16.5 51.5q0 41 -23.5 66.5t-88.5 31.5l-172 16q-141 14 -224.5 83t-83.5 216q0 84 34 147.5t90.5 106.5t131 64.5t156.5 21.5q127 0 228.5 -26.5t179.5 -98.5l-164 -166 q-47 41 -111.5 56.5t-136.5 15.5q-80 0 -116 -30.5t-36 -71.5t26 -63.5t85 -28.5l168 -17q160 -16 238.5 -96t78.5 -217q0 -88 -34.5 -153.5t-96 -108.5t-144.5 -64.5t-177 -21.5q-63 0 -123 5t-116 21.5t-110.5 46t-105.5 80.5zM328 -422l141 299h197l-91 -299h-247z" />
<glyph unicode="&#x21a;" horiz-adv-x="1169" d="M61 1204v254h1047v-254h-381v-1204h-285v1204h-381zM344 -422l141 299h197l-91 -299h-247z" />
<glyph unicode="&#x21b;" horiz-adv-x="720" d="M61 834v202h113v316h266v-316h189v-202h-189v-512q0 -96 92 -97h97v-225h-146q-82 0 -140 26.5t-96 69.5t-55.5 97.5t-17.5 111.5v529h-113zM176 -422l141 299h197l-91 -299h-247z" />
<glyph unicode="&#x237;" horiz-adv-x="563" d="M-47 -174h102q51 0 73 24.5t22 71.5v1114h266v-1130q0 -57 -17.5 -111.5t-55.5 -97.5t-97.5 -69.5t-141.5 -26.5h-151v225z" />
<glyph unicode="&#x259;" horiz-adv-x="1122" d="M96 504v112h668q0 104 -59.5 171t-174.5 67q-88 0 -139 -25.5t-102 -74.5l-162 157q41 41 82 73t89 53.5t105.5 31.5t128.5 10q94 0 183.5 -24.5t158 -87t110.5 -168t42 -267.5q0 -131 -34 -232t-95 -171t-146 -105.5t-190 -35.5q-111 0 -198 37.5t-146 106.5t-90 163 t-31 209zM358 434q2 -35 6.5 -60.5t18.5 -54.5q23 -47 67 -78.5t111 -31.5q68 0 112 31.5t66 78.5q14 29 18.5 54.5t6.5 60.5h-406z" />
<glyph unicode="&#x2bb;" horiz-adv-x="559" d="M139 1206v252l279 215v-467h-279z" />
<glyph unicode="&#x2bc;" horiz-adv-x="559" d="M139 993v465h279v-254z" />
<glyph unicode="&#x2c6;" horiz-adv-x="1024" d="M137 1237l271 346h213l270 -346h-207l-170 186l-170 -186h-207z" />
<glyph unicode="&#x2c7;" horiz-adv-x="1024" d="M135 1583h207l170 -184l170 184h206l-270 -346h-213z" />
<glyph unicode="&#x2d8;" horiz-adv-x="1024" d="M176 1532h178q8 -66 53.5 -94.5t104.5 -28.5t104.5 28.5t53.5 94.5h178q-4 -84 -32 -142.5t-74 -95.5t-105 -54t-125 -17t-125 17t-105 54t-75 95.5t-31 142.5z" />
<glyph unicode="&#x2d9;" horiz-adv-x="1024" d="M393 1255v236h236v-236h-236z" />
<glyph unicode="&#x2da;" horiz-adv-x="1024" d="M244 1464q0 55 21.5 104.5t57 85.5t85 57.5t104.5 21.5t104.5 -20.5t85 -57.5t57 -86.5t21.5 -104.5t-21.5 -104t-57 -85t-85 -57.5t-104.5 -21.5t-104.5 21.5t-85 57.5t-57 85t-21.5 104zM393 1464q0 -49 35 -85t84 -36t84 36t35 85t-35 84t-84 35t-84 -35t-35 -84z" />
<glyph unicode="&#x2db;" horiz-adv-x="1024" d="M496 -422l141 299h197l-91 -299h-247z" />
<glyph unicode="&#x2dc;" horiz-adv-x="1024" d="M176 1397q68 68 119 93.5t111 25.5q47 0 80.5 -9.5t78.5 -36.5q29 -18 55.5 -28t57.5 -10q27 0 52.5 9t66.5 50l118 -117q-68 -68 -120 -93.5t-111 -25.5q-45 0 -80 10.5t-78 34.5q-29 16 -56.5 26.5t-57.5 10.5q-27 0 -52.5 -8t-66.5 -49z" />
<glyph unicode="&#x2dd;" horiz-adv-x="1024" d="M121 1237l131 348h280l-231 -348h-180zM535 1237l129 348h282l-235 -348h-176z" />
<glyph unicode="&#x37e;" horiz-adv-x="632" d="M190 555v303h304v-303h-304zM197 291h290v-404l-290 -225v629z" />
<glyph unicode="&#x384;" horiz-adv-x="737" d="M258 1174v323h238v-223z" />
<glyph unicode="&#x385;" horiz-adv-x="985" d="M55 1208v256h228v-256h-228zM381 1208v324h235v-223zM702 1208v256h228v-256h-228z" />
<glyph unicode="&#x386;" horiz-adv-x="1306" d="M-51 1137v323h238v-223zM10 0l531 1458h223l532 -1458h-297l-86 258h-518l-88 -258h-297zM475 498h363l-179 530z" />
<glyph unicode="&#x387;" horiz-adv-x="583" d="M139 434v303h305v-303h-305z" />
<glyph unicode="&#x388;" horiz-adv-x="1239" d="M-215 1137v323h238v-223zM170 0v1458h960v-254h-675v-342h575v-254h-575v-354h675v-254h-960z" />
<glyph unicode="&#x389;" horiz-adv-x="1402" d="M-215 1137v323h238v-223zM170 0v1458h285v-596h493v596h285v-1458h-285v610h-493v-610h-285z" />
<glyph unicode="&#x38a;" horiz-adv-x="624" d="M-215 1137v323h238v-223zM170 0v1458h285v-1458h-285z" />
<glyph unicode="&#x38c;" horiz-adv-x="1318" d="M-174 1137v323h238v-223zM121 729q0 104 3 188t16.5 155t43 130.5t84.5 114.5q74 74 169 113.5t222 39.5t221.5 -39.5t168.5 -113.5q55 -55 84.5 -114.5t44 -130.5t17.5 -155t3 -188t-3 -188t-17.5 -155t-44 -130t-84.5 -115q-74 -74 -168.5 -113.5t-221.5 -39.5t-222 40 t-169 113q-55 55 -84.5 114.5t-43 130.5t-16.5 155t-3 188zM406 729q0 -104 3 -173t11 -113t21.5 -71.5t33.5 -49.5q33 -35 79 -57.5t105 -22.5t105.5 22.5t77.5 57.5q20 23 33.5 50t21.5 71t12 113t4 173t-4 173t-12 114t-21.5 72.5t-33.5 50.5q-31 35 -77 56.5t-106 21.5 q-59 0 -105 -21.5t-79 -56.5q-20 -23 -33.5 -50.5t-21.5 -72.5t-11 -113.5t-3 -173.5z" />
<glyph unicode="&#x38e;" horiz-adv-x="1171" d="M-297 1137v323h238v-223zM6 1458h309l273 -588l268 588h309l-438 -860v-598h-283v598z" />
<glyph unicode="&#x38f;" horiz-adv-x="1318" d="M-174 1137v323h238v-223zM121 0v254h121q-29 27 -46.5 54.5t-29.5 56.5q-29 72 -37 161.5t-8 202.5q0 104 3 188t16.5 155t43 130.5t84.5 114.5q76 74 170 113.5t221 39.5t221.5 -39.5t168.5 -113.5q55 -55 84.5 -114.5t44 -130.5t17.5 -155t3 -188q0 -113 -9 -203 t-38 -161q-12 -29 -29.5 -56.5t-44.5 -54.5h121v-254h-448v225q35 16 62.5 38t45.5 50q14 20 24.5 50t17.5 77t10 114t3 161q0 104 -3 175t-11 118t-22.5 76.5t-34.5 52.5q-31 35 -77 57.5t-106 22.5q-59 0 -105 -23t-79 -57q-20 -23 -33.5 -52.5t-21.5 -76.5t-11 -118 t-3 -175q0 -94 3 -161t9 -114t16 -76.5t25 -50.5q37 -55 110 -88v-225h-448z" />
<glyph unicode="&#x390;" horiz-adv-x="665" d="M-148 1208v256h228v-256h-228zM139 305v762h267v-745q0 -47 21.5 -72t72.5 -25h102v-225h-151q-82 0 -141.5 26.5t-97.5 69.5t-55.5 97.5t-17.5 111.5zM178 1208v324h235v-223zM499 1208v256h228v-256h-228z" />
<glyph unicode="&#x391;" horiz-adv-x="1306" d="M10 0l531 1458h223l532 -1458h-297l-86 258h-518l-88 -258h-297zM475 498h363l-179 530z" />
<glyph unicode="&#x392;" horiz-adv-x="1347" d="M170 0v1458h586q102 0 186 -28.5t142.5 -81t90 -126t31.5 -165.5q0 -209 -180 -309q43 -23 65.5 -39.5t45.5 -38.5q47 -51 68.5 -112.5t21.5 -139.5q0 -96 -31 -173t-89 -131.5t-141 -84t-186 -29.5h-610zM455 254h297q88 0 139 48t51 132t-51 131t-139 47h-297v-358z M455 868h278q88 0 138.5 45t50.5 123t-50.5 123t-138.5 45h-278v-336z" />
<glyph unicode="&#x393;" horiz-adv-x="1163" d="M170 0v1458h934v-254h-649v-1204h-285z" />
<glyph unicode="&#x394;" horiz-adv-x="1298" d="M6 0l533 1458h221l532 -1458h-1286zM381 240h541l-267 788z" />
<glyph unicode="&#x395;" horiz-adv-x="1239" d="M170 0v1458h960v-254h-675v-342h575v-254h-575v-354h675v-254h-960z" />
<glyph unicode="&#x396;" horiz-adv-x="1122" d="M82 0v229l623 975h-596v254h931v-225l-624 -979h624v-254h-958z" />
<glyph unicode="&#x397;" horiz-adv-x="1402" d="M170 0v1458h285v-596h493v596h285v-1458h-285v610h-493v-610h-285z" />
<glyph unicode="&#x398;" horiz-adv-x="1318" d="M121 729q0 104 3 188t16.5 155t43 130.5t84.5 114.5q76 74 170 113.5t221 39.5t221.5 -39.5t168.5 -113.5q55 -55 84.5 -114.5t44 -130.5t17.5 -155t3 -188t-3 -188t-17.5 -155t-44 -130t-84.5 -115q-74 -74 -168.5 -113.5t-221.5 -39.5t-221 40t-170 113 q-55 55 -84.5 114.5t-43 130.5t-16.5 155t-3 188zM406 614q2 -70 7 -116.5t13 -79.5t20.5 -55.5t28.5 -40.5q33 -35 79 -57.5t105 -22.5t105.5 22.5t77.5 57.5q18 18 30.5 40.5t20.5 55.5t12 80t6 116h-505zM408 858h503q-2 63 -7 108.5t-13 77t-20.5 54t-28.5 41.5 q-31 35 -77 56.5t-106 21.5q-59 0 -105 -21.5t-79 -56.5q-16 -18 -28.5 -41t-20.5 -54.5t-12 -76.5t-6 -109z" />
<glyph unicode="&#x399;" horiz-adv-x="624" d="M170 0v1458h285v-1458h-285z" />
<glyph unicode="&#x39a;" horiz-adv-x="1361" d="M170 0v1458h285v-635l514 635h346l-484 -579l519 -879h-332l-375 664l-188 -226v-438h-285z" />
<glyph unicode="&#x39b;" horiz-adv-x="1251" d="M16 0l492 1458h233l494 -1458h-297l-305 1020l-320 -1020h-297z" />
<glyph unicode="&#x39c;" horiz-adv-x="1660" d="M170 0v1458h281l380 -788l379 788h281v-1458h-285v850l-278 -553h-193l-280 553v-850h-285z" />
<glyph unicode="&#x39d;" horiz-adv-x="1456" d="M170 0v1458h254l577 -893v893h285v-1458h-254l-577 895v-895h-285z" />
<glyph unicode="&#x39e;" horiz-adv-x="1222" d="M109 0v254h360v354h-262v254h262v342h-360v254h1005v-254h-360v-342h262v-254h-262v-354h360v-254h-1005z" />
<glyph unicode="&#x39f;" horiz-adv-x="1318" d="M121 729q0 104 3 188t16.5 155t43 130.5t84.5 114.5q74 74 169 113.5t222 39.5t221.5 -39.5t168.5 -113.5q55 -55 84.5 -114.5t44 -130.5t17.5 -155t3 -188t-3 -188t-17.5 -155t-44 -130t-84.5 -115q-74 -74 -168.5 -113.5t-221.5 -39.5t-222 40t-169 113 q-55 55 -84.5 114.5t-43 130.5t-16.5 155t-3 188zM406 729q0 -104 3 -173t11 -113t21.5 -71.5t33.5 -49.5q33 -35 79 -57.5t105 -22.5t105.5 22.5t77.5 57.5q20 23 33.5 50t21.5 71t12 113t4 173t-4 173t-12 114t-21.5 72.5t-33.5 50.5q-31 35 -77 56.5t-106 21.5 q-59 0 -105 -21.5t-79 -56.5q-20 -23 -33.5 -50.5t-21.5 -72.5t-11 -113.5t-3 -173.5z" />
<glyph unicode="&#x3a0;" horiz-adv-x="1396" d="M170 0v1458h1057v-1458h-285v1204h-487v-1204h-285z" />
<glyph unicode="&#x3a1;" horiz-adv-x="1286" d="M170 0v1458h565q113 0 203 -36t151.5 -98t94.5 -145t33 -175t-33 -175.5t-94.5 -145.5t-151.5 -98t-203 -36h-280v-549h-285zM455 805h266q98 0 154.5 54.5t56.5 144.5t-56.5 145t-154.5 55h-266v-399z" />
<glyph unicode="&#x3a3;" horiz-adv-x="1120" d="M82 0v227l330 539l-297 475v217h932v-254h-588l268 -434l-311 -516h624v-254h-958z" />
<glyph unicode="&#x3a4;" horiz-adv-x="1169" d="M61 1204v254h1047v-254h-381v-1204h-285v1204h-381z" />
<glyph unicode="&#x3a5;" horiz-adv-x="1171" d="M6 1458h309l273 -588l268 588h309l-438 -860v-598h-283v598z" />
<glyph unicode="&#x3a6;" horiz-adv-x="1591" d="M98 735q0 63 5.5 125t20.5 120t44 112.5t76 101.5q90 90 187 125t222 35v104h285v-104q125 0 222 -35t188 -125q47 -47 75.5 -101.5t44 -112.5t20.5 -120t5 -125t-5 -124.5t-20.5 -120t-44 -112.5t-75.5 -102q-90 -90 -187.5 -124.5t-222.5 -34.5v-117h-285v117 q-125 0 -222 34.5t-187 124.5q-47 47 -76 101.5t-44 113t-20.5 120t-5.5 124.5zM383 735q0 -80 10 -152.5t58 -129.5q39 -45 89 -63.5t113 -18.5v729q-63 0 -113.5 -19.5t-88.5 -64.5q-47 -57 -57.5 -129t-10.5 -152zM938 371q63 0 113.5 18.5t89.5 63.5q47 57 57 129.5 t10 152.5t-10 151.5t-57 129.5q-39 45 -89.5 64.5t-113.5 19.5v-729z" />
<glyph unicode="&#x3a7;" horiz-adv-x="1234" d="M10 0l453 748l-424 710h323l254 -471l256 471h322l-424 -710l455 -748h-326l-283 508l-280 -508h-326z" />
<glyph unicode="&#x3a8;" horiz-adv-x="1525" d="M102 743v715h283v-715q0 -59 16.5 -96t44.5 -67q33 -35 79 -55.5t96 -22.5v956h284v-956q49 2 95.5 22.5t78.5 55.5q29 31 45.5 67.5t16.5 95.5v715h282v-715q0 -102 -30.5 -183t-102.5 -152q-76 -76 -170 -117t-215 -43v-248h-284v248q-121 2 -215.5 43t-169.5 117 q-72 72 -103 152.5t-31 182.5z" />
<glyph unicode="&#x3a9;" horiz-adv-x="1318" d="M121 0v254h121q-29 27 -46.5 54.5t-29.5 56.5q-29 72 -37 161.5t-8 202.5q0 104 3 188t16.5 155t43 130.5t84.5 114.5q76 74 170 113.5t221 39.5t221.5 -39.5t168.5 -113.5q55 -55 84.5 -114.5t44 -130.5t17.5 -155t3 -188q0 -113 -9 -203t-38 -161q-12 -29 -29.5 -56.5 t-44.5 -54.5h121v-254h-448v225q35 16 62.5 38t45.5 50q14 20 24.5 50t17.5 77t10 114t3 161q0 104 -3 175t-11 118t-22.5 76.5t-34.5 52.5q-31 35 -77 57.5t-106 22.5q-59 0 -105 -23t-79 -57q-20 -23 -33.5 -52.5t-21.5 -76.5t-11 -118t-3 -175q0 -94 3 -161t9 -114 t16 -76.5t25 -50.5q37 -55 110 -88v-225h-448z" />
<glyph unicode="&#x3aa;" horiz-adv-x="624" d="M-31 1604v256h228v-256h-228zM170 0v1458h285v-1458h-285zM422 1604v256h227v-256h-227z" />
<glyph unicode="&#x3ab;" horiz-adv-x="1171" d="M6 1458h309l273 -588l268 588h309l-438 -860v-598h-283v598zM245 1604v256h228v-256h-228zM698 1604v256h227v-256h-227z" />
<glyph unicode="&#x3ac;" horiz-adv-x="1148" d="M104 535q0 59 2.5 121.5t12.5 122t31.5 111.5t62.5 93q45 45 113.5 70.5t146.5 25.5q86 0 148.5 -25.5t115.5 -84.5v98h262v-1067h-260v100q-55 -61 -116.5 -86.5t-147.5 -25.5q-78 0 -147.5 25.5t-114.5 70.5q-41 39 -62.5 92t-31.5 112.5t-12.5 123t-2.5 123.5z M371 535q0 -66 6 -121.5t25.5 -97.5t55.5 -65.5t95 -23.5t95 23.5t54.5 65.5t24.5 97.5t6 121.5q0 63 -6 119.5t-24.5 97.5t-54.5 64.5t-95 23.5t-95 -23.5t-55.5 -64.5t-25.5 -97.5t-6 -119.5zM463 1174v323h238v-223z" />
<glyph unicode="&#x3ad;" horiz-adv-x="1044" d="M92 309q0 53 15.5 94t39 70t51 48.5t52.5 31.5q-20 10 -43 28.5t-42.5 46t-31.5 63.5t-12 81q0 72 34.5 129t92 97t133.5 60.5t160 20.5q61 0 112.5 -6t98.5 -23.5t95 -46t103 -71.5l-149 -180q-66 53 -120 79.5t-128 26.5t-121 -30.5t-47 -84.5q0 -43 37 -71.5t96 -28.5 h201v-203h-203q-45 0 -74.5 -10t-47 -25.5t-25 -34t-7.5 -34.5q0 -53 54.5 -87t134.5 -34q86 0 150.5 29.5t129.5 89.5l173 -160q-57 -55 -110.5 -90t-110 -56.5t-118 -29.5t-137.5 -8q-80 0 -158.5 17.5t-140 56t-99.5 99t-38 146.5zM442 1174v323h238v-223z" />
<glyph unicode="&#x3ae;" horiz-adv-x="1173" d="M150 0v1067h260v-98q53 55 122.5 82.5t143.5 27.5q80 0 143.5 -24.5t108.5 -69.5q66 -66 87 -140.5t21 -162.5v-682h-266v645q0 55 -15.5 92t-41 59.5t-57 33t-62.5 10.5t-62.5 -10.5t-57 -33t-42 -59.5t-16.5 -92v-645h-266zM483 1174v323h238v-223z" />
<glyph unicode="&#x3af;" horiz-adv-x="665" d="M139 305v762h267v-745q0 -47 21.5 -72t72.5 -25h102v-225h-151q-82 0 -141.5 26.5t-97.5 69.5t-55.5 97.5t-17.5 111.5zM162 1174v323h238v-223z" />
<glyph unicode="&#x3b0;" horiz-adv-x="1116" d="M115 492v575h266v-643q0 -55 15.5 -93t41 -61.5t57 -33t62.5 -9.5q33 0 64.5 9.5t57.5 33t41 61.5t15 93v643h266v-575q0 -139 -24.5 -224.5t-87.5 -152.5q-49 -51 -130 -89t-202 -38q-119 0 -200 37.5t-130 89.5q-63 68 -87.5 152.5t-24.5 224.5zM121 1208v256h228v-256 h-228zM447 1208v324h235v-223zM768 1208v256h228v-256h-228z" />
<glyph unicode="&#x3b1;" horiz-adv-x="1148" d="M104 535q0 59 2.5 121.5t12.5 122t31.5 111.5t62.5 93q45 45 113.5 70.5t146.5 25.5q86 0 148.5 -25.5t115.5 -84.5v98h262v-1067h-260v100q-55 -61 -116.5 -86.5t-147.5 -25.5q-78 0 -147.5 25.5t-114.5 70.5q-41 39 -62.5 92t-31.5 112.5t-12.5 123t-2.5 123.5z M371 535q0 -66 6 -121.5t25.5 -97.5t55.5 -65.5t95 -23.5t95 23.5t54.5 65.5t24.5 97.5t6 121.5q0 63 -6 119.5t-24.5 97.5t-54.5 64.5t-95 23.5t-95 -23.5t-55.5 -64.5t-25.5 -97.5t-6 -119.5z" />
<glyph unicode="&#x3b2;" horiz-adv-x="1185" d="M150 0v1065q0 96 34.5 171t95 125t143.5 76.5t179 26.5q94 0 174 -23.5t138.5 -70.5t91 -115.5t32.5 -158.5q0 -59 -14 -114.5t-45 -96.5q-47 -59 -107 -84q35 -12 69 -32.5t60 -49.5q43 -49 64.5 -115t21.5 -158q0 -90 -27.5 -185t-90.5 -161q-49 -49 -121 -80.5 t-166 -31.5q-102 0 -170 35.5t-104 76.5v-100h-258zM418 432q0 -92 53 -149.5t137 -57.5q90 0 142 43q41 35 57 90.5t16 108.5q0 86 -26.5 126t-63.5 56q-31 14 -64.5 20.5t-82.5 6.5h-105v211h125q55 0 90 17.5t54.5 44t26.5 58t7 60.5q0 41 -13 71.5t-30 49.5 q-47 51 -133 51q-104 0 -147 -55.5t-43 -147.5v-604z" />
<glyph unicode="&#x3b3;" horiz-adv-x="1011" d="M8 1067h283l217 -696l213 696h283l-367 -1036v-422h-264v422z" />
<glyph unicode="&#x3b4;" horiz-adv-x="1099" d="M104 524q0 137 30 237.5t104 170.5q41 39 97 63.5t120 24.5q16 0 34.5 -1t36.5 -7l-301 248v198h705v-207h-369l225 -188q123 -104 166 -234t43 -286q0 -141 -23.5 -239.5t-86.5 -174.5q-49 -59 -131 -100t-209 -41q-119 0 -199 39t-129 98q-61 72 -87 168t-26 231z M371 524q0 -82 13 -152.5t60 -109.5q39 -33 105 -33q68 0 104 31q47 37 59.5 107.5t12.5 156.5t-13.5 153.5t-54.5 104.5q-39 33 -102 33q-35 0 -59.5 -8t-44.5 -23q-49 -35 -64.5 -104.5t-15.5 -155.5z" />
<glyph unicode="&#x3b5;" horiz-adv-x="1044" d="M92 309q0 53 15.5 94t39 70t51 48.5t52.5 31.5q-20 10 -43 28.5t-42.5 46t-31.5 63.5t-12 81q0 72 34.5 129t92 97t133.5 60.5t160 20.5q61 0 112.5 -6t98.5 -23.5t95 -46t103 -71.5l-149 -180q-66 53 -120 79.5t-128 26.5t-121 -30.5t-47 -84.5q0 -43 37 -71.5t96 -28.5 h201v-203h-203q-45 0 -74.5 -10t-47 -25.5t-25 -34t-7.5 -34.5q0 -53 54.5 -87t134.5 -34q86 0 150.5 29.5t129.5 89.5l173 -160q-57 -55 -110.5 -90t-110 -56.5t-118 -29.5t-137.5 -8q-80 0 -158.5 17.5t-140 56t-99.5 99t-38 146.5z" />
<glyph unicode="&#x3b6;" horiz-adv-x="1024" d="M88 330q0 88 33 161.5t87 135t124.5 110.5t146.5 90h-323v240h786v-240h-39q-74 -33 -167 -82t-174 -109.5t-136 -131t-55 -146.5q0 -70 50 -95t150 -25h60q72 0 133 -14.5t106 -47.5t71 -86t26 -129q0 -29 -11.5 -79t-49.5 -99t-110.5 -85t-195.5 -36v207q53 0 85 16.5 t32 67.5q0 37 -33 45t-68 8h-90q-217 0 -327.5 79t-110.5 245z" />
<glyph unicode="&#x3b7;" horiz-adv-x="1173" d="M150 0v1067h260v-98q53 55 122.5 82.5t143.5 27.5q80 0 143.5 -24.5t108.5 -69.5q66 -66 87 -140.5t21 -162.5v-682h-266v645q0 55 -15.5 92t-41 59.5t-57 33t-62.5 10.5t-62.5 -10.5t-57 -33t-42 -59.5t-16.5 -92v-645h-266z" />
<glyph unicode="&#x3b8;" horiz-adv-x="1177" d="M127 729q0 84 2 168t14.5 162t38 147.5t74.5 122.5q66 72 145.5 106.5t188.5 34.5q106 0 186 -34.5t146 -106.5q49 -53 74.5 -122.5t38 -147.5t14.5 -162t2 -168t-2 -168t-14.5 -161.5t-38 -147.5t-74.5 -123q-66 -74 -146 -107.5t-186 -33.5q-109 0 -188.5 33.5 t-145.5 107.5q-49 53 -74.5 123t-38 147.5t-14.5 161.5t-2 168zM395 637q0 -137 11.5 -220t44.5 -122q25 -31 58.5 -49.5t80.5 -18.5t79.5 18.5t57.5 49.5q33 39 44 122t11 220h-387zM395 860h387q0 106 -11 185t-44 118q-25 31 -57.5 49.5t-79.5 18.5t-81 -18.5t-58 -49.5 q-33 -39 -44.5 -117.5t-11.5 -185.5z" />
<glyph unicode="&#x3b9;" horiz-adv-x="665" d="M139 305v762h267v-745q0 -47 21.5 -72t72.5 -25h102v-225h-151q-82 0 -141.5 26.5t-97.5 69.5t-55.5 97.5t-17.5 111.5z" />
<glyph unicode="&#x3ba;" horiz-adv-x="1146" d="M147 0v1067h269v-436l354 436h322l-381 -430l411 -637h-331l-263 444l-112 -127v-317h-269z" />
<glyph unicode="&#x3bb;" horiz-adv-x="1052" d="M16 0l385 995l-43 152q-14 49 -44.5 67.5t-71.5 18.5h-66v235h98q68 0 126.5 -18t105.5 -66q47 -47 78 -135l311 -938q12 -39 36.5 -62.5t61.5 -23.5h76v-225h-111q-135 0 -203.5 72.5t-103.5 187.5l-123 395l-231 -655h-281z" />
<glyph unicode="&#x3bc;" horiz-adv-x="1179" d="M143 -391v1458h267v-645q0 -55 15 -92t41 -59.5t57.5 -33t62.5 -10.5t62.5 10.5t57 33t42 59.5t16.5 92v645h266v-1067h-260v98q-53 -55 -122.5 -82.5t-143.5 -27.5q-55 0 -94 28v-407h-267z" />
<glyph unicode="&#x3bd;" horiz-adv-x="1011" d="M8 1067h281l217 -659l215 659h280l-391 -1067h-209z" />
<glyph unicode="&#x3be;" horiz-adv-x="1042" d="M88 401q0 147 71.5 241.5t178.5 133.5q-86 29 -140.5 105.5t-54.5 181.5q0 96 34 172t94.5 129t141.5 82t175 29q123 0 232.5 -45.5t197.5 -143.5l-148 -172q-59 66 -126.5 101.5t-147.5 35.5q-90 0 -142.5 -51t-52.5 -143q0 -86 51.5 -131t139.5 -45h246v-224h-226 q-23 0 -63.5 -7t-81.5 -29.5t-71.5 -66.5t-30.5 -120q0 -102 61 -149t149 -47h91q143 0 230 -66t87 -211q0 -29 -11 -79t-49 -99t-111 -85t-196 -36v207q53 0 85 16.5t32 67.5q0 35 -27.5 44t-80.5 9h-90q-207 0 -327 101.5t-120 293.5z" />
<glyph unicode="&#x3bf;" d="M104 535q0 145 25 240t96 173q51 53 131 92t199 39t200 -39t132 -92q72 -78 96.5 -173t24.5 -240t-23.5 -242.5t-97.5 -173.5q-51 -53 -132 -92t-200 -39t-199 39t-131 92q-72 78 -96.5 174t-24.5 242zM371 535q0 -84 10 -152t51 -109q47 -47 123 -47q78 0 125 47 q41 41 51 109t10 152q0 82 -10 149.5t-51 108.5q-47 47 -125 47q-76 0 -123 -47q-41 -41 -51 -109t-10 -149z" />
<glyph unicode="&#x3c0;" horiz-adv-x="1183" d="M147 0v1067h900v-1067h-265v817h-368v-817h-267z" />
<glyph unicode="&#x3c1;" horiz-adv-x="1097" d="M104 -391v923q0 88 7.5 150.5t20.5 108t31.5 77t41.5 58.5q18 23 48 49t71 50t94 39t123 15q123 0 204.5 -40t128.5 -91q39 -41 63 -84t36 -93t16 -108.5t4 -132.5q0 -117 -22.5 -225t-100.5 -192q-47 -51 -117.5 -88t-172.5 -37q-66 0 -117 28.5t-92 65.5v-473h-267z M371 535q0 -66 4 -123.5t26 -98.5q23 -41 54.5 -61.5t91.5 -20.5q57 0 93 25t55.5 65.5t25.5 96t6 114.5q0 92 -8 144.5t-31 91.5q-20 31 -57 50.5t-86 19.5t-81 -18.5t-52 -49.5q-25 -39 -33 -90t-8 -145z" />
<glyph unicode="&#x3c2;" horiz-adv-x="983" d="M96 535q0 162 45 267t115 166.5t155 86t164 24.5q111 0 195 -34.5t156 -108.5l-183 -180q-41 45 -77.5 64.5t-90.5 19.5q-96 0 -153 -70t-57 -235q0 -260 237 -285q137 -16 218 -84t81 -205q0 -29 -11 -79t-49 -99t-111 -85t-195 -36v207q53 0 84.5 16.5t31.5 67.5 q0 41 -39 54t-92 18q-88 6 -164.5 37.5t-134 93t-91.5 154.5t-34 225z" />
<glyph unicode="&#x3c3;" horiz-adv-x="1161" d="M104 535q0 143 25 238t96 171q51 53 130 88t198 35h514v-227h-170q25 -20 46.5 -54t35.5 -75t22.5 -87t8.5 -89q0 -145 -26 -242.5t-97 -173.5q-51 -53 -131 -92t-199 -39t-198.5 39t-131.5 92q-72 76 -97.5 173t-25.5 243zM371 535q0 -82 10 -151t51 -110 q47 -47 125 -47t125 47q41 41 51 110t10 151t-11 153.5t-52 112.5q-45 45 -125 45q-41 0 -70.5 -13.5t-52.5 -35.5q-41 -41 -51 -111t-10 -151z" />
<glyph unicode="&#x3c4;" horiz-adv-x="829" d="M45 827v240h739v-240h-235v-827h-268v827h-236z" />
<glyph unicode="&#x3c5;" horiz-adv-x="1116" d="M115 492v575h266v-643q0 -55 15.5 -93t41 -61.5t57 -33t62.5 -9.5q33 0 64.5 9.5t57.5 33t41 61.5t15 93v643h266v-575q0 -139 -24.5 -224.5t-87.5 -152.5q-49 -51 -130 -89t-202 -38q-119 0 -200 37.5t-130 89.5q-63 68 -87.5 152.5t-24.5 224.5z" />
<glyph unicode="&#x3c6;" horiz-adv-x="1431" d="M104 535q0 176 74 312t250 224l94 -197q-92 -59 -120.5 -150t-28.5 -198q0 -55 8 -108t31.5 -95t65.5 -70t108 -32v846h235q272 0 389 -129t117 -399q0 -119 -25.5 -219.5t-82 -173t-146.5 -114.5t-221 -44v-379h-266v379q-129 6 -221.5 50t-149.5 117.5t-84 171 t-27 208.5zM852 221q68 2 108.5 26.5t62 66.5t29 100.5t7.5 128.5q0 63 -7.5 117.5t-29 94.5t-62 61.5t-108.5 21.5v-617z" />
<glyph unicode="&#x3c7;" horiz-adv-x="1079" d="M25 0l368 545l-354 522h319l181 -305l182 305h319l-354 -522l369 -545h-320l-196 319l-195 -319h-319z" />
<glyph unicode="&#x3c8;" horiz-adv-x="1433" d="M119 535v532h268v-582q0 -117 46 -187.5t151 -70.5v840h268v-840q106 0 150.5 69t44.5 189v582h268v-532q0 -145 -24.5 -243.5t-90.5 -170.5q-51 -57 -136 -92t-212 -35v-385h-268v385q-127 0 -212 34.5t-136 92.5q-66 72 -91.5 170t-25.5 244z" />
<glyph unicode="&#x3c9;" horiz-adv-x="1554" d="M104 535q0 129 25 232t90 175q45 49 124 93t206 44v-241q-43 0 -75 -17.5t-52 -42.5q-31 -37 -41 -89t-10 -154q0 -66 7 -133.5t38 -114.5q16 -25 40.5 -41.5t59.5 -16.5q45 0 72.5 31t40.5 74q10 35 12 68.5t2 62.5v291h266v-291q0 -29 1 -63.5t12 -67.5 q12 -45 39.5 -75t74.5 -30q35 0 59.5 16.5t41.5 41.5q31 47 38 114.5t7 133.5q0 102 -9.5 154t-39.5 89q-20 25 -53 42.5t-76 17.5v241q63 0 114 -12t91 -31.5t71 -44t53 -49.5q66 -72 91.5 -175t25.5 -232q0 -125 -17.5 -218.5t-70.5 -171.5q-47 -66 -123 -111.5 t-186 -45.5q-113 0 -174.5 42t-102.5 103q-41 -61 -102.5 -103t-173.5 -42q-111 0 -185.5 46t-121.5 111q-53 78 -71 171.5t-18 218.5z" />
<glyph unicode="&#x3ca;" horiz-adv-x="665" d="M-55 1241v256h227v-256h-227zM139 305v762h267v-745q0 -47 21.5 -72t72.5 -25h102v-225h-151q-82 0 -141.5 26.5t-97.5 69.5t-55.5 97.5t-17.5 111.5zM398 1241v256h227v-256h-227z" />
<glyph unicode="&#x3cb;" horiz-adv-x="1116" d="M115 492v575h266v-643q0 -55 15.5 -93t41 -61.5t57 -33t62.5 -9.5q33 0 64.5 9.5t57.5 33t41 61.5t15 93v643h266v-575q0 -139 -24.5 -224.5t-87.5 -152.5q-49 -51 -130 -89t-202 -38q-119 0 -200 37.5t-130 89.5q-63 68 -87.5 152.5t-24.5 224.5zM227 1241v256h227v-256 h-227zM680 1241v256h227v-256h-227z" />
<glyph unicode="&#x3cc;" d="M104 535q0 145 25 240t96 173q51 53 131 92t199 39t200 -39t132 -92q72 -78 96.5 -173t24.5 -240t-23.5 -242.5t-97.5 -173.5q-51 -53 -132 -92t-200 -39t-199 39t-131 92q-72 78 -96.5 174t-24.5 242zM371 535q0 -84 10 -152t51 -109q47 -47 123 -47q78 0 125 47 q41 41 51 109t10 152q0 82 -10 149.5t-51 108.5q-47 47 -125 47q-76 0 -123 -47q-41 -41 -51 -109t-10 -149zM442 1174v323h238v-223z" />
<glyph unicode="&#x3cd;" horiz-adv-x="1116" d="M115 492v575h266v-643q0 -55 15.5 -93t41 -61.5t57 -33t62.5 -9.5q33 0 64.5 9.5t57.5 33t41 61.5t15 93v643h266v-575q0 -139 -24.5 -224.5t-87.5 -152.5q-49 -51 -130 -89t-202 -38q-119 0 -200 37.5t-130 89.5q-63 68 -87.5 152.5t-24.5 224.5zM442 1174v323h238v-223 z" />
<glyph unicode="&#x3ce;" horiz-adv-x="1554" d="M104 535q0 129 25 232t90 175q45 49 124 93t206 44v-241q-43 0 -75 -17.5t-52 -42.5q-31 -37 -41 -89t-10 -154q0 -66 7 -133.5t38 -114.5q16 -25 40.5 -41.5t59.5 -16.5q45 0 72.5 31t40.5 74q10 35 12 68.5t2 62.5v291h266v-291q0 -29 1 -63.5t12 -67.5 q12 -45 39.5 -75t74.5 -30q35 0 59.5 16.5t41.5 41.5q31 47 38 114.5t7 133.5q0 102 -9.5 154t-39.5 89q-20 25 -53 42.5t-76 17.5v241q63 0 114 -12t91 -31.5t71 -44t53 -49.5q66 -72 91.5 -175t25.5 -232q0 -125 -17.5 -218.5t-70.5 -171.5q-47 -66 -123 -111.5 t-186 -45.5q-113 0 -174.5 42t-102.5 103q-41 -61 -102.5 -103t-173.5 -42q-111 0 -185.5 46t-121.5 111q-53 78 -71 171.5t-18 218.5zM664 1174v323h238v-223z" />
<glyph unicode="&#x3d0;" horiz-adv-x="1185" d="M150 -391v1458q0 96 34.5 171t95 125t143.5 75.5t179 25.5q94 0 174 -23.5t138.5 -70.5t91 -115.5t32.5 -158.5q0 -59 -14 -114.5t-45 -96.5q-47 -59 -107 -84q35 -12 69 -32.5t60 -49.5q43 -49 64.5 -115t21.5 -158q0 -90 -27.5 -185t-90.5 -161q-49 -49 -121 -80.5 t-166 -31.5q-102 0 -165.5 32.5t-100.5 73.5v-485h-266zM416 432q0 -92 54 -149.5t138 -57.5q90 0 142 43q41 35 57 90.5t16 108.5q0 86 -26.5 126t-63.5 56q-31 14 -64.5 20.5t-82.5 6.5h-105v211h125q55 0 90 17.5t54.5 44t26.5 58t7 60.5q0 41 -13 71.5t-30 49.5 q-47 51 -133 51q-104 0 -148 -55.5t-44 -147.5v-604z" />
<glyph unicode="&#x400;" horiz-adv-x="1239" d="M170 0v1458h960v-254h-675v-342h575v-254h-575v-354h675v-254h-960zM337 1948h281l131 -349h-178z" />
<glyph unicode="&#x401;" horiz-adv-x="1239" d="M170 0v1458h960v-254h-675v-342h575v-254h-575v-354h675v-254h-960zM296 1604v256h228v-256h-228zM749 1604v256h227v-256h-227z" />
<glyph unicode="&#x402;" horiz-adv-x="1531" d="M57 1204v254h1049v-254h-444v-286h266q106 0 193 -31t149.5 -90.5t96.5 -144.5t34 -191q0 -109 -35 -194t-97.5 -144.5t-149.5 -91t-191 -31.5h-86v244h63q96 0 153.5 55t57.5 160q0 104 -57.5 158.5t-153.5 54.5h-243v-672h-283v1204h-322z" />
<glyph unicode="&#x403;" horiz-adv-x="1148" d="M176 0v1458h918v-254h-633v-1204h-285zM492 1599l131 349h280l-233 -349h-178z" />
<glyph unicode="&#x404;" horiz-adv-x="1267" d="M121 729q0 104 3 188t16.5 155t43 130.5t84.5 114.5q76 74 170 113.5t219 39.5q205 0 350.5 -114.5t184.5 -339.5h-285q-23 90 -82 148.5t-166 58.5q-59 0 -106 -21.5t-80 -58.5q-18 -20 -30.5 -43t-20.5 -55.5t-13.5 -78.5t-7.5 -110h447v-248h-447q2 -68 7.5 -113.5 t13.5 -79.5t20.5 -56.5t30.5 -43.5q33 -37 80 -58t106 -21q106 0 167 58t83 148h283q-18 -113 -66.5 -197.5t-119 -142t-159.5 -86t-190 -28.5q-125 0 -219 40t-170 113q-55 55 -84.5 114.5t-43 130.5t-16.5 155t-3 188z" />
<glyph unicode="&#x405;" horiz-adv-x="1210" d="M39 180l184 185q70 -70 160 -96.5t190 -26.5q129 0 195 47t66 135q0 76 -46 121q-23 20 -49 30.5t-82 18.5l-174 27q-98 14 -165.5 43.5t-116.5 76.5q-104 100 -105 287q0 98 35 179t100.5 139.5t159.5 91t213 32.5q152 0 264.5 -38.5t206.5 -131.5l-180 -178 q-68 66 -147.5 83.5t-151.5 17.5q-115 0 -169 -54.5t-54 -130.5q0 -29 9 -55.5t32 -48.5q23 -20 54.5 -34.5t78.5 -20.5l174 -27q100 -14 165.5 -41t112.5 -74q59 -53 86 -131t27 -176q0 -106 -41 -188t-113.5 -138.5t-172 -86t-214.5 -29.5q-166 0 -296 42t-236 150z" />
<glyph unicode="&#x406;" horiz-adv-x="624" d="M170 0v1458h285v-1458h-285z" />
<glyph unicode="&#x407;" horiz-adv-x="624" d="M-25 1604v256h228v-256h-228zM170 0v1458h285v-1458h-285zM428 1604v256h227v-256h-227z" />
<glyph unicode="&#x408;" horiz-adv-x="1046" d="M6 137l189 187q35 -35 74.5 -58.5t111.5 -23.5q104 0 166.5 61.5t62.5 188.5v966h285v-979q0 -121 -42 -213t-113.5 -153.5t-165 -93t-193.5 -31.5q-119 0 -206 33.5t-169 115.5z" />
<glyph unicode="&#x409;" horiz-adv-x="2064" d="M35 0v254h41q55 0 100 20.5t79 80t52.5 165t18.5 277.5v661h907v-549h289q106 0 193 -33.5t149.5 -94t96.5 -143.5t34 -183t-34 -183.5t-96.5 -143.5t-149.5 -94t-193 -34h-574v1204h-348v-424q0 -229 -27.5 -379.5t-85 -239.5t-142.5 -125t-198 -36h-112zM1233 254h266 q98 0 154.5 54t56.5 147q0 90 -56.5 144t-154.5 54h-266v-399z" />
<glyph unicode="&#x40a;" horiz-adv-x="2064" d="M170 0v1458h285v-549h493v549h285v-549h289q106 0 193 -33.5t149.5 -94t96.5 -143.5t34 -183t-34 -183.5t-96.5 -143.5t-149.5 -94t-193 -34h-574v655h-493v-655h-285zM1233 254h266q98 0 154.5 54t56.5 147q0 90 -56.5 144t-154.5 54h-266v-399z" />
<glyph unicode="&#x40b;" horiz-adv-x="1531" d="M59 1204v254h1047v-254h-444v-286h266q106 0 193 -32t149.5 -90.5t96.5 -140.5t34 -182v-473h-285v473q0 90 -57.5 144.5t-153.5 54.5h-243v-672h-283v1204h-320z" />
<glyph unicode="&#x40c;" horiz-adv-x="1312" d="M174 0v1458h285v-1458h-285zM461 764l471 694h340l-490 -684l539 -774h-348zM586 1599l131 349h280l-233 -349h-178z" />
<glyph unicode="&#x40d;" horiz-adv-x="1445" d="M170 0v1458h285v-934l567 934h254v-1458h-285v936l-567 -936h-254zM409 1948h281l131 -349h-178z" />
<glyph unicode="&#x40e;" horiz-adv-x="1189" d="M8 1458h297l305 -702l277 702h295l-516 -1212q-20 -49 -50 -94.5t-70 -79t-91.5 -53t-114.5 -19.5h-174v254h115q59 0 95 23.5t56 68.5l43 100zM278 1829h201q4 -68 40 -97.5t91 -29.5t91 29.5t40 97.5h201q-4 -84 -33 -139.5t-75 -90t-104.5 -49t-119.5 -14.5 t-119.5 14.5t-104.5 49t-76 90t-32 139.5z" />
<glyph unicode="&#x40f;" horiz-adv-x="1404" d="M170 0v1458h285v-1204h493v1204h285v-1458h-393v-324h-275v324h-395z" />
<glyph unicode="&#x410;" horiz-adv-x="1306" d="M10 0l531 1458h223l532 -1458h-297l-86 258h-518l-88 -258h-297zM475 498h363l-179 530z" />
<glyph unicode="&#x411;" horiz-adv-x="1339" d="M170 0v1458h965v-254h-680v-295h299q111 0 197.5 -33.5t148 -94t94.5 -143.5t33 -183t-33 -183.5t-93.5 -143.5t-148.5 -94t-198 -34h-584zM455 254h284q96 0 149.5 54.5t53.5 146.5q0 90 -53 145t-150 55h-284v-401z" />
<glyph unicode="&#x412;" horiz-adv-x="1347" d="M170 0v1458h586q102 0 186 -28.5t142.5 -81t90 -126t31.5 -165.5q0 -209 -180 -309q43 -23 65.5 -39.5t45.5 -38.5q47 -51 68.5 -112.5t21.5 -139.5q0 -96 -31 -173t-89 -131.5t-141 -84t-186 -29.5h-610zM455 254h297q88 0 139 48t51 132t-51 131t-139 47h-297v-358z M455 868h278q88 0 138.5 45t50.5 123t-50.5 123t-138.5 45h-278v-336z" />
<glyph unicode="&#x413;" horiz-adv-x="1148" d="M176 0v1458h918v-254h-633v-1204h-285z" />
<glyph unicode="&#x414;" horiz-adv-x="1443" d="M29 254h137q92 141 133 359t41 472v373h879v-1204h167v-578h-274v324h-809v-324h-274v578zM483 254h451v950h-322v-211q0 -217 -26.5 -401t-102.5 -338z" />
<glyph unicode="&#x415;" horiz-adv-x="1239" d="M170 0v1458h960v-254h-675v-342h575v-254h-575v-354h675v-254h-960z" />
<glyph unicode="&#x416;" horiz-adv-x="1927" d="M-12 0l526 774l-477 684h336l446 -694l-487 -764h-344zM821 0v1458h285v-1458h-285zM1108 764l446 694h336l-477 -684l526 -774h-344z" />
<glyph unicode="&#x417;" horiz-adv-x="1241" d="M70 442h282q23 -88 83.5 -147t166.5 -59q109 0 171.5 54t62.5 142q0 92 -55.5 144.5t-166.5 52.5h-188v233h190q94 0 146.5 48t52.5 137q0 86 -56.5 133t-154.5 47q-106 0 -165.5 -61.5t-82.5 -149.5h-284q18 113 66 197.5t119 142t159 86t190 28.5q106 0 196.5 -28.5 t157 -80.5t103.5 -127t37 -167q0 -106 -52.5 -186t-138.5 -127q98 -43 154.5 -127t56.5 -205q0 -98 -39 -179t-108.5 -137.5t-164.5 -87t-208 -30.5q-100 0 -188 28.5t-158 86t-118 142.5t-66 197z" />
<glyph unicode="&#x418;" horiz-adv-x="1445" d="M170 0v1458h285v-934l567 934h254v-1458h-285v936l-567 -936h-254z" />
<glyph unicode="&#x419;" horiz-adv-x="1445" d="M170 0v1458h285v-934l567 934h254v-1458h-285v936l-567 -936h-254zM393 1829h201q4 -68 40 -97.5t91 -29.5t91 29.5t40 97.5h201q-4 -84 -33 -139.5t-75 -90t-104.5 -49t-119.5 -14.5t-119.5 14.5t-104.5 49t-76 90t-32 139.5z" />
<glyph unicode="&#x41a;" horiz-adv-x="1312" d="M174 0v1458h285v-1458h-285zM461 764l471 694h340l-490 -684l539 -774h-348z" />
<glyph unicode="&#x41b;" horiz-adv-x="1404" d="M35 0v254h41q55 0 100 20.5t79 80t52.5 165t18.5 277.5v661h907v-1458h-285v1204h-348v-424q0 -229 -27.5 -379.5t-85 -239.5t-142.5 -125t-198 -36h-112z" />
<glyph unicode="&#x41c;" horiz-adv-x="1660" d="M170 0v1458h281l380 -788l379 788h281v-1458h-285v850l-278 -553h-193l-280 553v-850h-285z" />
<glyph unicode="&#x41d;" horiz-adv-x="1402" d="M170 0v1458h285v-596h493v596h285v-1458h-285v610h-493v-610h-285z" />
<glyph unicode="&#x41e;" horiz-adv-x="1318" d="M121 729q0 104 3 188t16.5 155t43 130.5t84.5 114.5q74 74 169 113.5t222 39.5t221.5 -39.5t168.5 -113.5q55 -55 84.5 -114.5t44 -130.5t17.5 -155t3 -188t-3 -188t-17.5 -155t-44 -130t-84.5 -115q-74 -74 -168.5 -113.5t-221.5 -39.5t-222 40t-169 113 q-55 55 -84.5 114.5t-43 130.5t-16.5 155t-3 188zM406 729q0 -104 3 -173t11 -113t21.5 -71.5t33.5 -49.5q33 -35 79 -57.5t105 -22.5t105.5 22.5t77.5 57.5q20 23 33.5 50t21.5 71t12 113t4 173t-4 173t-12 114t-21.5 72.5t-33.5 50.5q-31 35 -77 56.5t-106 21.5 q-59 0 -105 -21.5t-79 -56.5q-20 -23 -33.5 -50.5t-21.5 -72.5t-11 -113.5t-3 -173.5z" />
<glyph unicode="&#x41f;" horiz-adv-x="1402" d="M170 0v1458h1063v-1458h-285v1204h-493v-1204h-285z" />
<glyph unicode="&#x420;" horiz-adv-x="1286" d="M170 0v1458h565q113 0 203 -36t151.5 -98t94.5 -145t33 -175t-33 -175.5t-94.5 -145.5t-151.5 -98t-203 -36h-280v-549h-285zM455 805h266q98 0 154.5 54.5t56.5 144.5t-56.5 145t-154.5 55h-266v-399z" />
<glyph unicode="&#x421;" horiz-adv-x="1269" d="M121 729q0 104 3 188t16.5 155t43 130.5t84.5 114.5q76 74 170 113.5t221 39.5q205 0 349.5 -115.5t185.5 -344.5h-291q-23 90 -80 148.5t-164 58.5q-59 0 -105 -20.5t-77 -55.5q-20 -23 -33.5 -51.5t-21.5 -73.5t-12 -113.5t-4 -173.5q0 -104 4 -173t12 -114t21.5 -73.5 t33.5 -51.5q31 -35 77 -55t105 -20q106 0 165 58t81 149h289q-41 -229 -185.5 -345t-349.5 -116q-127 0 -221 40t-170 113q-55 55 -84.5 114.5t-43 130.5t-16.5 155t-3 188z" />
<glyph unicode="&#x422;" horiz-adv-x="1169" d="M61 1204v254h1047v-254h-381v-1204h-285v1204h-381z" />
<glyph unicode="&#x423;" horiz-adv-x="1189" d="M8 1458h297l305 -702l277 702h295l-516 -1212q-20 -49 -50 -94.5t-70 -79t-91.5 -53t-114.5 -19.5h-174v254h115q59 0 95 23.5t56 68.5l43 100z" />
<glyph unicode="&#x424;" horiz-adv-x="1667" d="M78 774q0 279 144.5 435.5t469.5 170.5v144h285v-144q326 -14 471 -170.5t145 -435.5t-145 -436.5t-471 -169.5v-178h-285v178q-326 12 -470 170t-144 436zM362 774q0 -178 76 -267t258 -97v729q-182 -10 -258 -98.5t-76 -266.5zM973 410q184 8 260 97t76 267t-76 266 t-260 99v-729z" />
<glyph unicode="&#x425;" horiz-adv-x="1234" d="M10 0l453 748l-424 710h323l254 -471l256 471h322l-424 -710l455 -748h-326l-283 508l-280 -508h-326z" />
<glyph unicode="&#x426;" horiz-adv-x="1458" d="M170 0v1458h285v-1204h493v1204h285v-1204h170v-578h-275v324h-958z" />
<glyph unicode="&#x427;" horiz-adv-x="1327" d="M131 862v596h285v-522q0 -96 52 -135t130 -39q33 0 72 3t76.5 7t70.5 10l57 11v665h283v-1458h-283v547q-57 -10 -155 -24.5t-215 -14.5q-70 0 -137.5 21.5t-119.5 65.5t-84 110.5t-32 156.5z" />
<glyph unicode="&#x428;" horiz-adv-x="2023" d="M170 0v1458h285v-1204h415v1204h285v-1204h414v1204h284v-1458h-1683z" />
<glyph unicode="&#x429;" horiz-adv-x="2076" d="M170 0v1458h285v-1204h415v1204h285v-1204h414v1204h284v-1204h168v-578h-274v324h-1577z" />
<glyph unicode="&#x42a;" horiz-adv-x="1488" d="M61 1204v254h596v-549h289q106 0 193.5 -33.5t150 -94t96 -143.5t33.5 -183t-34.5 -183.5t-97 -143.5t-149.5 -94t-192 -34h-573v1204h-312zM657 254h267q96 0 153.5 54.5t57.5 146.5q0 90 -57.5 145t-153.5 55h-267v-401z" />
<glyph unicode="&#x42b;" horiz-adv-x="1828" d="M170 0v1458h285v-549h288q106 0 193.5 -33.5t150 -94t96.5 -143.5t34 -183t-34 -183.5t-96.5 -143.5t-149.5 -94t-194 -34h-573zM455 254h266q98 0 154.5 54.5t56.5 146.5q0 90 -56.5 145t-154.5 55h-266v-401zM1374 0v1458h285v-1458h-285z" />
<glyph unicode="&#x42c;" horiz-adv-x="1286" d="M170 0v1458h285v-549h288q106 0 193.5 -33.5t150 -94t96.5 -143.5t34 -183t-34 -183.5t-96.5 -143.5t-149.5 -94t-194 -34h-573zM455 254h266q98 0 154.5 54.5t56.5 146.5q0 90 -56.5 145t-154.5 55h-266v-401z" />
<glyph unicode="&#x42d;" horiz-adv-x="1267" d="M76 442h282q23 -90 83.5 -148t166.5 -58q59 0 106.5 21.5t80.5 57.5q18 20 30.5 43t20.5 57t13 80t7 113h-452v248h452q-2 63 -7 109.5t-13 79t-20.5 55t-30.5 43.5q-33 37 -80 58.5t-107 21.5q-106 0 -165.5 -58.5t-82.5 -148.5h-284q39 225 184.5 339.5t349.5 114.5 q125 0 219.5 -39.5t169.5 -113.5q55 -55 85 -114.5t43.5 -130.5t16.5 -154.5t3 -188.5q0 -104 -3 -188t-16.5 -155t-43 -130t-85.5 -115q-76 -74 -170 -113.5t-219 -39.5q-102 0 -190 28.5t-159 86t-119 142.5t-66 197z" />
<glyph unicode="&#x42e;" horiz-adv-x="1871" d="M170 0v1458h285v-594h219q2 150 29.5 256.5t117.5 196.5q74 74 169 113.5t222 39.5t221.5 -39.5t168.5 -113.5q55 -55 84.5 -114.5t44 -130.5t17.5 -155t3 -188t-3 -188t-17.5 -155t-44 -130t-84.5 -115q-74 -74 -168.5 -113.5t-221.5 -39.5t-222 40t-169 113 q-47 45 -75.5 95.5t-44 106.5t-21.5 122.5t-6 144.5h-219v-610h-285zM958 729q0 -104 3.5 -173t11.5 -113t21.5 -71.5t33.5 -49.5q33 -35 79 -57.5t105 -22.5t105.5 22.5t77.5 57.5q20 23 33.5 50t21.5 71t12 113t4 173t-4 173t-12 114t-21.5 72.5t-33.5 50.5 q-31 35 -77 56.5t-106 21.5q-59 0 -105 -21.5t-79 -56.5q-20 -23 -33.5 -50.5t-21.5 -72.5t-11.5 -113.5t-3.5 -173.5z" />
<glyph unicode="&#x42f;" horiz-adv-x="1331" d="M66 0l301 606q-117 53 -183.5 155.5t-66.5 242.5q0 104 35.5 188t99 143.5t152 91t192.5 31.5h565v-1458h-284v549h-234l-240 -549h-337zM399 1008q0 -90 57.5 -148.5t153.5 -58.5h267v407h-267q-96 0 -153.5 -54t-57.5 -146z" />
<glyph unicode="&#x430;" horiz-adv-x="1093" d="M74 324q0 63 22.5 119.5t67.5 98.5t114.5 66.5t163.5 24.5h248v53q0 88 -46 128t-152 40q-72 0 -117 -21.5t-88 -70.5l-168 166q78 86 164 118.5t219 32.5q455 0 454 -377v-702h-260v92q-53 -53 -111.5 -77.5t-150.5 -24.5q-178 0 -272 94q-43 45 -65.5 106.5 t-22.5 133.5zM330 328q0 -55 39 -88t123 -33q49 0 85.5 9t71.5 42q23 20 32 52t9 83v58h-203q-158 0 -157 -123z" />
<glyph unicode="&#x431;" horiz-adv-x="1122" d="M121 623q0 186 7 309t26.5 202.5t52.5 128t84 89.5q49 39 111.5 61.5t140.5 34.5t174 17t215 5v-229q-51 -4 -108.5 -5t-115 -6t-112.5 -15.5t-100 -34.5q-74 -39 -105 -93.5t-31 -152.5q31 53 105 88t162 35q100 0 158.5 -22.5t103.5 -63.5q72 -66 103.5 -180.5 t31.5 -251.5q0 -160 -30.5 -258.5t-100.5 -169.5q-57 -59 -138 -91t-177 -32q-119 0 -218.5 40t-152.5 126q-47 76 -66.5 197.5t-19.5 271.5zM387 535q0 -98 15.5 -161t43.5 -95q23 -29 55.5 -40.5t71.5 -11.5t72 12.5t57 41.5q55 68 56 251q0 176 -53 242q-23 31 -57 44 t-75 13t-74.5 -12t-58.5 -43q-25 -33 -39 -93t-14 -148z" />
<glyph unicode="&#x432;" horiz-adv-x="1126" d="M147 0v1067h527q152 0 241 -79t89 -214q0 -147 -136 -225q78 -41 115 -98.5t37 -143.5q0 -141 -88 -224t-240 -83h-545zM412 197h211q63 0 98 34t35 91q0 59 -35 91.5t-98 32.5h-211v-249zM412 641h198q63 0 96 30.5t33 86.5q0 113 -129 112h-198v-229z" />
<glyph unicode="&#x433;" horiz-adv-x="888" d="M156 0v1067h706v-236h-440v-831h-266z" />
<glyph unicode="&#x434;" horiz-adv-x="1187" d="M27 236h108q20 37 40 80.5t34 104t22.5 138.5t8.5 182v326h766v-831h135v-498h-252v262h-610v-262h-252v498zM414 236h325v595h-243v-139q0 -162 -20.5 -268.5t-61.5 -187.5z" />
<glyph unicode="&#x435;" horiz-adv-x="1122" d="M96 535q0 131 34 232t95.5 171t146.5 105.5t189 35.5q111 0 198 -37.5t146.5 -106.5t90 -164t30.5 -208v-112h-668q0 -104 59.5 -171t174.5 -67q88 0 139 25.5t103 74.5l161 -157q-41 -41 -82 -73t-89 -53.5t-105 -31.5t-129 -10q-94 0 -183.5 24.5t-158 87t-110.5 168 t-42 267.5zM358 633h406q-2 35 -6 60.5t-19 54.5q-23 47 -66.5 78.5t-111.5 31.5t-111.5 -31.5t-66.5 -78.5q-14 -29 -18.5 -54.5t-6.5 -60.5z" />
<glyph unicode="&#x436;" horiz-adv-x="1562" d="M-12 0l374 569l-350 498h305l328 -508l-344 -559h-313zM647 0v1067h268v-1067h-268zM918 559l329 508h305l-350 -498l373 -569h-311z" />
<glyph unicode="&#x437;" horiz-adv-x="1015" d="M35 139l153 166q55 -49 125 -70.5t144 -21.5q37 0 70.5 7t59 22.5t42 38t16.5 53.5q0 59 -41 87t-112 28h-162v190h157q66 0 106 31.5t40 85.5q0 55 -50.5 81.5t-131.5 26.5q-59 0 -119 -18.5t-113 -54.5l-147 163q92 72 201.5 98.5t228.5 26.5q78 0 148.5 -18.5 t124.5 -55t86 -91t32 -123.5q0 -76 -40 -137.5t-105 -94.5q72 -29 116.5 -93.5t44.5 -150.5q0 -74 -32.5 -134t-89 -103t-130 -66.5t-155.5 -23.5q-127 0 -249 32.5t-218 118.5z" />
<glyph unicode="&#x438;" horiz-adv-x="1206" d="M147 0v1067h269v-635l375 635h268v-1067h-268v651l-375 -651h-269z" />
<glyph unicode="&#x439;" horiz-adv-x="1206" d="M147 0v1067h269v-635l375 635h268v-1067h-268v651l-375 -651h-269zM270 1479h201q4 -68 40 -97.5t91 -29.5t91 29.5t40 97.5h201q-2 -84 -32 -139.5t-76 -90.5t-104.5 -49t-119.5 -14t-119.5 14t-104.5 49t-76 90.5t-32 139.5z" />
<glyph unicode="&#x43a;" horiz-adv-x="1093" d="M150 0v1067h268v-1067h-268zM420 559l350 508h311l-376 -498l401 -569h-320z" />
<glyph unicode="&#x43b;" horiz-adv-x="1169" d="M29 0v236h32q33 0 66 8t57.5 47t40 120t15.5 224v432h780v-1067h-266v831h-256v-256q0 -172 -22.5 -282.5t-66.5 -176t-107.5 -91t-145.5 -25.5h-127z" />
<glyph unicode="&#x43c;" horiz-adv-x="1386" d="M147 0v1067h265l282 -561l281 561h262v-1067h-266v616l-201 -395h-152l-202 395v-616h-269z" />
<glyph unicode="&#x43d;" horiz-adv-x="1173" d="M147 0v1067h269v-403h342v403h268v-1067h-268v428h-342v-428h-269z" />
<glyph unicode="&#x43e;" d="M104 535q0 145 25 240t96 173q51 53 131 92t199 39t200 -39t132 -92q72 -78 96.5 -173t24.5 -240t-23.5 -242.5t-97.5 -173.5q-51 -53 -132 -92t-200 -39t-199 39t-131 92q-72 78 -96.5 174t-24.5 242zM371 535q0 -84 10 -152t51 -109q47 -47 123 -47q78 0 125 47 q41 41 51 109t10 152q0 82 -10 149.5t-51 108.5q-47 47 -125 47q-76 0 -123 -47q-41 -41 -51 -109t-10 -149z" />
<glyph unicode="&#x43f;" horiz-adv-x="1163" d="M147 0v1067h879v-1067h-268v831h-342v-831h-269z" />
<glyph unicode="&#x440;" horiz-adv-x="1146" d="M150 -391v1458h258v-100q55 61 117.5 86.5t148.5 25.5q78 0 145.5 -24.5t112.5 -71.5q39 -39 60.5 -89t32.5 -107.5t14 -120.5t3 -131t-3 -131.5t-14 -122t-32.5 -108.5t-60.5 -89q-45 -47 -112.5 -71.5t-145.5 -24.5q-82 0 -144.5 23.5t-113.5 82.5v-485h-266zM416 535 q0 -66 6 -121.5t24.5 -97.5t54.5 -65.5t95 -23.5t95 23.5t54.5 65.5t24.5 97.5t6 121.5q0 63 -6 119.5t-24.5 97.5t-54.5 64.5t-95 23.5t-95 -23.5t-54.5 -64.5t-24.5 -97.5t-6 -119.5z" />
<glyph unicode="&#x441;" horiz-adv-x="983" d="M96 535q0 162 45 267t114 166.5t154 86t164 24.5q111 0 196 -34.5t157 -108.5l-181 -180q-41 45 -79.5 64.5t-92.5 19.5q-94 0 -151 -70q-31 -39 -45.5 -94t-14.5 -141q0 -164 60 -238q57 -70 151 -70q53 0 92.5 19.5t79.5 64.5l181 -178q-72 -74 -157 -109.5t-196 -35.5 q-80 0 -164.5 24.5t-153.5 87t-114 168t-45 267.5z" />
<glyph unicode="&#x442;" horiz-adv-x="933" d="M23 831v236h888v-236h-307v-831h-268v831h-313z" />
<glyph unicode="&#x443;" horiz-adv-x="1011" d="M8 1067h281l221 -659l213 659h281l-457 -1239q-35 -92 -80 -137q-47 -47 -105.5 -64.5t-123.5 -17.5h-105v239h62q57 0 84.5 18.5t48.5 78.5l45 131z" />
<glyph unicode="&#x444;" horiz-adv-x="1486" d="M92 541q0 135 36 232t103.5 162.5t164 100.5t214.5 41v381h267v-381q119 -6 215 -41t163.5 -100.5t103.5 -162.5t36 -232t-37 -235.5t-104.5 -168t-164 -104.5t-212.5 -43v-381h-267v381q-117 6 -213 43t-163.5 104.5t-104.5 168t-37 235.5zM360 539q0 -305 254 -312v613 q-129 -2 -191.5 -75t-62.5 -226zM872 227q254 7 254 312q0 154 -62.5 226.5t-191.5 74.5v-613z" />
<glyph unicode="&#x445;" horiz-adv-x="1079" d="M25 0l368 545l-354 522h319l181 -305l182 305h319l-354 -522l369 -545h-320l-196 319l-195 -319h-319z" />
<glyph unicode="&#x446;" horiz-adv-x="1216" d="M147 0v1067h269v-831h342v831h268v-831h143v-498h-254v262h-768z" />
<glyph unicode="&#x447;" horiz-adv-x="1122" d="M119 637v430h266v-356q0 -66 35 -97.5t96 -31.5q53 0 105.5 7t87.5 11v467h266v-1067h-266v375q-53 -10 -126 -19.5t-165 -9.5q-63 0 -118.5 19.5t-95.5 56.5t-62.5 91t-22.5 124z" />
<glyph unicode="&#x448;" horiz-adv-x="1683" d="M147 0v1067h269v-831h293v831h266v-831h293v831h266v-1067h-1387z" />
<glyph unicode="&#x449;" horiz-adv-x="1726" d="M147 0v1067h269v-831h293v831h266v-831h293v831h266v-831h143v-498h-252v262h-1278z" />
<glyph unicode="&#x44a;" horiz-adv-x="1208" d="M25 831v236h518v-385h245q80 0 144.5 -24.5t112 -69.5t73 -107.5t25.5 -138.5t-25.5 -138.5t-73 -107.5t-112 -70.5t-144.5 -25.5h-514v831h-249zM535 209h204q66 0 104 36t38 97q0 59 -38 95t-104 36h-204v-264z" />
<glyph unicode="&#x44b;" horiz-adv-x="1562" d="M147 0v1067h269v-385h241q80 0 145.5 -24.5t113 -69.5t73 -107.5t25.5 -138.5t-25.5 -138.5t-73 -107.5t-113 -70.5t-145.5 -25.5h-510zM408 209h200q66 0 104 36t38 97q0 59 -38 95t-104 36h-200v-264zM1139 0v1067h268v-1067h-268z" />
<glyph unicode="&#x44c;" horiz-adv-x="1083" d="M147 0v1067h269v-385h246q80 0 144 -24.5t111.5 -69.5t73 -107.5t25.5 -138.5t-25.5 -138.5t-73 -107.5t-113 -70.5t-142.5 -25.5h-515zM408 209h204q66 0 103 36t37 97q0 59 -37 95t-103 36h-204v-264z" />
<glyph unicode="&#x44d;" horiz-adv-x="983" d="M57 131l179 176q47 -47 83.5 -66.5t90.5 -19.5q100 0 150 62.5t61 165.5h-314v182h314q-14 98 -65.5 156.5t-147.5 58.5q-53 0 -90 -20.5t-82 -65.5l-179 176q82 76 160 109.5t191 33.5q229 0 354 -141t125 -397q0 -268 -124 -410.5t-355 -142.5q-113 0 -191 33.5 t-160 109.5z" />
<glyph unicode="&#x44e;" horiz-adv-x="1585" d="M147 0v1067h269v-410h164q8 92 34.5 162t81.5 129q51 53 131 92t199 39t200 -39t132 -92q72 -78 96.5 -173t24.5 -240t-23.5 -242.5t-97.5 -173.5q-51 -53 -132 -92t-200 -39t-198.5 39t-131.5 92q-59 61 -84.5 136t-33.5 177h-162v-432h-269zM842 535q0 -84 10 -152 t51 -109q47 -47 123 -47q78 0 125 47q41 41 51 109t10 152q0 82 -10 149.5t-51 108.5q-47 47 -125 47q-76 0 -123 -47q-41 -41 -51 -109t-10 -149z" />
<glyph unicode="&#x44f;" horiz-adv-x="1095" d="M59 0l215 436q-90 35 -144 111t-54 186q0 74 25.5 134.5t72.5 105.5t112.5 69.5t143.5 24.5h518v-1067h-266v379h-143l-177 -379h-303zM336 721q0 -59 38 -95t103 -36h209v264h-209q-66 0 -103.5 -37t-37.5 -96z" />
<glyph unicode="&#x450;" horiz-adv-x="1122" d="M96 535q0 131 34 232t95.5 171t146.5 105.5t189 35.5q111 0 198 -37.5t146.5 -106.5t90 -164t30.5 -208v-112h-668q0 -104 59.5 -171t174.5 -67q88 0 139 25.5t103 74.5l161 -157q-41 -41 -82 -73t-89 -53.5t-105 -31.5t-129 -10q-94 0 -183.5 24.5t-158 87t-110.5 168 t-42 267.5zM268 1585h280l132 -348h-179zM358 633h406q-2 35 -6 60.5t-19 54.5q-23 47 -66.5 78.5t-111.5 31.5t-111.5 -31.5t-66.5 -78.5q-14 -29 -18.5 -54.5t-6.5 -60.5z" />
<glyph unicode="&#x451;" horiz-adv-x="1122" d="M96 535q0 131 34 232t95.5 171t146.5 105.5t189 35.5q111 0 198 -37.5t146.5 -106.5t90 -164t30.5 -208v-112h-668q0 -104 59.5 -171t174.5 -67q88 0 139 25.5t103 74.5l161 -157q-41 -41 -82 -73t-89 -53.5t-105 -31.5t-129 -10q-94 0 -183.5 24.5t-158 87t-110.5 168 t-42 267.5zM227 1241v256h227v-256h-227zM358 633h406q-2 35 -6 60.5t-19 54.5q-23 47 -66.5 78.5t-111.5 31.5t-111.5 -31.5t-66.5 -78.5q-14 -29 -18.5 -54.5t-6.5 -60.5zM680 1241v256h227v-256h-227z" />
<glyph unicode="&#x452;" horiz-adv-x="1173" d="M53 1075v205h97v178h266v-178h469v-205h-469v-211q51 55 116.5 83t143.5 28q80 0 143.5 -24.5t108.5 -69.5q66 -66 87 -140.5t21 -162.5v-631q0 -70 -16 -132.5t-57 -110.5t-109 -75.5t-168 -27.5h-123v225h74q72 0 102.5 45t30.5 94v576q0 55 -15.5 92t-41 59.5 t-57 32.5t-62.5 10t-62.5 -10t-57 -32.5t-42 -59.5t-16.5 -92v-541h-266v1075h-97z" />
<glyph unicode="&#x453;" horiz-adv-x="888" d="M156 0v1067h706v-236h-440v-831h-266zM344 1237l131 348h281l-233 -348h-179z" />
<glyph unicode="&#x454;" horiz-adv-x="983" d="M96 541q0 256 126 397t353 141q57 0 103.5 -8t88.5 -25.5t80 -45t79 -64.5l-176 -176q-47 45 -84 65.5t-91 20.5q-96 0 -147 -58.5t-63 -156.5h317v-182h-317q10 -102 60 -165t150 -63q53 0 90 19.5t85 66.5l176 -176q-80 -76 -159 -109.5t-192 -33.5q-229 0 -354 142 t-125 411z" />
<glyph unicode="&#x455;" horiz-adv-x="1026" d="M45 141l174 174q33 -33 70 -52t74.5 -30.5t73.5 -14.5t67 -3q35 0 68.5 6t60 19.5t43 34t16.5 51.5q0 41 -23.5 66.5t-88.5 31.5l-172 16q-141 14 -224.5 83t-83.5 216q0 84 34 147.5t90.5 106.5t131 64.5t156.5 21.5q127 0 228.5 -26.5t179.5 -98.5l-164 -166 q-47 41 -111.5 56.5t-136.5 15.5q-80 0 -116 -30.5t-36 -71.5t26 -63.5t85 -28.5l168 -17q160 -16 238.5 -96t78.5 -217q0 -88 -34.5 -153.5t-96 -108.5t-144.5 -64.5t-177 -21.5q-63 0 -123 5t-116 21.5t-110.5 46t-105.5 80.5z" />
<glyph unicode="&#x456;" horiz-adv-x="563" d="M145 1249v217h273v-217h-273zM150 0v1036h266v-1036h-266z" />
<glyph unicode="&#x457;" horiz-adv-x="563" d="M-55 1241v256h227v-256h-227zM150 0v1036h266v-1036h-266zM398 1241v256h227v-256h-227z" />
<glyph unicode="&#x458;" horiz-adv-x="563" d="M-47 -174h102q51 0 73 24.5t22 71.5v1114h266v-1130q0 -57 -17.5 -111.5t-55.5 -97.5t-97.5 -69.5t-141.5 -26.5h-151v225zM145 1249v217h273v-217h-273z" />
<glyph unicode="&#x459;" horiz-adv-x="1687" d="M29 0v236h32q33 0 66 8t57.5 47t40 120t15.5 224v432h780v-385h248q80 0 145.5 -24.5t112.5 -69.5t72.5 -107.5t25.5 -138.5t-25.5 -138.5t-72.5 -107.5t-112.5 -70.5t-145.5 -25.5h-514v831h-256v-256q0 -172 -22.5 -282.5t-66.5 -176t-107.5 -91t-145.5 -25.5h-127z M1014 209h205q66 0 103.5 36t37.5 97q0 59 -38 95t-103 36h-205v-264z" />
<glyph unicode="&#x45a;" horiz-adv-x="1693" d="M147 0v1067h269v-385h342v385h268v-385h248q80 0 144.5 -24.5t111.5 -69.5t72.5 -107.5t25.5 -138.5t-25.5 -138.5t-72.5 -107.5t-112.5 -70.5t-143.5 -25.5h-516v446h-342v-446h-269zM1018 209h205q66 0 103.5 36t37.5 97q0 59 -38 95t-103 36h-205v-264z" />
<glyph unicode="&#x45b;" horiz-adv-x="1173" d="M53 1075v205h97v178h266v-178h469v-205h-469v-211q51 55 116.5 83t143.5 28q80 0 143.5 -24.5t108.5 -69.5q66 -66 87 -140.5t21 -162.5v-578h-266v541q0 55 -15.5 92t-41 59.5t-57 32.5t-62.5 10t-62.5 -10t-57 -32.5t-42 -59.5t-16.5 -92v-541h-266v1075h-97z" />
<glyph unicode="&#x45c;" horiz-adv-x="1093" d="M150 0v1067h268v-1067h-268zM420 559l350 508h311l-376 -498l401 -569h-320zM460 1237l131 348h281l-233 -348h-179z" />
<glyph unicode="&#x45d;" horiz-adv-x="1206" d="M147 0v1067h269v-635l375 635h268v-1067h-268v651l-375 -651h-269zM291 1585h280l132 -348h-179z" />
<glyph unicode="&#x45e;" horiz-adv-x="1011" d="M8 1067h281l221 -659l213 659h281l-457 -1239q-35 -92 -80 -137q-47 -47 -105.5 -64.5t-123.5 -17.5h-105v239h62q57 0 84.5 18.5t48.5 78.5l45 131zM180 1479h201q4 -68 40 -97.5t91 -29.5t91 29.5t40 97.5h201q-2 -84 -32 -139.5t-76 -90.5t-104.5 -49t-119.5 -14 t-119.5 14t-104.5 49t-76 90.5t-32 139.5z" />
<glyph unicode="&#x45f;" horiz-adv-x="1173" d="M147 0v1067h269v-831h342v831h268v-1067h-315v-262h-252v262h-312z" />
<glyph unicode="&#x462;" horiz-adv-x="1333" d="M76 1081v217h141v160h285v-160h237v-217h-237v-172h289q106 0 193 -33.5t149.5 -94t96.5 -143.5t34 -183t-34 -183.5t-96.5 -143.5t-149.5 -94t-193 -34h-574v1081h-141zM502 254h266q98 0 154.5 54.5t56.5 146.5q0 90 -56.5 145t-154.5 55h-266v-401z" />
<glyph unicode="&#x463;" horiz-adv-x="1132" d="M76 819v168h121v80h268v-80h182v-168h-182v-137h246q80 0 144.5 -24.5t111.5 -69.5t72.5 -107.5t25.5 -138.5t-25.5 -138.5t-72.5 -107.5t-113 -70.5t-143 -25.5h-514v819h-121zM457 209h205q66 0 102.5 36t36.5 97q0 59 -37 95t-102 36h-205v-264z" />
<glyph unicode="&#x472;" horiz-adv-x="1318" d="M121 729q0 104 3 188t16.5 155t43 130.5t84.5 114.5q76 74 170 113.5t221 39.5t221.5 -39.5t168.5 -113.5q55 -55 84.5 -114.5t44 -130.5t17.5 -155t3 -188t-3 -188t-17.5 -155t-44 -130t-84.5 -115q-74 -74 -168.5 -113.5t-221.5 -39.5t-221 40t-170 113 q-55 55 -84.5 114.5t-43 130.5t-16.5 155t-3 188zM406 614q2 -70 7 -116.5t13 -79.5t20.5 -55.5t28.5 -40.5q33 -35 79 -57.5t105 -22.5t105.5 22.5t77.5 57.5q18 18 30.5 40.5t20.5 55.5t12 80t6 116h-505zM408 858h503q-2 63 -7 108.5t-13 77t-20.5 54t-28.5 41.5 q-31 35 -77 56.5t-106 21.5q-59 0 -105 -21.5t-79 -56.5q-16 -18 -28.5 -41t-20.5 -54.5t-12 -76.5t-6 -109z" />
<glyph unicode="&#x473;" d="M104 535q0 145 25 241t96 172q49 53 130 92t200 39t201 -39t131 -92q72 -76 96.5 -172t24.5 -241t-25 -242.5t-96 -173.5q-49 -53 -131 -92t-201 -39t-200 39t-130 92q-72 76 -96.5 173t-24.5 243zM373 451q4 -55 16 -100.5t43 -76.5q47 -47 123 -47q78 0 125 47 q31 31 43 76t16 101h-366zM373 633h364q-4 49 -16 90t-41 70q-47 47 -125 47q-76 0 -123 -47q-29 -29 -42 -70t-17 -90z" />
<glyph unicode="&#x474;" horiz-adv-x="1189" d="M6 1458h295l293 -950l217 704q14 51 44 95.5t71 78t94 53t117 19.5h174v-254h-90q-121 0 -152 -92l-369 -1112h-213z" />
<glyph unicode="&#x475;" horiz-adv-x="1009" d="M8 1067h281l217 -659l143 440q37 115 112 167t197 52h105v-240h-51q-59 0 -85 -19.5t-48 -76.5l-269 -731h-209z" />
<glyph unicode="&#x490;" horiz-adv-x="1148" d="M176 0v1458h643v324h275v-578h-633v-1204h-285z" />
<glyph unicode="&#x491;" horiz-adv-x="888" d="M156 0v1067h454v262h252v-498h-440v-831h-266z" />
<glyph unicode="&#x492;" horiz-adv-x="1189" d="M76 627v217h141v614h918v-254h-633v-360h237v-217h-237v-627h-285v627h-141z" />
<glyph unicode="&#x493;" horiz-adv-x="931" d="M76 502v168h123v397h706v-236h-440v-161h182v-168h-182v-502h-266v502h-123z" />
<glyph unicode="&#x496;" horiz-adv-x="1927" d="M-12 0l526 774l-477 684h336l446 -694l-487 -764h-344zM821 0v1458h285v-1458h-285zM1108 764l446 694h336l-477 -684l352 -520h174v-578h-274v324h-70z" />
<glyph unicode="&#x497;" horiz-adv-x="1562" d="M-12 0l374 569l-350 498h305l328 -508l-344 -559h-313zM647 0v1067h268v-1067h-268zM918 559l329 508h305l-350 -498l217 -333h156v-498h-252v262h-59z" />
<glyph unicode="&#x49a;" horiz-adv-x="1310" d="M174 0v1458h285v-1458h-285zM461 764l471 694h340l-490 -684l361 -520h178v-578h-274v324h-74z" />
<glyph unicode="&#x49b;" horiz-adv-x="1091" d="M150 0v1067h268v-1067h-268zM420 559l350 508h311l-376 -498l235 -333h166v-498h-252v262h-68z" />
<glyph unicode="&#x49c;" horiz-adv-x="1476" d="M174 0v1458h285v-588h90v283h188v-283h56l309 588h334l-408 -708l457 -750h-342l-350 616h-56v-282h-188v282h-90v-616h-285z" />
<glyph unicode="&#x49d;" horiz-adv-x="1247" d="M150 0v1067h266v-414h73v240h187v-240h49l201 414h311l-274 -500l297 -567h-318l-207 432h-59v-239h-187v239h-73v-432h-266z" />
<glyph unicode="&#x4a2;" horiz-adv-x="1402" d="M170 0v1458h285v-596h493v596h285v-1204h131v-578h-274v324h-142v610h-493v-610h-285z" />
<glyph unicode="&#x4a3;" horiz-adv-x="1173" d="M147 0v1067h269v-403h342v403h268v-831h117v-498h-252v262h-133v428h-342v-428h-269z" />
<glyph unicode="&#x4ae;" horiz-adv-x="1171" d="M6 1458h309l273 -588l268 588h309l-438 -860v-598h-283v598z" />
<glyph unicode="&#x4af;" horiz-adv-x="1011" d="M8 1067h283l217 -696l213 696h283l-367 -1036v-422h-264v422z" />
<glyph unicode="&#x4b0;" horiz-adv-x="1171" d="M6 1458h309l273 -588l268 588h309l-438 -860h193v-217h-193v-381h-283v381h-188v217h188z" />
<glyph unicode="&#x4b1;" horiz-adv-x="1011" d="M8 1067h283l217 -696l213 696h283l-367 -1036h158v-168h-158v-254h-264v254h-150v168h150z" />
<glyph unicode="&#x4b2;" horiz-adv-x="1234" d="M10 0l453 748l-424 710h323l254 -471l256 471h322l-424 -710l299 -494h156v-578h-275v324h-51l-283 508l-280 -508h-326z" />
<glyph unicode="&#x4b3;" horiz-adv-x="1079" d="M25 0l368 545l-354 522h319l181 -305l182 305h319l-354 -522l209 -309h160v-498h-252v262h-68l-196 319l-195 -319h-319z" />
<glyph unicode="&#x4b6;" horiz-adv-x="1329" d="M131 862v596h285v-522q0 -96 52 -135t130 -39q33 0 72 3t76.5 7t70.5 10l57 11v665h283v-1204h133v-578h-274v324h-142v547q-57 -10 -155 -24.5t-215 -14.5q-70 0 -137.5 21.5t-119.5 65.5t-84 110.5t-32 156.5z" />
<glyph unicode="&#x4b7;" horiz-adv-x="1122" d="M119 637v430h266v-356q0 -66 35 -97.5t96 -31.5q53 0 105.5 7t87.5 11v467h266v-831h119v-498h-252v262h-133v375q-53 -10 -126 -19.5t-165 -9.5q-63 0 -118.5 19.5t-95.5 56.5t-62.5 91t-22.5 124z" />
<glyph unicode="&#x4b8;" horiz-adv-x="1359" d="M131 862v596h285v-522q0 -80 38 -116t103 -50v274h203v-274q35 4 76 10t67 13v665h285v-1458h-285v547q-35 -8 -75 -13.5t-68 -9.5v-297h-203v281h-39q-74 0 -143.5 21.5t-123.5 65.5t-87 110.5t-33 156.5z" />
<glyph unicode="&#x4b9;" horiz-adv-x="1155" d="M119 637v430h266v-356q0 -51 24.5 -78t71.5 -39v221h164v-227q27 2 51.5 6t44.5 8v465h267v-1067h-267v375l-45 -8q-23 -4 -51 -9v-245h-164v233h-28q-72 0 -132.5 19.5t-105.5 56.5t-70.5 91t-25.5 124z" />
<glyph unicode="&#x4ba;" horiz-adv-x="1327" d="M170 0v1458h283v-547q57 10 155.5 24.5t214.5 14.5q70 0 137.5 -21.5t120 -65.5t84 -110.5t31.5 -156.5v-596h-285v522q0 96 -52 135t-130 39q-33 0 -72 -3t-76.5 -8t-71.5 -10t-56 -9v-666h-283z" />
<glyph unicode="&#x4bb;" horiz-adv-x="1122" d="M147 0v1067h267v-375q53 10 125.5 19.5t165.5 9.5q63 0 118.5 -19.5t95 -56.5t62.5 -91t23 -124v-430h-267v356q0 66 -34.5 97.5t-96.5 31.5q-53 0 -105 -7t-87 -11v-467h-267z" />
<glyph unicode="&#x4c0;" horiz-adv-x="624" d="M170 0v1458h285v-1458h-285z" />
<glyph unicode="&#x4cf;" horiz-adv-x="544" d="M139 0v1458h267v-1458h-267z" />
<glyph unicode="&#x4d8;" horiz-adv-x="1329" d="M121 598v213h801q0 78 -4.5 130t-12.5 89t-21.5 61.5t-31.5 47.5q-31 35 -76 56.5t-104 21.5q-213 0 -262 -213h-287q14 92 53 176t106.5 148.5t165 103t224.5 38.5q125 0 219 -39.5t170 -113.5q53 -53 83 -111.5t44 -130t17 -157t3 -189.5t-3 -189t-16 -156t-43 -130 t-85 -113q-76 -74 -170 -113.5t-219 -39.5q-119 0 -220.5 35.5t-191.5 130.5q-80 84 -109.5 185t-29.5 259zM403 518q0 -57 15.5 -105t50.5 -89q35 -39 86 -60.5t117 -21.5q59 0 104 20.5t76 54.5q16 18 28.5 39t19.5 50.5t12.5 69.5t7.5 95h-517v-53z" />
<glyph unicode="&#x4d9;" horiz-adv-x="1122" d="M96 504v112h668q0 104 -59.5 171t-174.5 67q-88 0 -139 -25.5t-102 -74.5l-162 157q41 41 82 73t89 53.5t105.5 31.5t128.5 10q94 0 183.5 -24.5t158 -87t110.5 -168t42 -267.5q0 -131 -34 -232t-95 -171t-146 -105.5t-190 -35.5q-111 0 -198 37.5t-146 106.5t-90 163 t-31 209zM358 434q2 -35 6.5 -60.5t18.5 -54.5q23 -47 67 -78.5t111 -31.5q68 0 112 31.5t66 78.5q14 29 18.5 54.5t6.5 60.5h-406z" />
<glyph unicode="&#x4e2;" horiz-adv-x="1445" d="M170 0v1458h285v-934l567 934h254v-1458h-285v936l-567 -936h-254zM397 1624v180h650v-180h-650z" />
<glyph unicode="&#x4e3;" horiz-adv-x="1206" d="M147 0v1067h269v-635l375 635h268v-1067h-268v651l-375 -651h-269zM278 1276v180h650v-180h-650z" />
<glyph unicode="&#x4e8;" horiz-adv-x="1318" d="M121 729q0 104 3 188t16.5 155t43 130.5t84.5 114.5q76 74 170 113.5t221 39.5t221.5 -39.5t168.5 -113.5q55 -55 84.5 -114.5t44 -130.5t17.5 -155t3 -188t-3 -188t-17.5 -155t-44 -130t-84.5 -115q-74 -74 -168.5 -113.5t-221.5 -39.5t-221 40t-170 113 q-55 55 -84.5 114.5t-43 130.5t-16.5 155t-3 188zM406 614q2 -70 7 -116.5t13 -79.5t20.5 -55.5t28.5 -40.5q33 -35 79 -57.5t105 -22.5t105.5 22.5t77.5 57.5q18 18 30.5 40.5t20.5 55.5t12 80t6 116h-505zM408 858h503q-2 63 -7 108.5t-13 77t-20.5 54t-28.5 41.5 q-31 35 -77 56.5t-106 21.5q-59 0 -105 -21.5t-79 -56.5q-16 -18 -28.5 -41t-20.5 -54.5t-12 -76.5t-6 -109z" />
<glyph unicode="&#x4e9;" d="M104 535q0 145 25 241t96 172q49 53 130 92t200 39t201 -39t131 -92q72 -76 96.5 -172t24.5 -241t-25 -242.5t-96 -173.5q-49 -53 -131 -92t-201 -39t-200 39t-130 92q-72 76 -96.5 173t-24.5 243zM373 451q4 -55 16 -100.5t43 -76.5q47 -47 123 -47q78 0 125 47 q31 31 43 76t16 101h-366zM373 633h364q-4 49 -16 90t-41 70q-47 47 -125 47q-76 0 -123 -47q-29 -29 -42 -70t-17 -90z" />
<glyph unicode="&#x4ee;" horiz-adv-x="1189" d="M8 1458h297l305 -702l277 702h295l-516 -1212q-20 -49 -50 -94.5t-70 -79t-91.5 -53t-114.5 -19.5h-174v254h115q59 0 95 23.5t56 68.5l43 100zM288 1624v180h650v-180h-650z" />
<glyph unicode="&#x4ef;" horiz-adv-x="1011" d="M8 1067h281l221 -659l213 659h281l-457 -1239q-35 -92 -80 -137q-47 -47 -105.5 -64.5t-123.5 -17.5h-105v239h62q57 0 84.5 18.5t48.5 78.5l45 131zM184 1276v180h650v-180h-650z" />
<glyph unicode="&#x1e80;" horiz-adv-x="1816" d="M12 1458h297l226 -919l266 919h213l266 -919l227 919h297l-391 -1458h-237l-269 885l-268 -885h-238zM587 1948h281l131 -349h-178z" />
<glyph unicode="&#x1e81;" horiz-adv-x="1554" d="M8 1067h283l172 -659l217 659h194l220 -659l172 659h280l-325 -1067h-220l-223 670l-223 -670h-219zM457 1585h280l132 -348h-179z" />
<glyph unicode="&#x1e82;" horiz-adv-x="1816" d="M12 1458h297l226 -919l266 919h213l266 -919l227 919h297l-391 -1458h-237l-269 885l-268 -885h-238zM817 1599l131 349h280l-233 -349h-178z" />
<glyph unicode="&#x1e83;" horiz-adv-x="1554" d="M8 1067h283l172 -659l217 659h194l220 -659l172 659h280l-325 -1067h-220l-223 670l-223 -670h-219zM688 1237l131 348h281l-233 -348h-179z" />
<glyph unicode="&#x1e84;" horiz-adv-x="1816" d="M12 1458h297l226 -919l266 919h213l266 -919l227 919h297l-391 -1458h-237l-269 885l-268 -885h-238zM567 1604v256h228v-256h-228zM1020 1604v256h227v-256h-227z" />
<glyph unicode="&#x1e85;" horiz-adv-x="1554" d="M8 1067h283l172 -659l217 659h194l220 -659l172 659h280l-325 -1067h-220l-223 670l-223 -670h-219zM436 1241v256h227v-256h-227zM889 1241v256h227v-256h-227z" />
<glyph unicode="&#x1e8a;" horiz-adv-x="1234" d="M10 0l453 748l-424 710h323l254 -471l256 471h322l-424 -710l455 -748h-326l-283 508l-280 -508h-326zM499 1616v237h236v-237h-236z" />
<glyph unicode="&#x1e8b;" horiz-adv-x="1079" d="M25 0l368 545l-354 522h319l181 -305l182 305h319l-354 -522l369 -545h-320l-196 319l-195 -319h-319zM422 1253v236h236v-236h-236z" />
<glyph unicode="&#x1ef2;" horiz-adv-x="1171" d="M6 1458h309l273 -588l268 588h309l-438 -860v-598h-283v598zM270 1948h281l131 -349h-178z" />
<glyph unicode="&#x1ef3;" horiz-adv-x="1011" d="M8 1067h281l221 -659l213 659h281l-457 -1239q-35 -92 -80 -137q-47 -47 -105.5 -64.5t-123.5 -17.5h-105v239h62q57 0 84.5 18.5t48.5 78.5l45 131zM170 1585h280l132 -348h-179z" />
<glyph unicode="&#x2000;" horiz-adv-x="1224" />
<glyph unicode="&#x2001;" horiz-adv-x="2448" />
<glyph unicode="&#x2002;" horiz-adv-x="1224" />
<glyph unicode="&#x2003;" horiz-adv-x="2448" />
<glyph unicode="&#x2004;" horiz-adv-x="816" />
<glyph unicode="&#x2005;" horiz-adv-x="612" />
<glyph unicode="&#x2006;" horiz-adv-x="408" />
<glyph unicode="&#x2007;" />
<glyph unicode="&#x2008;" horiz-adv-x="583" />
<glyph unicode="&#x2009;" horiz-adv-x="489" />
<glyph unicode="&#x200a;" horiz-adv-x="136" />
<glyph unicode="&#x200b;" horiz-adv-x="0" />
<glyph unicode="&#x2010;" horiz-adv-x="872" d="M121 461v248h631v-248h-631z" />
<glyph unicode="&#x2011;" horiz-adv-x="872" d="M121 461v248h631v-248h-631z" />
<glyph unicode="&#x2012;" horiz-adv-x="872" d="M121 461v248h631v-248h-631z" />
<glyph unicode="&#x2013;" d="M102 461v248h908v-248h-908z" />
<glyph unicode="&#x2014;" horiz-adv-x="2103" d="M121 463v256h1861v-256h-1861z" />
<glyph unicode="&#x2015;" horiz-adv-x="2103" d="M121 463v256h1861v-256h-1861z" />
<glyph unicode="&#x2018;" horiz-adv-x="559" d="M139 1206v252l279 215v-467h-279z" />
<glyph unicode="&#x2019;" horiz-adv-x="559" d="M139 993v465h279v-254z" />
<glyph unicode="&#x201a;" horiz-adv-x="555" d="M139 -213v467h279v-254z" />
<glyph unicode="&#x201c;" horiz-adv-x="987" d="M139 1206v252l277 215v-467h-277zM569 1206v252l279 215v-467h-279z" />
<glyph unicode="&#x201d;" horiz-adv-x="987" d="M139 993v465h277v-254zM569 993v465h279v-254z" />
<glyph unicode="&#x201e;" horiz-adv-x="993" d="M139 -213v467h277v-254zM569 -213v467h279v-254z" />
<glyph unicode="&#x2020;" horiz-adv-x="1185" d="M117 840v239h342v379h266v-379h344v-239h-344v-840h-266v840h-342z" />
<glyph unicode="&#x2021;" horiz-adv-x="1185" d="M117 -12v239h342v613h-342v239h342v379h266v-379h344v-239h-344v-613h344v-239h-344v-379h-266v379h-342z" />
<glyph unicode="&#x2022;" horiz-adv-x="1009" d="M170 684q0 70 26.5 130t71.5 105.5t105.5 72t130.5 26.5t130 -26.5t105 -72t72 -105.5t27 -130t-27 -130t-72 -105.5t-105.5 -72t-129.5 -26.5q-70 0 -130.5 26.5t-105.5 72t-71.5 105.5t-26.5 130z" />
<glyph unicode="&#x2026;" horiz-adv-x="1732" d="M139 0v289h291v-289h-291zM721 0v289h289v-289h-289zM1305 0v289h288v-289h-288z" />
<glyph unicode="&#x202f;" horiz-adv-x="489" />
<glyph unicode="&#x2030;" horiz-adv-x="2480" d="M106 987v203q0 70 24 122t65 87t94 53t114 18q59 0 113.5 -18t95.5 -53t64.5 -87t23.5 -122v-203q0 -70 -23.5 -122t-64.5 -88t-95 -53t-114 -17q-61 0 -114 17t-94 53t-65 88.5t-24 121.5zM299 995q0 -59 27.5 -87.5t76.5 -28.5t77 28.5t28 87.5v187q0 59 -27.5 87.5 t-77.5 28.5q-104 0 -104 -116v-187zM420 0l690 1458h209l-690 -1458h-209zM1036 268v203q0 70 23.5 122t64.5 87t94.5 53.5t114.5 18.5q59 0 113.5 -18.5t95.5 -53.5t64.5 -87t23.5 -122v-203q0 -70 -23.5 -122t-64.5 -87.5t-95 -53t-114 -17.5q-61 0 -114.5 17.5t-94.5 53 t-64.5 88t-23.5 121.5zM1229 276q0 -117 104 -116q49 0 77 28.5t28 87.5v187q0 59 -28 88t-77 29q-104 0 -104 -117v-187zM1778 268v203q0 70 23.5 122t64.5 87t94 53.5t115 18.5q59 0 113.5 -18.5t95 -53.5t64.5 -87t24 -122v-203q0 -70 -24 -122t-64.5 -87.5t-95 -53 t-113.5 -17.5q-61 0 -114.5 17.5t-94.5 53t-64.5 88t-23.5 121.5zM1970 276q0 -117 105 -116q49 0 76.5 27.5t27.5 86.5v189q0 59 -27.5 88t-76.5 29q-104 0 -105 -117v-187z" />
<glyph unicode="&#x2039;" horiz-adv-x="716" d="M70 563l510 508v-317l-193 -191l193 -190v-318z" />
<glyph unicode="&#x203a;" horiz-adv-x="716" d="M137 55v318l195 190l-195 191v317l510 -508z" />
<glyph unicode="&#x2044;" horiz-adv-x="425" d="M-236 0l691 1458h207l-691 -1458h-207z" />
<glyph unicode="&#x205f;" horiz-adv-x="612" />
<glyph unicode="&#x2070;" horiz-adv-x="679" d="M61 848v348q0 66 24 117t62.5 85t89 51t103.5 17q55 0 105.5 -17t88 -51t61 -85t23.5 -117v-348q0 -68 -23.5 -118t-61 -85t-88 -52.5t-105.5 -17.5q-53 0 -103.5 17.5t-89 52.5t-62.5 85t-24 118zM256 844q0 -47 24.5 -70.5t59.5 -23.5t60.5 23.5t25.5 70.5v352 q0 47 -25.5 72.5t-60.5 25.5t-59.5 -25.5t-24.5 -72.5v-352z" />
<glyph unicode="&#x2074;" horiz-adv-x="679" d="M37 700v183l293 575h211l-295 -575h151v127h185v-127h67v-183h-67v-116h-185v116h-360z" />
<glyph unicode="&#x2075;" horiz-adv-x="679" d="M63 844h193q10 -94 88 -94q39 0 62 24q16 16 21 43t5 62q0 70 -20.5 100.5t-67.5 30.5q-41 0 -60.5 -18.5t-25.5 -43.5h-178v510h526v-174h-350v-149q47 37 119 36q57 0 99 -16t71 -45q53 -53 66.5 -110.5t13.5 -120.5q0 -78 -16.5 -130.5t-63.5 -99.5q-27 -27 -78 -50.5 t-123 -23.5t-124 23t-81 51q-45 45 -58 90t-18 105z" />
<glyph unicode="&#x2076;" horiz-adv-x="679" d="M49 856q0 47 16.5 98.5t57.5 137.5l180 366h211l-174 -346q12 4 24.5 5t26.5 1q41 0 82 -17.5t75 -50t55.5 -82t21.5 -112.5q0 -68 -22.5 -121t-62.5 -88t-92.5 -53.5t-111.5 -18.5t-110.5 17.5t-91.5 53.5t-62.5 88t-22.5 122zM244 856q0 -53 26.5 -82t65.5 -29 q41 0 67.5 29t26.5 82t-26.5 81t-67.5 28q-39 0 -65.5 -28t-26.5 -81z" />
<glyph unicode="&#x2077;" horiz-adv-x="679" d="M45 1143v315h592v-172l-277 -702h-192l274 700h-221v-141h-176z" />
<glyph unicode="&#x2078;" horiz-adv-x="679" d="M49 844q0 72 32 117t69 73q-31 25 -61 67t-30 107q0 61 22.5 109.5t61.5 81.5t90.5 50t106.5 17t106.5 -17t90 -50t62.5 -81t24 -110q0 -66 -30 -107.5t-63 -66.5q37 -29 69 -73.5t32 -116.5q0 -68 -22.5 -118t-62.5 -84t-93.5 -50.5t-112.5 -16.5t-112.5 16.5 t-93.5 50.5t-62.5 84t-22.5 118zM242 848q0 -41 28.5 -69.5t69.5 -28.5t69.5 28.5t28.5 69.5t-28.5 70.5t-69.5 29.5t-69.5 -29.5t-28.5 -70.5zM252 1204q0 -39 25.5 -65.5t62.5 -26.5q39 0 63.5 26.5t24.5 65.5q0 37 -24.5 62.5t-63.5 25.5t-63.5 -25.5t-24.5 -62.5z" />
<glyph unicode="&#x2079;" horiz-adv-x="679" d="M55 1186q0 68 22.5 121t62.5 88t92.5 53t111.5 18q57 0 109.5 -18t92.5 -53t62.5 -87t22.5 -122q0 -57 -18.5 -108.5t-55.5 -127.5l-180 -366h-211l174 346q-10 -4 -23.5 -5t-27.5 -1q-41 0 -82 17t-75 50t-55.5 82t-21.5 113zM250 1188q0 -47 26.5 -78t67.5 -31 q39 0 66.5 29t27.5 80q0 49 -26.5 76.5t-67.5 27.5t-67.5 -27.5t-26.5 -76.5z" />
<glyph unicode="&#x2080;" horiz-adv-x="679" d="M61 -43v348q0 66 24 117t62.5 85t89 51t103.5 17q55 0 105.5 -17t88 -51t61 -85t23.5 -117v-348q0 -68 -23.5 -118t-61 -85t-88 -52t-105.5 -17q-53 0 -103.5 17t-89 52t-62.5 85t-24 118zM256 -47q0 -47 24.5 -70.5t59.5 -23.5t60.5 23.5t25.5 70.5v352q0 47 -25.5 72.5 t-60.5 25.5t-59.5 -25.5t-24.5 -72.5v-352z" />
<glyph unicode="&#x2081;" horiz-adv-x="679" d="M111 190v218l184 159h194v-874h-194v657z" />
<glyph unicode="&#x2082;" horiz-adv-x="679" d="M70 -133l319 350q25 27 35 47.5t10 48.5q0 41 -22.5 64.5t-63.5 23.5q-31 0 -58.5 -18t-27.5 -72h-192q0 63 21.5 112.5t59 83.5t89 51t108.5 17q121 0 200 -69.5t79 -192.5q0 -68 -28 -112.5t-79 -100.5l-215 -233h322v-174h-557v174z" />
<glyph unicode="&#x2083;" horiz-adv-x="679" d="M57 -45h193q0 -49 27.5 -73.5t68.5 -24.5q43 0 69.5 26.5t26.5 75.5q0 43 -26.5 70.5t-73.5 27.5h-27v166h27q47 0 68.5 28t21.5 60q0 45 -25.5 67.5t-60.5 22.5t-60.5 -22.5t-25.5 -63.5h-192q0 61 21.5 109.5t59 82.5t89 51t108.5 17q59 0 110.5 -19t88.5 -53t58.5 -81 t21.5 -105q0 -72 -29 -110.5t-64 -61.5q39 -25 71 -69.5t32 -122.5q0 -68 -23.5 -119t-63.5 -84t-92.5 -49t-109.5 -16q-55 0 -106.5 15t-92.5 48t-65.5 84t-24.5 123z" />
<glyph unicode="&#x2084;" horiz-adv-x="679" d="M37 -8l293 575h211l-295 -575h151v127h185v-127h67v-182h-67v-117h-185v117h-360v182z" />
<glyph unicode="&#x2085;" horiz-adv-x="679" d="M63 -47h193q10 -94 88 -94q39 0 62 24q16 16 21 43t5 62q0 70 -20.5 100.5t-67.5 30.5q-41 0 -60.5 -18.5t-25.5 -43.5h-178v510h526v-174h-350v-149q47 37 119 37q57 0 99 -16.5t71 -45.5q53 -53 66.5 -110.5t13.5 -120.5q0 -78 -16.5 -130.5t-63.5 -99.5 q-27 -27 -78 -50t-123 -23t-124 22.5t-81 50.5q-45 45 -58 90.5t-18 104.5z" />
<glyph unicode="&#x2086;" horiz-adv-x="679" d="M49 -35q0 47 16.5 98.5t57.5 137.5l180 366h211l-174 -346q12 4 24.5 5t26.5 1q41 0 82 -17t75 -50t55.5 -82.5t21.5 -112.5q0 -68 -22.5 -121t-62.5 -88t-92.5 -53t-111.5 -18t-110.5 17t-91.5 53t-62.5 88.5t-22.5 121.5zM244 -35q0 -53 26.5 -81.5t65.5 -28.5 q41 0 67.5 28.5t26.5 81.5t-26.5 81t-67.5 28q-39 0 -65.5 -28t-26.5 -81z" />
<glyph unicode="&#x2087;" horiz-adv-x="679" d="M45 252v315h592v-172l-277 -702h-192l274 700h-221v-141h-176z" />
<glyph unicode="&#x2088;" horiz-adv-x="679" d="M49 -47q0 72 32 117t69 73q-31 25 -61 67t-30 107q0 61 22.5 109.5t61.5 81.5t90.5 50t106.5 17t106.5 -17t90 -50t62.5 -81t24 -110q0 -66 -30 -107.5t-63 -66.5q37 -29 69 -73.5t32 -116.5q0 -68 -22.5 -118t-62.5 -84t-93.5 -50t-112.5 -16t-112.5 16t-93.5 50 t-62.5 84t-22.5 118zM242 -43q0 -41 28.5 -69.5t69.5 -28.5t69.5 28.5t28.5 69.5t-28.5 70.5t-69.5 29.5t-69.5 -29.5t-28.5 -70.5zM252 313q0 -39 25.5 -65.5t62.5 -26.5q39 0 63.5 26.5t24.5 65.5q0 37 -24.5 62.5t-63.5 25.5t-63.5 -25.5t-24.5 -62.5z" />
<glyph unicode="&#x2089;" horiz-adv-x="679" d="M55 295q0 68 22.5 121t62.5 88t92.5 53t111.5 18q57 0 109.5 -18t92.5 -53t62.5 -87t22.5 -122q0 -57 -18.5 -108.5t-55.5 -127.5l-180 -366h-211l174 346q-10 -4 -23.5 -5t-27.5 -1q-41 0 -82 17.5t-75 50t-55.5 81.5t-21.5 113zM250 297q0 -47 26.5 -78t67.5 -31 q39 0 66.5 29t27.5 80q0 49 -26.5 76.5t-67.5 27.5t-67.5 -27.5t-26.5 -76.5z" />
<glyph unicode="&#x20ac;" horiz-adv-x="1400" d="M80 485v170h141v154h-141v170h149q10 106 40 186t100 150q76 76 172 115.5t219 39.5q205 0 350 -115.5t184 -344.5h-288q-23 90 -80.5 148.5t-165.5 58.5q-59 0 -104.5 -20.5t-75.5 -55.5q-27 -29 -40.5 -65t-19.5 -97h303v-170h-317v-154h317v-170h-305 q8 -66 20.5 -102.5t41.5 -65.5q31 -35 75.5 -55t104.5 -20q109 0 167 58t81 149h286q-18 -115 -66 -201t-119 -144.5t-160 -87t-189 -28.5q-123 0 -219.5 40t-171.5 115q-72 72 -100.5 152t-39.5 190h-149z" />
<glyph unicode="&#x20b4;" horiz-adv-x="1382" d="M80 485v170h151q27 49 64 84q47 43 108 70h-323v170h831q12 27 13 59q0 76 -55.5 130.5t-170.5 54.5q-72 0 -150.5 -17.5t-148.5 -83.5l-180 178q94 92 207 131t264 39q119 0 213 -32.5t159.5 -91t100.5 -139.5t35 -179q0 -14 -1 -25.5t-1 -23.5h107v-170h-158 q-23 -39 -51 -68q-59 -57 -142 -86h351v-170h-834q-8 -27 -8 -63q0 -88 65.5 -134t192.5 -46q102 0 192 26.5t160 96.5l184 -185q-109 -109 -237.5 -150.5t-294.5 -41.5q-115 0 -213 29.5t-171 86t-115 138.5t-42 188v27q0 14 2 28h-104z" />
<glyph unicode="&#x2116;" horiz-adv-x="1976" d="M141 0v1458h236l520 -934v934h266v-1458h-235l-520 934v-934h-267zM1272 1094q0 102 18.5 169.5t65.5 116.5q35 35 92 61.5t131 26.5q72 0 130 -26.5t93 -61.5q45 -47 64.5 -116.5t19.5 -169.5q0 -102 -18.5 -170t-65.5 -115q-35 -35 -93 -62.5t-130 -27.5 q-74 0 -131 27.5t-92 62.5q-47 47 -65.5 115.5t-18.5 169.5zM1280 461v190h594v-190h-594zM1477 1102q0 -59 6 -104.5t28 -67.5q10 -10 27.5 -18.5t40.5 -8.5t39 8.5t27 18.5q25 23 29.5 68t4.5 104q0 74 -6 111.5t-28 60.5q-23 25 -66 24q-47 0 -68 -24q-23 -23 -28.5 -69 t-5.5 -103z" />
<glyph unicode="&#x2122;" horiz-adv-x="1892" d="M92 1284v174h645v-174h-225v-700h-195v700h-225zM872 584v874h195l250 -467l250 467h194v-874h-194v516l-164 -322h-172l-164 322v-516h-195z" />
<glyph unicode="&#x2126;" horiz-adv-x="1318" d="M121 0v254h121q-29 27 -46.5 54.5t-29.5 56.5q-29 72 -37 161.5t-8 202.5q0 104 3 188t16.5 155t43 130.5t84.5 114.5q76 74 170 113.5t221 39.5t221.5 -39.5t168.5 -113.5q55 -55 84.5 -114.5t44 -130.5t17.5 -155t3 -188q0 -113 -9 -203t-38 -161q-12 -29 -29.5 -56.5 t-44.5 -54.5h121v-254h-448v225q35 16 62.5 38t45.5 50q14 20 24.5 50t17.5 77t10 114t3 161q0 104 -3 175t-11 118t-22.5 76.5t-34.5 52.5q-31 35 -77 57.5t-106 22.5q-59 0 -105 -23t-79 -57q-20 -23 -33.5 -52.5t-21.5 -76.5t-11 -118t-3 -175q0 -94 3 -161t9 -114 t16 -76.5t25 -50.5q37 -55 110 -88v-225h-448z" />
<glyph unicode="&#x2150;" horiz-adv-x="1785" d="M111 1081v217l184 160h194v-874h-194v657zM444 0l691 1458h206l-690 -1458h-207zM1151 559v315h592v-172l-277 -702h-192l274 700h-221v-141h-176z" />
<glyph unicode="&#x2151;" horiz-adv-x="1785" d="M111 1081v217l184 160h194v-874h-194v657zM444 0l691 1458h206l-690 -1458h-207zM1161 602q0 68 22.5 121t62.5 88t92.5 53.5t111.5 18.5q57 0 109.5 -18.5t92.5 -53.5t62.5 -87t22.5 -122q0 -57 -18.5 -108.5t-55.5 -126.5l-180 -367h-211l174 346q-10 -4 -23.5 -5 t-27.5 -1q-41 0 -82 17.5t-75 50t-55.5 82t-21.5 112.5zM1356 604q0 -47 26.5 -77.5t67.5 -30.5q39 0 66.5 28.5t27.5 79.5q0 49 -26.5 77t-67.5 28t-67.5 -28t-26.5 -77z" />
<glyph unicode="&#x2152;" horiz-adv-x="2465" d="M111 1081v217l184 160h194v-874h-194v657zM444 0l691 1458h206l-690 -1458h-207zM1217 498v217l184 159h194v-874h-194v657zM1847 264v348q0 66 23.5 117t62.5 85t89.5 51.5t103.5 17.5q55 0 105 -17.5t88 -51.5t61.5 -85t23.5 -117v-348q0 -68 -23.5 -118t-61.5 -84.5 t-88 -52t-105 -17.5q-53 0 -103.5 17.5t-89.5 52t-62.5 85t-23.5 117.5zM2042 260q0 -47 24.5 -70.5t59.5 -23.5t60.5 23.5t25.5 70.5v352q0 47 -25.5 73t-60.5 26t-59.5 -26t-24.5 -73v-352z" />
<glyph unicode="&#x2153;" horiz-adv-x="1785" d="M111 1081v217l184 160h194v-874h-194v657zM444 0l691 1458h206l-690 -1458h-207zM1163 262h193q0 -49 27.5 -73.5t68.5 -24.5q43 0 69.5 26.5t26.5 75.5q0 43 -26.5 71t-73.5 28h-27v165h27q47 0 68.5 28t21.5 60q0 45 -25.5 68t-60.5 23t-60.5 -22.5t-25.5 -63.5h-192 q0 61 21.5 109t59 82t89 51.5t108.5 17.5q59 0 110.5 -19.5t88.5 -53.5t58.5 -81t21.5 -104q0 -72 -29 -111t-64 -61q39 -25 71 -70t32 -123q0 -68 -23.5 -119t-63.5 -83.5t-92.5 -49t-109.5 -16.5q-55 0 -106.5 15.5t-92.5 48t-65.5 83.5t-24.5 123z" />
<glyph unicode="&#x2154;" horiz-adv-x="1785" d="M70 584v174l319 350q25 27 35 47.5t10 48.5q0 41 -22.5 64.5t-63.5 23.5q-31 0 -58.5 -18.5t-27.5 -71.5h-192q0 63 21.5 112.5t59 83.5t89 51t108.5 17q121 0 200 -69.5t79 -192.5q0 -68 -28 -112.5t-79 -100.5l-215 -233h322v-174h-557zM444 0l691 1458h206l-690 -1458 h-207zM1163 262h193q0 -49 27.5 -73.5t68.5 -24.5q43 0 69.5 26.5t26.5 75.5q0 43 -26.5 71t-73.5 28h-27v165h27q47 0 68.5 28t21.5 60q0 45 -25.5 68t-60.5 23t-60.5 -22.5t-25.5 -63.5h-192q0 61 21.5 109t59 82t89 51.5t108.5 17.5q59 0 110.5 -19.5t88.5 -53.5 t58.5 -81t21.5 -104q0 -72 -29 -111t-64 -61q39 -25 71 -70t32 -123q0 -68 -23.5 -119t-63.5 -83.5t-92.5 -49t-109.5 -16.5q-55 0 -106.5 15.5t-92.5 48t-65.5 83.5t-24.5 123z" />
<glyph unicode="&#x2155;" horiz-adv-x="1785" d="M111 1081v217l184 160h194v-874h-194v657zM444 0l691 1458h206l-690 -1458h-207zM1169 260h193q10 -94 88 -94q39 0 61 24q16 16 21.5 43t5.5 62q0 70 -20.5 100.5t-67.5 30.5q-41 0 -60.5 -18.5t-25.5 -42.5h-178v509h526v-174h-350v-149q47 37 119 37q57 0 99 -16.5 t71 -45.5q53 -53 66.5 -110.5t13.5 -120.5q0 -78 -16.5 -130t-63.5 -99q-27 -27 -78 -50.5t-123 -23.5t-124 22.5t-81 51.5q-45 45 -58 90t-18 104z" />
<glyph unicode="&#x2156;" horiz-adv-x="1785" d="M70 584v174l319 350q25 27 35 47.5t10 48.5q0 41 -22.5 64.5t-63.5 23.5q-31 0 -58.5 -18.5t-27.5 -71.5h-192q0 63 21.5 112.5t59 83.5t89 51t108.5 17q121 0 200 -69.5t79 -192.5q0 -68 -28 -112.5t-79 -100.5l-215 -233h322v-174h-557zM444 0l691 1458h206l-690 -1458 h-207zM1169 260h193q10 -94 88 -94q39 0 61 24q16 16 21.5 43t5.5 62q0 70 -20.5 100.5t-67.5 30.5q-41 0 -60.5 -18.5t-25.5 -42.5h-178v509h526v-174h-350v-149q47 37 119 37q57 0 99 -16.5t71 -45.5q53 -53 66.5 -110.5t13.5 -120.5q0 -78 -16.5 -130t-63.5 -99 q-27 -27 -78 -50.5t-123 -23.5t-124 22.5t-81 51.5q-45 45 -58 90t-18 104z" />
<glyph unicode="&#x2157;" horiz-adv-x="1785" d="M57 846h193q0 -49 27.5 -73.5t68.5 -24.5q43 0 69.5 26.5t26.5 75.5q0 43 -26.5 70.5t-73.5 27.5h-27v166h27q47 0 68.5 27.5t21.5 60.5q0 45 -25.5 67.5t-60.5 22.5t-60.5 -22.5t-25.5 -63.5h-192q0 61 21.5 109.5t59 82.5t89 51t108.5 17q59 0 110.5 -19.5t88.5 -53 t58.5 -80.5t21.5 -105q0 -72 -29 -110.5t-64 -61.5q39 -25 71 -69.5t32 -122.5q0 -68 -23.5 -119t-63.5 -84t-92.5 -49.5t-109.5 -16.5q-55 0 -106.5 15.5t-92.5 48.5t-65.5 84t-24.5 123zM444 0l691 1458h206l-690 -1458h-207zM1169 260h193q10 -94 88 -94q39 0 61 24 q16 16 21.5 43t5.5 62q0 70 -20.5 100.5t-67.5 30.5q-41 0 -60.5 -18.5t-25.5 -42.5h-178v509h526v-174h-350v-149q47 37 119 37q57 0 99 -16.5t71 -45.5q53 -53 66.5 -110.5t13.5 -120.5q0 -78 -16.5 -130t-63.5 -99q-27 -27 -78 -50.5t-123 -23.5t-124 22.5t-81 51.5 q-45 45 -58 90t-18 104z" />
<glyph unicode="&#x2158;" horiz-adv-x="1785" d="M37 700v183l293 575h211l-295 -575h151v127h185v-127h67v-183h-67v-116h-185v116h-360zM444 0l691 1458h206l-690 -1458h-207zM1169 260h193q10 -94 88 -94q39 0 61 24q16 16 21.5 43t5.5 62q0 70 -20.5 100.5t-67.5 30.5q-41 0 -60.5 -18.5t-25.5 -42.5h-178v509h526 v-174h-350v-149q47 37 119 37q57 0 99 -16.5t71 -45.5q53 -53 66.5 -110.5t13.5 -120.5q0 -78 -16.5 -130t-63.5 -99q-27 -27 -78 -50.5t-123 -23.5t-124 22.5t-81 51.5q-45 45 -58 90t-18 104z" />
<glyph unicode="&#x2159;" horiz-adv-x="1785" d="M111 1081v217l184 160h194v-874h-194v657zM444 0l691 1458h206l-690 -1458h-207zM1155 272q0 47 16.5 98.5t57.5 137.5l180 366h211l-174 -346q12 4 24.5 5.5t26.5 1.5q41 0 82 -17.5t75 -50.5t55.5 -82.5t21.5 -112.5q0 -68 -22.5 -121t-62.5 -87.5t-92.5 -53 t-111.5 -18.5t-110.5 17.5t-91.5 53t-62.5 88t-22.5 121.5zM1350 272q0 -53 26.5 -81.5t65.5 -28.5q41 0 67.5 28.5t26.5 81.5t-26.5 81t-67.5 28q-39 0 -65.5 -27.5t-26.5 -81.5z" />
<glyph unicode="&#x215a;" horiz-adv-x="1785" d="M63 844h193q10 -94 88 -94q39 0 62 24q16 16 21 43t5 62q0 70 -20.5 100.5t-67.5 30.5q-41 0 -60.5 -18.5t-25.5 -43.5h-178v510h526v-174h-350v-149q47 37 119 36q57 0 99 -16t71 -45q53 -53 66.5 -110.5t13.5 -120.5q0 -78 -16.5 -130.5t-63.5 -99.5q-27 -27 -78 -50.5 t-123 -23.5t-124 23t-81 51q-45 45 -58 90t-18 105zM444 0l691 1458h206l-690 -1458h-207zM1155 272q0 47 16.5 98.5t57.5 137.5l180 366h211l-174 -346q12 4 24.5 5.5t26.5 1.5q41 0 82 -17.5t75 -50.5t55.5 -82.5t21.5 -112.5q0 -68 -22.5 -121t-62.5 -87.5t-92.5 -53 t-111.5 -18.5t-110.5 17.5t-91.5 53t-62.5 88t-22.5 121.5zM1350 272q0 -53 26.5 -81.5t65.5 -28.5q41 0 67.5 28.5t26.5 81.5t-26.5 81t-67.5 28q-39 0 -65.5 -27.5t-26.5 -81.5z" />
<glyph unicode="&#x215b;" horiz-adv-x="1785" d="M111 1081v217l184 160h194v-874h-194v657zM444 0l691 1458h206l-690 -1458h-207zM1155 260q0 72 32 117t68 74q-31 25 -60.5 66.5t-29.5 107.5q0 61 22.5 109t61.5 81t90.5 50.5t106.5 17.5t106.5 -17.5t90 -50.5t62.5 -81t24 -109q0 -66 -30 -108t-63 -66q37 -29 69 -74 t32 -117q0 -68 -22.5 -118t-62.5 -83.5t-93.5 -50t-112.5 -16.5t-112.5 16.5t-93.5 50t-62.5 84t-22.5 117.5zM1348 264q0 -41 28.5 -69.5t69.5 -28.5t69.5 28.5t28.5 69.5t-28.5 71t-69.5 30t-69.5 -30t-28.5 -71zM1358 621q0 -39 25.5 -66t62.5 -27q39 0 63.5 27t24.5 66 q0 37 -24.5 62.5t-63.5 25.5t-63.5 -26t-24.5 -62z" />
<glyph unicode="&#x215c;" horiz-adv-x="1785" d="M57 846h193q0 -49 27.5 -73.5t68.5 -24.5q43 0 69.5 26.5t26.5 75.5q0 43 -26.5 70.5t-73.5 27.5h-27v166h27q47 0 68.5 27.5t21.5 60.5q0 45 -25.5 67.5t-60.5 22.5t-60.5 -22.5t-25.5 -63.5h-192q0 61 21.5 109.5t59 82.5t89 51t108.5 17q59 0 110.5 -19.5t88.5 -53 t58.5 -80.5t21.5 -105q0 -72 -29 -110.5t-64 -61.5q39 -25 71 -69.5t32 -122.5q0 -68 -23.5 -119t-63.5 -84t-92.5 -49.5t-109.5 -16.5q-55 0 -106.5 15.5t-92.5 48.5t-65.5 84t-24.5 123zM444 0l691 1458h206l-690 -1458h-207zM1155 260q0 72 32 117t68 74 q-31 25 -60.5 66.5t-29.5 107.5q0 61 22.5 109t61.5 81t90.5 50.5t106.5 17.5t106.5 -17.5t90 -50.5t62.5 -81t24 -109q0 -66 -30 -108t-63 -66q37 -29 69 -74t32 -117q0 -68 -22.5 -118t-62.5 -83.5t-93.5 -50t-112.5 -16.5t-112.5 16.5t-93.5 50t-62.5 84t-22.5 117.5z M1348 264q0 -41 28.5 -69.5t69.5 -28.5t69.5 28.5t28.5 69.5t-28.5 71t-69.5 30t-69.5 -30t-28.5 -71zM1358 621q0 -39 25.5 -66t62.5 -27q39 0 63.5 27t24.5 66q0 37 -24.5 62.5t-63.5 25.5t-63.5 -26t-24.5 -62z" />
<glyph unicode="&#x215d;" horiz-adv-x="1785" d="M63 844h193q10 -94 88 -94q39 0 62 24q16 16 21 43t5 62q0 70 -20.5 100.5t-67.5 30.5q-41 0 -60.5 -18.5t-25.5 -43.5h-178v510h526v-174h-350v-149q47 37 119 36q57 0 99 -16t71 -45q53 -53 66.5 -110.5t13.5 -120.5q0 -78 -16.5 -130.5t-63.5 -99.5q-27 -27 -78 -50.5 t-123 -23.5t-124 23t-81 51q-45 45 -58 90t-18 105zM444 0l691 1458h206l-690 -1458h-207zM1155 260q0 72 32 117t68 74q-31 25 -60.5 66.5t-29.5 107.5q0 61 22.5 109t61.5 81t90.5 50.5t106.5 17.5t106.5 -17.5t90 -50.5t62.5 -81t24 -109q0 -66 -30 -108t-63 -66 q37 -29 69 -74t32 -117q0 -68 -22.5 -118t-62.5 -83.5t-93.5 -50t-112.5 -16.5t-112.5 16.5t-93.5 50t-62.5 84t-22.5 117.5zM1348 264q0 -41 28.5 -69.5t69.5 -28.5t69.5 28.5t28.5 69.5t-28.5 71t-69.5 30t-69.5 -30t-28.5 -71zM1358 621q0 -39 25.5 -66t62.5 -27 q39 0 63.5 27t24.5 66q0 37 -24.5 62.5t-63.5 25.5t-63.5 -26t-24.5 -62z" />
<glyph unicode="&#x215e;" horiz-adv-x="1785" d="M45 1143v315h592v-172l-277 -702h-192l274 700h-221v-141h-176zM444 0l691 1458h206l-690 -1458h-207zM1155 260q0 72 32 117t68 74q-31 25 -60.5 66.5t-29.5 107.5q0 61 22.5 109t61.5 81t90.5 50.5t106.5 17.5t106.5 -17.5t90 -50.5t62.5 -81t24 -109q0 -66 -30 -108 t-63 -66q37 -29 69 -74t32 -117q0 -68 -22.5 -118t-62.5 -83.5t-93.5 -50t-112.5 -16.5t-112.5 16.5t-93.5 50t-62.5 84t-22.5 117.5zM1348 264q0 -41 28.5 -69.5t69.5 -28.5t69.5 28.5t28.5 69.5t-28.5 71t-69.5 30t-69.5 -30t-28.5 -71zM1358 621q0 -39 25.5 -66t62.5 -27 q39 0 63.5 27t24.5 66q0 37 -24.5 62.5t-63.5 25.5t-63.5 -26t-24.5 -62z" />
<glyph unicode="&#x215f;" horiz-adv-x="1105" d="M111 1081v217l184 160h194v-874h-194v657zM444 0l691 1458h206l-690 -1458h-207z" />
<glyph unicode="&#x2189;" horiz-adv-x="1785" d="M61 848v348q0 66 24 117t62.5 85t89 51t103.5 17q55 0 105.5 -17t88 -51t61 -85t23.5 -117v-348q0 -68 -23.5 -118t-61 -85t-88 -52.5t-105.5 -17.5q-53 0 -103.5 17.5t-89 52.5t-62.5 85t-24 118zM256 844q0 -47 24.5 -70.5t59.5 -23.5t60.5 23.5t25.5 70.5v352 q0 47 -25.5 72.5t-60.5 25.5t-59.5 -25.5t-24.5 -72.5v-352zM444 0l691 1458h206l-690 -1458h-207zM1163 262h193q0 -49 27.5 -73.5t68.5 -24.5q43 0 69.5 26.5t26.5 75.5q0 43 -26.5 71t-73.5 28h-27v165h27q47 0 68.5 28t21.5 60q0 45 -25.5 68t-60.5 23t-60.5 -22.5 t-25.5 -63.5h-192q0 61 21.5 109t59 82t89 51.5t108.5 17.5q59 0 110.5 -19.5t88.5 -53.5t58.5 -81t21.5 -104q0 -72 -29 -111t-64 -61q39 -25 71 -70t32 -123q0 -68 -23.5 -119t-63.5 -83.5t-92.5 -49t-109.5 -16.5q-55 0 -106.5 15.5t-92.5 48t-65.5 83.5t-24.5 123z" />
<glyph unicode="&#x2190;" horiz-adv-x="2103" d="M102 584l791 788h336l-670 -663h1442v-252h-1442l670 -662h-336z" />
<glyph unicode="&#x2191;" horiz-adv-x="2103" d="M264 410v335l789 789l788 -789v-335l-663 669v-1444h-250v1444z" />
<glyph unicode="&#x2192;" horiz-adv-x="2103" d="M104 459v250h1444l-669 663h335l789 -788l-789 -789h-335l669 664h-1444z" />
<glyph unicode="&#x2193;" horiz-adv-x="2103" d="M262 426v336l664 -670v1442h252v-1442l661 670v-336l-788 -791z" />
<glyph unicode="&#x2196;" horiz-adv-x="2103" d="M379 139v1116h1118l238 -237l-942 4l1017 -1020l-178 -178l-1018 1020l2 -942z" />
<glyph unicode="&#x2197;" horiz-adv-x="2103" d="M291 2l1020 1020l-942 -4l237 237h1116v-1114l-237 -237l4 940l-1020 -1020z" />
<glyph unicode="&#x2198;" horiz-adv-x="2103" d="M309 1122l178 178l1020 -1019l-4 940l238 -238v-1112h-1116l-236 235l940 -4z" />
<glyph unicode="&#x2199;" horiz-adv-x="2103" d="M358 -131l2 1116l238 238l-4 -940l1018 1017l178 -178l-1018 -1018l942 2l-237 -235z" />
<glyph unicode="&#x2202;" horiz-adv-x="1136" d="M115 520q0 145 24.5 239.5t93.5 168.5q45 47 119 85t189 38q47 0 93 -12.5t85 -47.5v56q0 27 -10.5 61.5t-35 65t-65.5 51t-102 20.5q-68 0 -116 -19.5t-93 -62.5l-166 168q84 80 174 109.5t213 29.5q117 0 205 -35.5t146.5 -100t88 -153.5t29.5 -196v-465 q0 -141 -23.5 -236.5t-93.5 -168.5q-47 -51 -125.5 -89t-193.5 -38t-192.5 37.5t-125.5 89.5q-70 74 -94 169t-24 236zM381 520q0 -78 9 -142.5t46 -105.5q45 -45 115 -45t115 45q37 41 46 105.5t9 142.5t-9.5 141.5t-45.5 104.5q-45 45 -115 45t-115 -45 q-37 -41 -46 -104.5t-9 -141.5z" />
<glyph unicode="&#x2206;" horiz-adv-x="1298" d="M6 0l533 1458h221l532 -1458h-1286zM381 240h541l-267 788z" />
<glyph unicode="&#x220f;" horiz-adv-x="1402" d="M170 -391v1947h1063v-1947h-285v1696h-493v-1696h-285z" />
<glyph unicode="&#x2211;" horiz-adv-x="1130" d="M82 -166l387 770l-381 727v225h959v-253h-627l289 -572v-264l-299 -604h645v-254h-973v225z" />
<glyph unicode="&#x2212;" d="M102 461v248h908v-248h-908z" />
<glyph unicode="&#x2219;" d="M221 684q0 70 26.5 130t71.5 105.5t105.5 72t130.5 26.5t130 -26.5t105 -72t72 -105.5t27 -130t-27 -130t-72 -105.5t-105.5 -72t-129.5 -26.5q-70 0 -130.5 26.5t-105.5 72t-71.5 105.5t-26.5 130z" />
<glyph unicode="&#x221a;" horiz-adv-x="1220" d="M6 1067h289l172 -559l293 950h399v-254h-188l-398 -1204h-215z" />
<glyph unicode="&#x221e;" horiz-adv-x="1742" d="M113 582q0 80 24.5 151.5t73.5 123.5t122 83t169 31q109 0 200 -52.5t168 -142.5q78 90 169 142.5t202 52.5q94 0 167 -31t122 -83t74.5 -123.5t25.5 -151.5t-25.5 -151t-74.5 -123t-122 -81.5t-167 -29.5q-111 0 -202 51t-169 141q-78 -90 -169 -141t-199 -51 q-96 0 -169 29.5t-122 81.5t-73.5 123t-24.5 151zM371 575q0 -63 39 -98t92 -35q55 0 98 39t90 94q-47 55 -90 95.5t-98 40.5q-53 0 -92 -36t-39 -100zM1053 575q47 -55 89 -94t97 -39q53 0 93 35t40 98t-40 98.5t-93 35.5q-55 0 -97 -39t-89 -95z" />
<glyph unicode="&#x222b;" horiz-adv-x="1003" d="M117 -156h100q70 0 107.5 35t37.5 109v1124q0 180 108 276.5t284 96.5h133v-225h-101q-70 0 -107.5 -36t-37.5 -110v-1124q0 -180 -107.5 -275.5t-283.5 -95.5h-133v225z" />
<glyph unicode="&#x2248;" horiz-adv-x="1241" d="M76 365q47 47 89 80.5t82 55t81 31t88 9.5q63 0 117.5 -16.5t119.5 -51.5q45 -23 84 -36t84 -13q41 0 80 14.5t96 71.5l168 -168q-47 -47 -88 -81t-81 -55.5t-79.5 -30.5t-87.5 -9q-63 0 -118.5 16.5t-120.5 50.5q-45 23 -83 37.5t-83 14.5q-41 0 -81 -15.5t-97 -72.5z M76 827q47 47 88 81t81 55.5t80 31t87 9.5q63 0 118.5 -16.5t120.5 -51.5q45 -23 83 -37t83 -14q41 0 81 15t97 73l170 -168q-47 -47 -88 -81t-81 -55.5t-81 -30.5t-88 -9q-63 0 -118.5 16.5t-120.5 50.5q-45 23 -84 36t-84 13q-41 0 -80 -14t-96 -72z" />
<glyph unicode="&#x2260;" horiz-adv-x="1232" d="M102 100l113 138h-113v249h306l159 195h-465v250h656l211 264l161 -127l-112 -137h112v-250h-303l-159 -195h462v-249h-655l-211 -265z" />
<glyph unicode="&#x2264;" d="M141 297v281l832 -383v-281zM141 741v234l832 381v-281l-494 -217l494 -219v-281z" />
<glyph unicode="&#x2265;" d="M141 -86v281l832 383v-281zM141 358v281l494 219l-494 217v281l832 -381v-234z" />
<glyph unicode="&#x22c5;" d="M403 434v303h305v-303h-305z" />
<glyph unicode="&#x25ca;" horiz-adv-x="1302" d="M113 698l538 750l539 -750l-539 -751zM412 698l239 -338l240 338l-240 336z" />
<glyph unicode="&#x25fc;" horiz-adv-x="1064" d="M0 0v1065h1065v-1065h-1065z" />
<glyph unicode="&#xfb01;" horiz-adv-x="1241" d="M72 834v202h110v133q0 57 18.5 111.5t56.5 97.5t96.5 70t140.5 27h151v-226h-104q-92 0 -92 -96v-117h196v-202h-196v-834h-267v834h-110zM823 1249v217h273v-217h-273zM828 0v1036h266v-1036h-266z" />
<glyph unicode="&#xfb02;" horiz-adv-x="1349" d="M72 834v202h110v133q0 57 18.5 111.5t56.5 97.5t96.5 70t140.5 27h151v-226h-104q-92 0 -92 -96v-117h196v-202h-196v-834h-267v834h-110zM823 305v1153h267v-1136q0 -47 21.5 -72t72.5 -25h102v-225h-151q-82 0 -141.5 26.5t-97.5 69.5t-55.5 97.5t-17.5 111.5z" />
<glyph unicode="&#xfeff;" horiz-adv-x="0" />
<glyph d="M1182 1108v422h231v-242z" />
<glyph d="M1120 1178l74 340h236l-123 -340h-187z" />
<glyph horiz-adv-x="571" d="M70 -422l141 299h197l-91 -299h-247z" />
<glyph horiz-adv-x="571" d="M66 1237l131 348h280l-233 -348h-178z" />
<glyph horiz-adv-x="1024" d="M180 1479h201q4 -68 40 -97.5t91 -29.5t91 29.5t40 97.5h201q-2 -84 -32 -139.5t-76 -90.5t-104.5 -49t-119.5 -14t-119.5 14t-104.5 49t-76 90.5t-32 139.5z" />
<glyph horiz-adv-x="1024" d="M180 1829h201q4 -68 40 -97.5t91 -29.5t91 29.5t40 97.5h201q-4 -84 -33 -139.5t-75 -90t-104.5 -49t-119.5 -14.5t-119.5 14.5t-104.5 49t-76 90t-32 139.5z" />
<glyph d="M250 1585h280l132 -348h-179z" />
<glyph d="M217 1241v256h227v-256h-227zM670 1241v256h227v-256h-227z" />
<glyph horiz-adv-x="1024" d="M186 1276v180h650v-180h-650z" />
<glyph d="M444 1237l131 348h281l-233 -348h-179z" />
<glyph d="M180 1237l271 346h213l270 -346h-207l-170 186l-170 -186h-207z" />
<glyph horiz-adv-x="978" d="M119 1583h207l170 -184l170 184h206l-270 -346h-213z" />
<glyph horiz-adv-x="1024" d="M176 1532h178q8 -66 53.5 -94.5t104.5 -28.5t104.5 28.5t53.5 94.5h178q-4 -84 -32 -142.5t-74 -95.5t-105 -54t-125 -17t-125 17t-105 54t-75 95.5t-31 142.5z" />
<glyph horiz-adv-x="1024" d="M393 1253v236h236v-236h-236z" />
<glyph horiz-adv-x="1093" d="M266 1464q0 55 21.5 104.5t57.5 85.5t85 57.5t105 21.5q55 0 104 -20.5t85 -57.5t57.5 -86.5t21.5 -104.5t-21.5 -104t-57.5 -85t-85 -57.5t-104 -21.5t-104.5 21.5t-85.5 57.5t-57.5 85t-21.5 104zM416 1464q0 -49 34.5 -85t84.5 -36q49 0 83.5 36t34.5 85t-34.5 84 t-83.5 35t-84 -35t-35 -84z" />
<glyph d="M176 1397q68 68 119 93.5t111 25.5q47 0 80.5 -9.5t78.5 -36.5q29 -18 55.5 -28t57.5 -10q27 0 52.5 9t66.5 50l118 -117q-68 -68 -120 -93.5t-111 -25.5q-45 0 -80 10.5t-78 34.5q-29 16 -56.5 26.5t-57.5 10.5q-27 0 -52.5 -8t-66.5 -49z" />
<glyph horiz-adv-x="1024" d="M121 1237l131 348h280l-231 -348h-180zM535 1237l129 348h282l-235 -348h-176z" />
<glyph horiz-adv-x="1318" d="M360 1948h281l131 -349h-178z" />
<glyph horiz-adv-x="1318" d="M319 1604v256h228v-256h-228zM772 1604v256h227v-256h-227z" />
<glyph horiz-adv-x="1024" d="M186 1624v180h650v-180h-650z" />
<glyph horiz-adv-x="1318" d="M547 1599l131 349h280l-233 -349h-178z" />
<glyph horiz-adv-x="1318" d="M283 1599l270 347h213l270 -347h-207l-170 187l-170 -187h-206z" />
<glyph horiz-adv-x="1122" d="M190 1946h207l170 -185l170 185h207l-270 -347h-213z" />
<glyph horiz-adv-x="1024" d="M176 1905h178q8 -66 53.5 -94.5t104.5 -28.5t104.5 28.5t53.5 94.5h178q-4 -84 -32 -142.5t-74 -95.5t-105 -54.5t-125 -17.5t-125 17.5t-105 54.5t-75 95.5t-31 142.5z" />
<glyph horiz-adv-x="1024" d="M393 1616v237h236v-237h-236z" />
<glyph horiz-adv-x="1024" d="M244 1810q0 55 21.5 104.5t57 85.5t85 57.5t104.5 21.5t104.5 -20.5t85 -57.5t57 -86.5t21.5 -104.5t-21.5 -104t-57 -85t-85 -57.5t-104.5 -21.5t-104.5 21.5t-85 57.5t-57 85t-21.5 104zM393 1810q0 -49 35 -84.5t84 -35.5t84 35.5t35 84.5t-35 84t-84 35t-84 -34.5 t-35 -84.5z" />
<glyph horiz-adv-x="1318" d="M289 1759q66 68 118 94.5t111 26.5q45 0 80 -10t78 -37q31 -18 56.5 -27.5t55.5 -9.5q27 0 53.5 9.5t67.5 49.5l119 -116q-68 -68 -120 -94.5t-111 -26.5q-47 0 -82 10t-78 37q-29 16 -56.5 26.5t-58.5 10.5q-27 0 -52.5 -9.5t-66.5 -50.5z" />
<glyph horiz-adv-x="1024" d="M121 1599l131 349h280l-231 -349h-180zM535 1599l129 349h282l-235 -349h-176z" />
</font>
</defs>
</svg>
